<svg width="100" height="100" viewBox="0 0 100 100" fill="none" xmlns="http://www.w3.org/2000/svg">
<path d="M11.1637 18.8389C11.9265 15.6141 15.1586 13.62 18.3829 14.3848L94.162 32.3602C97.3862 33.125 99.3816 36.3592 98.6188 39.5839L88.8364 80.9386C88.0735 84.1633 84.8414 86.1574 81.6172 85.3926L5.83802 67.4173C2.61378 66.6524 0.618388 63.4183 1.3812 60.1936L11.1637 18.8389Z" fill="url(#paint0_linear_1177_7349)"/>
<path d="M2.40131 36.2161C1.92379 32.937 4.19478 29.8905 7.47371 29.4117L84.5343 18.1587C87.8132 17.6799 90.8584 19.9499 91.336 23.2291L97.4602 65.2839C97.9377 68.563 95.6667 71.6095 92.3878 72.0883L15.3272 83.3413C12.0482 83.8201 9.00303 81.5501 8.52551 78.2709L2.40131 36.2161Z" fill="url(#paint1_linear_1177_7349)" fill-opacity="0.1"/>
<rect x="51" y="45" width="24" height="4" rx="2" fill="white" fill-opacity="0.06"/>
<rect x="51" y="55" width="17" height="4" rx="2" fill="white" fill-opacity="0.06"/>
<path fill-rule="evenodd" clip-rule="evenodd" d="M39.6202 52.3493C40.1472 52.0404 40.762 51.7978 41.4208 51.7978C43.397 51.7978 45 53.4522 45 55.4265C45 57.2794 43.5727 58.8235 41.7721 59H29.9585C27.9383 58.7132 26.5 56.9375 26.5 54.8419C26.5 52.8787 27.8504 51.2353 29.673 50.7941C30.2659 48.6434 32.2861 47 34.6137 47C37.4243 47 39.6312 49.3603 39.6312 52.1507C39.6312 52.1825 39.6286 52.2118 39.626 52.2422C39.6231 52.275 39.6202 52.3092 39.6202 52.3493ZM35.5898 53.154C35.5058 53.2847 35.3774 53.434 35.2048 53.602L34.9808 53.833C34.8128 54.0197 34.6938 54.225 34.6238 54.449C34.5584 54.673 34.5258 54.9693 34.5258 55.338H34.9598C34.9598 55.0487 34.9878 54.813 35.0438 54.631C35.0998 54.4443 35.1931 54.2763 35.3238 54.127L35.5128 53.938C35.6621 53.798 35.7834 53.672 35.8768 53.56C35.9748 53.448 36.0564 53.315 36.1218 53.161C36.1871 53.0023 36.2198 52.8227 36.2198 52.622C36.2198 52.2207 36.0844 51.8987 35.8138 51.656C35.5478 51.4133 35.1908 51.292 34.7428 51.292C34.3694 51.292 34.0591 51.376 33.8118 51.544C33.5644 51.7073 33.3941 51.9453 33.3008 52.258L33.7138 52.454C33.7791 52.2067 33.8934 52.0223 34.0568 51.901C34.2248 51.7797 34.4511 51.719 34.7358 51.719C35.0484 51.719 35.2911 51.8007 35.4638 51.964C35.6364 52.1273 35.7228 52.3537 35.7228 52.643C35.7228 52.8483 35.6784 53.0187 35.5898 53.154ZM35.0018 56.297C34.9411 56.2317 34.8571 56.199 34.7498 56.199C34.6378 56.199 34.5491 56.2317 34.4838 56.297C34.4184 56.3577 34.3858 56.444 34.3858 56.556C34.3858 56.6633 34.4184 56.7497 34.4838 56.815C34.5538 56.885 34.6424 56.92 34.7498 56.92C34.8571 56.92 34.9411 56.885 35.0018 56.815C35.0671 56.7497 35.0998 56.6633 35.0998 56.556C35.0998 56.444 35.0671 56.3577 35.0018 56.297Z" fill="url(#paint2_linear_1177_7349)"/>
<path fill-rule="evenodd" clip-rule="evenodd" d="M84.6064 18.6534L7.54577 29.9065C4.54008 30.3454 2.45833 33.138 2.89606 36.1438L9.02027 78.1987C9.45799 81.2045 12.2494 83.2855 15.2551 82.8465L92.3157 71.5935C95.3214 71.1546 97.4031 68.362 96.9654 65.3562L90.8412 23.3013C90.4035 20.2955 87.612 18.2145 84.6064 18.6534ZM7.47371 29.4117C4.19478 29.8905 1.92379 32.937 2.40131 36.2161L8.52551 78.2709C9.00303 81.5501 12.0482 83.8201 15.3272 83.3413L92.3878 72.0883C95.6667 71.6095 97.9377 68.563 97.4602 65.2839L91.336 23.2291C90.8584 19.9499 87.8132 17.6799 84.5343 18.1587L7.47371 29.4117Z" fill="url(#paint3_linear_1177_7349)" fill-opacity="0.12"/>
<defs>
<linearGradient id="paint0_linear_1177_7349" x1="56.2724" y1="23.3725" x2="43.6946" y2="76.3971" gradientUnits="userSpaceOnUse">
<stop stop-opacity="0.4"/>
<stop offset="1" stop-opacity="0"/>
</linearGradient>
<linearGradient id="paint1_linear_1177_7349" x1="46.004" y1="23.7852" x2="53.8788" y2="77.7117" gradientUnits="userSpaceOnUse">
<stop stop-color="#EC5A5A" stop-opacity="0"/>
<stop offset="1" stop-color="#1F2023"/>
</linearGradient>
<linearGradient id="paint2_linear_1177_7349" x1="27.1607" y1="52.1111" x2="45.0297" y2="57.7956" gradientUnits="userSpaceOnUse">
<stop stop-color="#4E94FF"/>
<stop offset="1" stop-color="#4E94FF" stop-opacity="0"/>
</linearGradient>
<linearGradient id="paint3_linear_1177_7349" x1="46.004" y1="23.7852" x2="53.8788" y2="77.7117" gradientUnits="userSpaceOnUse">
<stop stop-color="white"/>
<stop offset="1" stop-color="white" stop-opacity="0"/>
</linearGradient>
</defs>
</svg>
