<svg width="100" height="100" viewBox="0 0 100 100" fill="none" xmlns="http://www.w3.org/2000/svg">
<path d="M11.1637 18.8389C11.9265 15.6141 15.1586 13.62 18.3828 14.3848L94.162 32.3602C97.3862 33.125 99.3816 36.3592 98.6188 39.5839L88.8363 80.9386C88.0735 84.1633 84.8414 86.1575 81.6171 85.3926L5.838 67.4173C2.61376 66.6525 0.618372 63.4183 1.38118 60.1936L11.1637 18.8389Z" fill="url(#paint0_linear_1177_7094)"/>
<path d="M2.40128 36.2161C1.92376 32.937 4.19475 29.8905 7.47368 29.4117L84.5343 18.1587C87.8132 17.6799 90.8584 19.9499 91.3359 23.2291L97.4601 65.2839C97.9377 68.563 95.6667 71.6095 92.3877 72.0883L15.3271 83.3413C12.0482 83.8201 9.003 81.5501 8.52548 78.2709L2.40128 36.2161Z" fill="url(#paint1_linear_1177_7094)" fill-opacity="0.1"/>
<path fill-rule="evenodd" clip-rule="evenodd" d="M84.6063 18.6534L7.54574 29.9065C4.54005 30.3454 2.4583 33.138 2.89603 36.1438L9.02024 78.1987C9.45796 81.2045 12.2494 83.2855 15.2551 82.8465L92.3157 71.5935C95.3214 71.1546 97.4031 68.362 96.9654 65.3562L90.8412 23.3013C90.4034 20.2955 87.612 18.2145 84.6063 18.6534ZM7.47368 29.4117C4.19475 29.8905 1.92376 32.937 2.40128 36.2161L8.52548 78.2709C9.003 81.5501 12.0482 83.8201 15.3271 83.3413L92.3877 72.0883C95.6667 71.6095 97.9377 68.563 97.4601 65.2839L91.3359 23.2291C90.8584 19.9499 87.8132 17.6799 84.5343 18.1587L7.47368 29.4117Z" fill="url(#paint2_linear_1177_7094)" fill-opacity="0.12"/>
<path d="M51.0361 64.3374C50.0124 64.3374 49.2079 65.1514 49.2079 66.1872C49.2079 67.186 50.0124 68 51.0361 68C52.0599 68 52.8644 67.186 52.8644 66.1872C52.8644 65.151 52.0233 64.3374 51.0361 64.3374ZM39.7005 46.5047C38.5304 47.2076 37.3968 48.0215 36.3365 48.9463C35.861 49.3533 35.8244 50.0932 36.2266 50.5743C36.6289 51.0553 37.3602 51.0924 37.8357 50.6854C38.9326 49.7232 40.1028 48.9096 41.3462 48.2063L39.7005 46.5047ZM65.5162 48.9463C61.4574 45.3948 56.3017 43.4338 50.9263 43.4338C48.6226 43.4338 46.3189 43.8038 44.1616 44.5067L45.9898 46.3936C47.5988 45.9866 49.2807 45.7647 50.9629 45.7647C55.7896 45.7647 60.4337 47.5034 64.0536 50.6854C64.2732 50.8702 64.529 50.9813 64.7849 50.9813C65.1139 50.9813 65.4064 50.8331 65.6626 50.5743C66.0283 50.0932 65.9916 49.3533 65.5162 48.9463ZM44.6004 51.5364C43.1012 52.2023 41.6752 53.0903 40.4318 54.2372C39.9567 54.6442 39.9201 55.3842 40.3586 55.8652C40.7975 56.3459 41.4922 56.3833 41.9676 55.9393C43.2476 54.7924 44.7468 53.9043 46.3189 53.3125L44.6004 51.5364ZM50.7437 50.2784C50.4146 50.2784 50.0856 50.2784 49.7565 50.3154L52.0236 52.6463C54.8028 52.9055 57.4356 54.0895 59.5563 55.976C59.7756 56.1611 60.0318 56.2719 60.3242 56.2719C60.6533 56.2719 60.9457 56.1237 61.1653 55.9019C61.6042 55.4212 61.531 54.6813 61.0921 54.2739C58.2397 51.6842 54.5466 50.2784 50.7437 50.2784ZM52.6085 59.8237L50.1222 57.271C48.1841 57.4192 46.3192 58.1961 44.8566 59.5649C44.3812 60.0089 44.3449 60.7118 44.7834 61.1929C45.2223 61.6736 45.917 61.7106 46.3924 61.2669C47.5988 60.1571 49.135 59.5653 50.7437 59.5653C51.4018 59.5645 52.0233 59.6386 52.6085 59.8237ZM40.6311 43.2083C40.3387 42.9124 39.9511 42.9494 39.6949 43.2083C39.4391 43.4675 39.4081 43.8953 39.7005 44.1545L58.1299 63.1534C58.2763 63.3016 58.459 63.3756 58.605 63.3756C58.788 63.3756 58.9341 63.3016 59.0805 63.1905C59.3363 62.9316 59.3729 62.4876 59.0805 62.2287L40.6311 43.2083Z" fill="white" fill-opacity="0.06"/>
<path d="M40.7148 43.2065C40.4494 42.929 39.8645 42.941 39.632 43.1837C39.3999 43.4267 39.3667 43.89 39.6321 44.1331L57.8689 63.2917C58.0018 63.4306 58.1675 63.5 58.3 63.5C58.4661 63.5 58.5986 63.4306 58.7315 63.3264C58.9636 63.0837 58.9968 62.6673 58.7315 62.4246L40.7148 43.2065Z" fill="url(#paint3_linear_1177_7094)"/>
<defs>
<linearGradient id="paint0_linear_1177_7094" x1="56.2724" y1="23.3725" x2="43.6946" y2="76.3971" gradientUnits="userSpaceOnUse">
<stop stop-opacity="0.4"/>
<stop offset="1" stop-opacity="0"/>
</linearGradient>
<linearGradient id="paint1_linear_1177_7094" x1="46.004" y1="23.7852" x2="53.8788" y2="77.7117" gradientUnits="userSpaceOnUse">
<stop stop-color="#EC5A5A" stop-opacity="0"/>
<stop offset="1" stop-color="#1F2023"/>
</linearGradient>
<linearGradient id="paint2_linear_1177_7094" x1="46.004" y1="23.7852" x2="53.8788" y2="77.7117" gradientUnits="userSpaceOnUse">
<stop stop-color="white"/>
<stop offset="1" stop-color="white" stop-opacity="0"/>
</linearGradient>
<linearGradient id="paint3_linear_1177_7094" x1="49.2749" y1="42.9939" x2="49.2749" y2="63.5" gradientUnits="userSpaceOnUse">
<stop stop-color="#F06464"/>
<stop offset="1" stop-color="#F06464" stop-opacity="0"/>
</linearGradient>
</defs>
</svg>
