<svg width="100" height="100" viewBox="0 0 100 100" fill="none" xmlns="http://www.w3.org/2000/svg">
<path d="M11.1637 18.8389C11.9265 15.6141 15.1586 13.62 18.3829 14.3848L94.162 32.3602C97.3862 33.125 99.3816 36.3592 98.6188 39.5839L88.8364 80.9386C88.0735 84.1633 84.8414 86.1574 81.6172 85.3926L5.83802 67.4173C2.61378 66.6524 0.618388 63.4183 1.3812 60.1936L11.1637 18.8389Z" fill="url(#paint0_linear_1177_7226)"/>
<path d="M2.40128 36.2161C1.92376 32.937 4.19475 29.8905 7.47368 29.4117L84.5343 18.1587C87.8132 17.6799 90.8584 19.9499 91.3359 23.2291L97.4601 65.2839C97.9377 68.563 95.6667 71.6095 92.3877 72.0883L15.3271 83.3413C12.0482 83.8201 9.003 81.5501 8.52548 78.2709L2.40128 36.2161Z" fill="url(#paint1_linear_1177_7226)" fill-opacity="0.1"/>
<path fill-rule="evenodd" clip-rule="evenodd" d="M84.6063 18.6534L7.54574 29.9065C4.54005 30.3454 2.4583 33.138 2.89603 36.1438L9.02024 78.1987C9.45796 81.2045 12.2494 83.2855 15.2551 82.8465L92.3157 71.5935C95.3214 71.1546 97.4031 68.362 96.9654 65.3562L90.8412 23.3013C90.4034 20.2955 87.612 18.2145 84.6063 18.6534ZM7.47368 29.4117C4.19475 29.8905 1.92376 32.937 2.40128 36.2161L8.52548 78.2709C9.003 81.5501 12.0482 83.8201 15.3271 83.3413L92.3877 72.0883C95.6667 71.6095 97.9377 68.563 97.4601 65.2839L91.3359 23.2291C90.8584 19.9499 87.8132 17.6799 84.5343 18.1587L7.47368 29.4117Z" fill="url(#paint2_linear_1177_7226)" fill-opacity="0.12"/>
<path fill-rule="evenodd" clip-rule="evenodd" d="M70.3807 45.7174C71.4072 45.7174 72.2394 44.8852 72.2394 43.8587C72.2394 42.8322 71.4072 42 70.3807 42C69.6639 42 69.0419 42.4057 68.7318 43H33.5C32.9477 43 32.5 43.4477 32.5 44C32.5 44.5523 32.9477 45 33.5 45H68.9135C69.2536 45.4366 69.7844 45.7174 70.3807 45.7174Z" fill="white" fill-opacity="0.06"/>
<path fill-rule="evenodd" clip-rule="evenodd" d="M48.9796 52.6468H61.3098C61.823 52.6468 62.2391 53.0628 62.2391 53.5761C62.2391 54.0894 61.823 54.5055 61.3098 54.5055H48.9796C48.6582 55.061 48.0575 55.4348 47.3696 55.4348C46.6816 55.4348 46.0809 55.061 45.7595 54.5055H33.4293C32.9161 54.5055 32.5 54.0894 32.5 53.5761C32.5 53.0628 32.9161 52.6468 33.4293 52.6468H45.7595C46.0809 52.0912 46.6816 51.7174 47.3696 51.7174C48.0575 51.7174 48.6582 52.0912 48.9796 52.6468Z" fill="white" fill-opacity="0.06"/>
<path fill-rule="evenodd" clip-rule="evenodd" d="M36.04 62.5H71.25C71.6642 62.5 72 62.8358 72 63.25C72 63.6642 71.6642 64 71.25 64H36.0784C35.8003 64.6761 35.1351 65.1522 34.3587 65.1522C33.3322 65.1522 32.5 64.32 32.5 63.2935C32.5 63.2846 32.5001 63.2758 32.5002 63.2669C32.5001 63.2613 32.5 63.2556 32.5 63.25C32.5 63.2246 32.5013 63.1994 32.5037 63.1746C32.565 62.2035 33.3721 61.4348 34.3587 61.4348C35.1014 61.4348 35.7423 61.8704 36.04 62.5Z" fill="white" fill-opacity="0.06"/>
<path fill-rule="evenodd" clip-rule="evenodd" d="M76.8308 54.4905C76.8308 54.9391 77.0606 55.3409 77.4103 55.5933C77.8399 55.911 78.0198 56.4437 77.8 56.911C77.6002 57.3129 77.3703 57.6961 77.0906 58.0419C76.7808 58.4344 76.2213 58.612 75.7517 58.4064C75.3221 58.2194 74.8025 58.2288 74.3629 58.4624C73.9432 58.6867 73.6834 59.0699 73.6235 59.4811C73.5436 59.9858 73.1439 60.397 72.6044 60.4531C72.3745 60.4811 72.1348 60.4905 71.895 60.4905C71.6552 60.4905 71.4154 60.4811 71.1856 60.4531C70.646 60.397 70.2463 59.9858 70.1664 59.4811C70.1065 59.0699 69.8467 58.6867 69.427 58.4624C68.9774 58.2288 68.4678 58.2194 68.0382 58.4064C67.5686 58.6026 67.0091 58.4344 66.6993 58.0419C66.4196 57.6961 66.1798 57.3129 65.9899 56.911C65.7701 56.4437 65.95 55.911 66.3796 55.5933C66.7293 55.3409 66.9591 54.9391 66.9591 54.4905C66.9591 54.0419 66.7293 53.64 66.3796 53.3877C65.94 53.0699 65.7701 52.5372 65.9899 52.0699C66.1898 51.668 66.4196 51.2849 66.6993 50.9391C67.0091 50.5466 67.5686 50.3783 68.0382 50.5746C68.4678 50.7615 68.9874 50.7522 69.427 50.5185C69.8467 50.2942 70.1065 49.911 70.1664 49.4998C70.2463 48.9952 70.646 48.5839 71.1856 48.5279C71.4154 48.4998 71.6552 48.4905 71.895 48.4905C72.1348 48.4905 72.3745 48.4998 72.6044 48.5279C73.1439 48.5839 73.5436 48.9952 73.6235 49.4998C73.6834 49.911 73.9432 50.2942 74.3629 50.5185C74.8125 50.7522 75.3221 50.7615 75.7517 50.5746C76.2213 50.3783 76.7808 50.5466 77.0906 50.9391C77.3703 51.2849 77.6101 51.668 77.8 52.0699C78.0198 52.5372 77.8399 53.0699 77.4103 53.3877C77.0606 53.64 76.8308 54.0419 76.8308 54.4905ZM70.4181 55.0627C70.3377 54.8813 70.2964 54.6868 70.2964 54.4904C70.2964 54.0939 70.4648 53.7135 70.7646 53.4331C71.0644 53.1527 71.4711 52.9951 71.895 52.9951C72.319 52.9951 72.7257 53.1527 73.0255 53.4331C73.3253 53.7135 73.4937 54.0939 73.4937 54.4904C73.4937 54.6868 73.4523 54.8813 73.372 55.0627C73.2917 55.2441 73.1739 55.4089 73.0255 55.5478C72.877 55.6867 72.7008 55.7968 72.5068 55.8719C72.3129 55.9471 72.105 55.9858 71.895 55.9858C71.6851 55.9858 71.4772 55.9471 71.2833 55.8719C71.0893 55.7968 70.9131 55.6867 70.7646 55.5478C70.6162 55.4089 70.4984 55.2441 70.4181 55.0627Z" fill="url(#paint3_linear_1177_7226)"/>
<defs>
<linearGradient id="paint0_linear_1177_7226" x1="56.2724" y1="23.3725" x2="43.6946" y2="76.3971" gradientUnits="userSpaceOnUse">
<stop stop-opacity="0.4"/>
<stop offset="1" stop-opacity="0"/>
</linearGradient>
<linearGradient id="paint1_linear_1177_7226" x1="46.004" y1="23.7852" x2="53.8788" y2="77.7117" gradientUnits="userSpaceOnUse">
<stop stop-color="#EC5A5A" stop-opacity="0"/>
<stop offset="1" stop-color="#1F2023"/>
</linearGradient>
<linearGradient id="paint2_linear_1177_7226" x1="46.004" y1="23.7852" x2="53.8788" y2="77.7117" gradientUnits="userSpaceOnUse">
<stop stop-color="white"/>
<stop offset="1" stop-color="white" stop-opacity="0"/>
</linearGradient>
<linearGradient id="paint3_linear_1177_7226" x1="66" y1="52.25" x2="77.2704" y2="58.2796" gradientUnits="userSpaceOnUse">
<stop stop-color="#20C292"/>
<stop offset="1" stop-color="#1FD59E" stop-opacity="0"/>
</linearGradient>
</defs>
</svg>
