<svg width="100" height="64" viewBox="0 0 100 64" fill="none" xmlns="http://www.w3.org/2000/svg">
<path opacity="0.33" d="M75.0764 26.5018L75.1604 26.5025C82.9721 26.6486 89.2872 33.0528 89.415 40.9983C89.415 40.9989 89.4151 40.9995 89.4151 41L89.417 41.2442C89.417 41.2449 89.417 41.2455 89.417 41.2462C89.4159 49.395 82.9051 55.9884 74.8876 55.9884L54.9828 55.9881L44.1522 55.9881L26.0294 55.9884C18.0117 55.9884 11.5 49.3957 11.5 41.2442C11.5 33.5927 17.2406 27.3108 24.5778 26.5726L25.0486 26.5253L25.0272 26.0525C25.0198 25.8891 25.0162 25.7242 25.0162 25.5581C25.0162 19.4831 29.874 14.5698 35.8523 14.5698C37.7497 14.5698 39.5321 15.0639 41.0825 15.932L41.4949 16.1629L41.7486 15.7642C44.911 10.7944 50.4619 7.5 56.7806 7.5C66.6174 7.5 74.5928 15.4853 74.5928 25.3372C74.5928 25.5538 74.589 25.7694 74.5813 25.984L74.8853 25.9948L74.8829 26.5L74.8876 26.5L75.0764 26.5018Z" stroke="url(#paint0_linear_881_105950)" stroke-opacity="0.4"/>
<path fill-rule="evenodd" clip-rule="evenodd" d="M78.9859 8.33813C78.8699 7.78005 79.2318 7.23294 79.7943 7.11612C88.9524 5.21399 97.9094 10.9936 99.7899 20.0408C99.9059 20.5989 99.544 21.146 98.9816 21.2628C98.4191 21.3796 97.8691 21.0219 97.7531 20.4638C96.107 12.5443 88.2592 7.46621 80.2144 9.1371C79.6519 9.25392 79.1019 8.89621 78.9859 8.33813Z" fill="url(#paint1_linear_881_105950)"/>
<path fill-rule="evenodd" clip-rule="evenodd" d="M79.1684 14.8084C79.0525 14.2506 79.4086 13.7049 79.9639 13.5895C86.0513 12.3252 92.0212 16.2276 93.2878 22.3213C93.4038 22.8792 93.0476 23.4249 92.4924 23.5402C91.9371 23.6555 91.393 23.2968 91.2771 22.739C90.2447 17.7724 85.3721 14.5735 80.3838 15.6096C79.8285 15.7249 79.2844 15.3662 79.1684 14.8084Z" fill="url(#paint2_linear_881_105950)"/>
<mask id="path-4-inside-1_881_105950" fill="white">
<path fill-rule="evenodd" clip-rule="evenodd" d="M50.9793 62.9673C50.8223 63.1255 50.5665 63.1255 50.4096 62.9673L37.6171 50.0655C37.366 49.8123 37.5454 49.3821 37.902 49.3821H43.4623C44.0146 49.3821 44.4623 48.9344 44.4623 48.3821V37.1124C44.4623 36.5601 44.91 36.1124 45.4623 36.1124H56.1285C56.6808 36.1124 57.1285 36.5601 57.1285 37.1124V48.3821C57.1285 48.9344 57.5762 49.3821 58.1285 49.3821H63.487C63.8435 49.3821 64.0228 49.8123 63.7718 50.0655L50.9793 62.9673Z"/>
</mask>
<path fill-rule="evenodd" clip-rule="evenodd" d="M50.9793 62.9673C50.8223 63.1255 50.5665 63.1255 50.4096 62.9673L37.6171 50.0655C37.366 49.8123 37.5454 49.3821 37.902 49.3821H43.4623C44.0146 49.3821 44.4623 48.9344 44.4623 48.3821V37.1124C44.4623 36.5601 44.91 36.1124 45.4623 36.1124H56.1285C56.6808 36.1124 57.1285 36.5601 57.1285 37.1124V48.3821C57.1285 48.9344 57.5762 49.3821 58.1285 49.3821H63.487C63.8435 49.3821 64.0228 49.8123 63.7718 50.0655L50.9793 62.9673Z" fill="url(#paint3_linear_881_105950)" fill-opacity="0.2"/>
<path d="M50.4096 62.9673L50.0546 63.3193L50.0546 63.3193L50.4096 62.9673ZM50.9793 62.9673L51.3344 63.3193L51.3342 63.3195L50.9793 62.9673ZM37.6171 50.0655L37.9721 49.7134L37.9722 49.7135L37.6171 50.0655ZM63.7718 50.0655L64.127 50.4175L64.1269 50.4176L63.7718 50.0655ZM50.7647 62.6152C50.7258 62.5761 50.6629 62.5763 50.6245 62.6151L51.3342 63.3195C50.9818 63.6747 50.4071 63.6749 50.0546 63.3193L50.7647 62.6152ZM37.9722 49.7135L50.7647 62.6153L50.0546 63.3193L37.2621 50.4176L37.9722 49.7135ZM37.902 49.8821C37.9169 49.8821 37.9391 49.8765 37.9592 49.8624C37.9771 49.8498 37.9876 49.8347 37.9932 49.8212C37.9988 49.8078 38.0021 49.7897 37.9985 49.7681C37.9943 49.7437 37.9827 49.7241 37.9721 49.7134L37.2621 50.4176C36.6977 49.8486 37.1014 48.8821 37.902 48.8821V49.8821ZM43.4623 49.8821H37.902V48.8821H43.4623V49.8821ZM43.9623 48.3821V37.1124H44.9623V48.3821H43.9623ZM45.4623 35.6124H56.1285V36.6124H45.4623V35.6124ZM57.6285 37.1124V48.3821H56.6285V37.1124H57.6285ZM63.487 49.8821H58.1285V48.8821H63.487V49.8821ZM63.4167 49.7135C63.4062 49.7242 63.3946 49.7438 63.3904 49.7681C63.3868 49.7897 63.3901 49.8077 63.3957 49.8212C63.4013 49.8346 63.4118 49.8497 63.4297 49.8623C63.4499 49.8765 63.472 49.8821 63.487 49.8821V48.8821C64.288 48.8821 64.6907 49.8487 64.127 50.4175L63.4167 49.7135ZM50.6243 62.6153L63.4168 49.7135L64.1269 50.4176L51.3344 63.3193L50.6243 62.6153ZM57.6285 48.3821C57.6285 48.6582 57.8524 48.8821 58.1285 48.8821V49.8821C57.3001 49.8821 56.6285 49.2105 56.6285 48.3821H57.6285ZM56.1285 35.6124C56.9569 35.6124 57.6285 36.284 57.6285 37.1124H56.6285C56.6285 36.8362 56.4047 36.6124 56.1285 36.6124V35.6124ZM43.9623 37.1124C43.9623 36.284 44.6339 35.6124 45.4623 35.6124V36.6124C45.1862 36.6124 44.9623 36.8362 44.9623 37.1124H43.9623ZM43.4623 48.8821C43.7384 48.8821 43.9623 48.6582 43.9623 48.3821H44.9623C44.9623 49.2105 44.2907 49.8821 43.4623 49.8821V48.8821Z" fill="url(#paint4_linear_881_105950)" fill-opacity="0.2" mask="url(#path-4-inside-1_881_105950)"/>
<defs>
<linearGradient id="paint0_linear_881_105950" x1="50.4585" y1="7" x2="50.5706" y2="54.8406" gradientUnits="userSpaceOnUse">
<stop stop-color="white"/>
<stop offset="1" stop-color="white" stop-opacity="0.22"/>
</linearGradient>
<linearGradient id="paint1_linear_881_105950" x1="87.5815" y1="5.49874" x2="91.1917" y2="22.8807" gradientUnits="userSpaceOnUse">
<stop stop-color="#2CAC8A"/>
<stop offset="1" stop-color="#2CAC8A" stop-opacity="0"/>
</linearGradient>
<linearGradient id="paint2_linear_881_105950" x1="84.9775" y1="12.5482" x2="87.4769" y2="24.5819" gradientUnits="userSpaceOnUse">
<stop stop-color="#2CAC8A"/>
<stop offset="1" stop-color="#2CAC8A" stop-opacity="0"/>
</linearGradient>
<linearGradient id="paint3_linear_881_105950" x1="50.6944" y1="63.0859" x2="50.6944" y2="36.1124" gradientUnits="userSpaceOnUse">
<stop offset="0.479167" stop-color="white" stop-opacity="0.15"/>
<stop offset="1" stop-color="white"/>
</linearGradient>
<linearGradient id="paint4_linear_881_105950" x1="50.6944" y1="54.8611" x2="50.6944" y2="36.1124" gradientUnits="userSpaceOnUse">
<stop stop-color="white" stop-opacity="0"/>
<stop offset="1" stop-color="white"/>
</linearGradient>
</defs>
</svg>
