<svg width="189" height="170" viewBox="0 0 189 170" fill="none" xmlns="http://www.w3.org/2000/svg">
<g filter="url(#filter0_d_3421_118776)">
<path d="M93.4011 29.8236C71.7307 29.8236 53.3071 43.7275 46.5776 63.0995C46.5696 63.1223 46.5609 63.1446 46.5513 63.1664C46.5403 63.5912 46.2284 63.9614 45.7933 64.0312C32.0746 66.2322 22.2256 76.8462 22.2256 89.4926C22.2256 103.687 35.2314 115.371 51.5068 115.371H121.974C122.801 115.371 123.192 114.347 122.567 113.795L110.824 103.439C110.451 103.11 110.416 102.541 110.745 102.168C111.074 101.795 111.643 101.76 112.016 102.089L123.759 112.445C125.624 114.089 124.468 117.172 121.974 117.172H51.5068C34.444 117.172 20.4237 104.877 20.4237 89.4926C20.4237 76.0167 30.7656 64.8741 44.9305 62.3507C51.9491 42.3591 70.9989 28.0226 93.4011 28.0226C115.716 28.0226 134.312 42.0785 141.392 61.9384C155.714 64.8022 169.541 78.7131 168.63 98.7517C168.23 107.549 164.183 116.079 158.122 122.409C152.063 128.738 143.925 132.93 135.295 132.93H73.7503C72.9046 132.93 72.5126 134.034 73.2479 134.562L86.2679 143.905C86.6721 144.195 86.7646 144.757 86.4744 145.161C86.1842 145.565 85.6213 145.658 85.2171 145.368L72.197 136.025C70.0879 134.511 71.0944 131.129 73.7503 131.129H135.295C143.334 131.129 151.025 127.216 156.821 121.163C162.616 115.111 166.452 106.982 166.83 98.67C167.709 79.3341 154.211 66.0803 140.541 63.6097C140.159 63.5407 139.878 63.2411 139.814 62.8807C133.071 43.531 115.05 29.8236 93.4011 29.8236Z" fill="url(#paint0_linear_3421_118776)"/>
<path d="M111.899 75.0237H107.547C107.165 75.0237 106.847 75.3221 106.82 75.7109C106.656 78.7399 105.393 81.561 103.231 83.7219C100.922 86.0276 97.7784 87.3206 94.5071 87.3206C91.2177 87.3206 88.1191 86.0457 85.7837 83.7219C85.6565 83.5954 85.5384 83.4688 85.4112 83.3331L87.6829 81.561C88.1645 81.1902 88.0009 80.4307 87.4103 80.2861L78.4869 78.116C78.0326 78.0075 77.5873 78.3511 77.5873 78.8122L77.551 87.9806C77.551 88.5864 78.2416 88.93 78.7232 88.5503L80.8314 86.9047C84.1572 90.7022 89.0459 93.1073 94.5071 93.1073C104.266 93.1073 112.227 85.4128 112.626 75.7742C112.645 75.3673 112.317 75.0237 111.899 75.0237Z" fill="url(#paint1_linear_3421_118776)" fill-opacity="0.24"/>
<path d="M82.2671 74.3366C82.4306 71.3075 83.6937 68.4865 85.8564 66.3255C88.1645 64.0199 91.3085 62.7269 94.5798 62.7269C97.8693 62.7269 100.968 64.0018 103.303 66.3255C103.43 66.4521 103.549 66.5787 103.676 66.7143L101.404 68.4865C100.922 68.8572 101.086 69.6167 101.677 69.7614L110.6 71.9314C111.054 72.0399 111.5 71.6963 111.5 71.2352L111.545 62.0759C111.545 61.4701 110.854 61.1265 110.373 61.5062L108.265 63.1518C104.939 59.3543 100.05 56.9492 94.5889 56.9492C84.8296 56.9492 76.8695 64.6437 76.4696 74.2823C76.4515 74.6892 76.7786 75.0328 77.1966 75.0328H81.5492C81.9309 75.0237 82.2489 74.7254 82.2671 74.3366Z" fill="url(#paint2_linear_3421_118776)"/>
</g>
<defs>
<filter id="filter0_d_3421_118776" x="-5" y="-16" width="200" height="200" filterUnits="userSpaceOnUse" color-interpolation-filters="sRGB">
<feFlood flood-opacity="0" result="BackgroundImageFix"/>
<feColorMatrix in="SourceAlpha" type="matrix" values="0 0 0 0 0 0 0 0 0 0 0 0 0 0 0 0 0 0 127 0" result="hardAlpha"/>
<feOffset dy="4"/>
<feGaussianBlur stdDeviation="10"/>
<feComposite in2="hardAlpha" operator="out"/>
<feColorMatrix type="matrix" values="0 0 0 0 0 0 0 0 0 0 0 0 0 0 0 0 0 0 0.25 0"/>
<feBlend mode="normal" in2="BackgroundImageFix" result="effect1_dropShadow_3421_118776"/>
<feBlend mode="normal" in="SourceGraphic" in2="effect1_dropShadow_3421_118776" result="shape"/>
</filter>
<linearGradient id="paint0_linear_3421_118776" x1="94.548" y1="28.0226" x2="93.4003" y2="137.601" gradientUnits="userSpaceOnUse">
<stop stop-color="#484A54"/>
<stop offset="1" stop-color="#909194" stop-opacity="0"/>
<stop offset="1" stop-color="#2A2B2F"/>
</linearGradient>
<linearGradient id="paint1_linear_3421_118776" x1="77.3727" y1="83.1637" x2="112.627" y2="79.5479" gradientUnits="userSpaceOnUse">
<stop stop-color="white"/>
<stop offset="1" stop-color="white" stop-opacity="0"/>
</linearGradient>
<linearGradient id="paint2_linear_3421_118776" x1="76.4689" y1="75.0283" x2="115.138" y2="75.0283" gradientUnits="userSpaceOnUse">
<stop stop-color="#1FD59E" stop-opacity="0"/>
<stop offset="1" stop-color="#1FD59E"/>
</linearGradient>
</defs>
</svg>
