<svg width="130" height="32" viewBox="0 0 130 32" fill="none" xmlns="http://www.w3.org/2000/svg">
<rect width="130" height="32" rx="8" fill="#292A2F"/>
<path d="M19.9999 9.33398C16.3266 9.33398 13.3333 12.3273 13.3333 16.0007C13.3333 19.674 16.3266 22.6673 19.9999 22.6673C23.6733 22.6673 26.6666 19.674 26.6666 16.0007C26.6666 12.3273 23.6733 9.33398 19.9999 9.33398ZM19.4999 13.334C19.4999 13.0607 19.7266 12.834 19.9999 12.834C20.2733 12.834 20.4999 13.0607 20.4999 13.334V16.6673C20.4999 16.9407 20.2733 17.1673 19.9999 17.1673C19.7266 17.1673 19.4999 16.9407 19.4999 16.6673V13.334ZM20.6133 18.9207C20.5799 19.0073 20.5333 19.074 20.4733 19.1407C20.4066 19.2007 20.3333 19.2473 20.2533 19.2807C20.1733 19.314 20.0866 19.334 19.9999 19.334C19.9133 19.334 19.8266 19.314 19.7466 19.2807C19.6666 19.2473 19.5933 19.2007 19.5266 19.1407C19.4666 19.074 19.4199 19.0073 19.3866 18.9207C19.3533 18.8407 19.3333 18.754 19.3333 18.6673C19.3333 18.5807 19.3533 18.494 19.3866 18.414C19.4199 18.334 19.4666 18.2607 19.5266 18.194C19.5933 18.134 19.6666 18.0873 19.7466 18.054C19.9066 17.9873 20.0933 17.9873 20.2533 18.054C20.3333 18.0873 20.4066 18.134 20.4733 18.194C20.5333 18.2607 20.5799 18.334 20.6133 18.414C20.6466 18.494 20.6666 18.5807 20.6666 18.6673C20.6666 18.754 20.6466 18.8407 20.6133 18.9207Z" fill="#777884"/>
<path d="M110.735 10.3443V14.7402C111.228 13.9562 111.657 13.1209 112.02 12.2343C112.225 11.7209 112.402 11.2309 112.551 10.7642C112.7 10.2976 112.826 9.84492 112.928 9.40625L114.116 9.68625C114.023 10.0409 113.93 10.3816 113.836 10.7082C113.743 11.0256 113.646 11.3383 113.543 11.6463H117.832V12.7522H116.659C116.389 15.0482 115.872 16.9009 115.108 18.3103L114.856 18.7443C115.639 19.7243 116.687 20.6809 118 21.6143L117.26 22.5942C116.626 22.1182 116.053 21.6423 115.541 21.1663C115.038 20.6903 114.586 20.1956 114.186 19.6823C113.776 20.1956 113.296 20.6996 112.747 21.1943C112.197 21.6889 111.559 22.1836 110.833 22.6783L110.05 21.7402C110.805 21.2549 111.471 20.7603 112.048 20.2563C112.626 19.7429 113.11 19.2203 113.501 18.6883L113.459 18.6042C112.826 17.5216 112.36 16.3036 112.062 14.9503C111.988 15.0809 111.908 15.2116 111.825 15.3422C111.75 15.4636 111.671 15.5896 111.587 15.7203L110.735 15.1882V18.4643H109.673V11.4503H106.823V18.5203H105.761V10.3443H110.735ZM104.881 21.5583C105.505 21.1103 106.012 20.6809 106.404 20.2703C106.795 19.8596 107.07 19.4769 107.228 19.1223C107.563 18.4129 107.731 17.5916 107.731 16.6582V12.2343H108.779V16.6163C108.779 16.9429 108.765 17.2509 108.737 17.5402C108.709 17.8202 108.672 18.0956 108.625 18.3663C108.755 18.4969 108.9 18.6462 109.058 18.8142C109.217 18.9729 109.389 19.1503 109.575 19.3463C109.836 19.6169 110.064 19.8643 110.26 20.0883C110.455 20.3029 110.623 20.4989 110.763 20.6763L109.952 21.4323C109.822 21.2456 109.664 21.0356 109.477 20.8022C109.291 20.5782 109.077 20.3309 108.835 20.0603L108.29 19.4722C108.271 19.5189 108.252 19.5609 108.234 19.5983C108.215 19.6263 108.197 19.6636 108.178 19.7102C107.777 20.5316 106.934 21.4509 105.649 22.4683L104.881 21.5583ZM112.803 13.5223C113.035 15.1369 113.483 16.5229 114.144 17.6803L114.186 17.5963C114.512 16.9429 114.787 16.2149 115.01 15.4123C115.243 14.6096 115.42 13.7229 115.541 12.7522H113.138L112.803 13.5223Z" fill="#777884"/>
<path d="M91.342 21.5163C92.7858 20.9283 93.9501 20.2376 94.835 19.4443C95.7292 18.6416 96.3393 17.7363 96.6653 16.7283H91.4678V15.4823H96.9028C96.9028 15.4543 96.9028 15.4263 96.9028 15.3983C96.9121 15.3703 96.9168 15.3376 96.9168 15.3003C96.9354 14.8989 96.9494 14.5116 96.9587 14.1383C96.968 13.7556 96.9773 13.3776 96.9866 13.0043H93.9827C93.8057 13.3869 93.6241 13.7556 93.4378 14.1103C93.2515 14.4556 93.0606 14.7776 92.865 15.0763L91.7612 14.4043C92.2083 13.7323 92.5995 13.0183 92.9348 12.2622C93.2701 11.4969 93.5682 10.6802 93.829 9.81225L95.0026 10.1483C94.8536 10.7176 94.6766 11.2729 94.4717 11.8142H97.0146C97.0239 11.0022 97.0239 10.1996 97.0146 9.40625H98.3C98.3 9.79825 98.3 10.1949 98.3 10.5962C98.3093 10.9883 98.3093 11.3942 98.3 11.8142H102.841V13.0043H98.286C98.286 13.3963 98.2813 13.7883 98.272 14.1803C98.2627 14.5629 98.2534 14.9596 98.2441 15.3702V15.4823H103.497V16.7283H98.3558C98.7191 17.6616 99.2454 18.4596 99.9346 19.1223C100.382 19.5609 100.917 19.9716 101.541 20.3542C102.165 20.7276 102.892 21.0683 103.721 21.3763L103.036 22.6362C101.714 22.0576 100.601 21.3949 99.6971 20.6483C98.8029 19.9016 98.1044 19.0009 97.6014 17.9462C97.3871 18.3943 97.1217 18.8376 96.805 19.2762C96.5628 19.6122 96.2741 19.9389 95.9387 20.2563C95.6034 20.5736 95.2308 20.8769 94.821 21.1663C94.4112 21.4649 93.9734 21.7403 93.5077 21.9923C93.0419 22.2536 92.5576 22.4823 92.0546 22.6783L91.342 21.5163Z" fill="#777884"/>
<path d="M81.939 16.4623V17.4843H84.1605V18.4923H81.939V19.5983C82.3861 19.5516 82.7912 19.5096 83.1545 19.4723C83.5271 19.4256 83.8671 19.3789 84.1744 19.3323L84.2164 20.2563C84.7473 19.7896 85.2037 19.3276 85.5856 18.8703C85.5297 18.6556 85.4738 18.4269 85.4179 18.1843C85.362 17.9416 85.3108 17.6849 85.2642 17.4143C85.05 16.3316 84.8963 15.1509 84.8032 13.8723H77.1606V12.8503H80.4859V11.6603H77.9151V10.6803H80.4859V9.35028H81.6316V10.6803H84.1186V11.6603H81.6316V12.8503H84.7333C84.724 12.7383 84.7147 12.6263 84.7054 12.5143C84.7054 12.3929 84.7054 12.2716 84.7054 12.1503C84.6681 11.4223 84.6402 10.8156 84.6215 10.3303C84.6122 9.84495 84.6029 9.48095 84.5936 9.23828H85.7532C85.7532 9.70495 85.7952 10.7409 85.879 12.3463C85.879 12.4303 85.879 12.5143 85.879 12.5983C85.8883 12.6823 85.8976 12.7663 85.9069 12.8503H89.805V13.8723H85.9628C86.028 14.6003 86.1025 15.2816 86.1864 15.9163C86.2702 16.5416 86.3727 17.1203 86.4937 17.6523C87.0992 16.7283 87.6208 15.6316 88.0586 14.3623L89.2322 14.6563C88.5616 16.3269 87.8397 17.7223 87.0666 18.8423L86.871 19.1223C86.9455 19.3369 87.0154 19.5423 87.0806 19.7383C87.1551 19.9249 87.2296 20.1023 87.3041 20.2703C87.4438 20.5689 87.5649 20.7789 87.6674 20.9003C87.7791 21.0216 87.8956 21.0776 88.0167 21.0683C88.1191 21.0589 88.1983 20.9749 88.2542 20.8163C88.3194 20.6669 88.3939 20.4103 88.4777 20.0463C88.515 19.8876 88.5476 19.7103 88.5755 19.5143C88.6128 19.3183 88.6547 19.0989 88.7013 18.8563L89.7631 19.2763C89.7259 19.4909 89.6793 19.7196 89.6234 19.9623C89.5768 20.2049 89.5256 20.4383 89.4697 20.6623C89.358 21.0636 89.2555 21.3669 89.1623 21.5723C89.0692 21.7776 88.9667 21.9456 88.855 22.0763C88.6314 22.3283 88.352 22.4543 88.0167 22.4543C87.6627 22.4543 87.3507 22.3376 87.0806 22.1043C86.8198 21.8803 86.5636 21.5023 86.3121 20.9703C86.191 20.737 86.0839 20.4803 85.9908 20.2003C85.6927 20.5269 85.3714 20.8536 85.0267 21.1803C84.6821 21.5069 84.3142 21.8383 83.923 22.1743L83.0707 21.2083C83.2383 21.0776 83.4013 20.9423 83.5597 20.8023C83.7273 20.6716 83.8904 20.5409 84.0487 20.4103C83.4712 20.5036 82.768 20.5876 81.939 20.6623V22.4403H80.7933V20.7603H80.7374C80.0109 20.8069 79.3589 20.8443 78.7814 20.8723C78.2132 20.9003 77.7055 20.9143 77.2584 20.9143L77.1886 19.8223C78.0548 19.8409 79.2145 19.7989 80.6675 19.6963H80.7933V18.4923H78.0409V17.5123C78.3576 17.0083 78.6603 16.4996 78.949 15.9863H77.496V14.9783H79.5079C79.6103 14.7916 79.6988 14.6143 79.7734 14.4463C79.8572 14.2783 79.9364 14.1149 80.0109 13.9563L81.1426 14.2223L80.7653 14.9783H84.3142V15.9863H80.2484C80.118 16.2289 79.9829 16.4716 79.8432 16.7143C79.7128 16.9569 79.5684 17.2136 79.4101 17.4843H80.7933V16.4623H81.939ZM86.9967 9.71428C87.2762 9.91028 87.6441 10.2323 88.1005 10.6803C88.3334 10.8949 88.5336 11.0909 88.7013 11.2683C88.8783 11.4363 89.0273 11.5856 89.1484 11.7163L88.338 12.5143C88.1145 12.2343 87.7838 11.8749 87.346 11.4363C86.9269 11.0069 86.5683 10.6709 86.2702 10.4283L86.9967 9.71428Z" fill="#777884"/>
<path d="M75.2326 11.0312V21.6572H70.5381V11.0312H75.2326ZM65.1171 11.7872C65.1264 11.3392 65.1311 10.9146 65.1311 10.5132C65.1404 10.1026 65.145 9.7199 65.145 9.36523H66.3466L66.2907 11.7872H69.3226C69.3226 12.5246 69.3179 13.2712 69.3086 14.0272C69.2993 14.7832 69.2853 15.5206 69.2667 16.2392C69.2574 16.9486 69.2387 17.6252 69.2108 18.2692C69.1922 18.9039 69.1689 19.4732 69.1409 19.9772C69.1223 20.3692 69.0851 20.6912 69.0292 20.9432C68.9733 21.1952 68.8848 21.3959 68.7637 21.5452C68.6426 21.7039 68.4796 21.8206 68.2747 21.8952C68.0791 21.9792 67.8229 22.0399 67.5063 22.0772C67.2827 22.1052 67.0405 22.1239 66.7797 22.1332C66.5282 22.1519 66.3093 22.1566 66.1231 22.1472L65.8436 20.7752C66.2907 20.8219 66.7099 20.8359 67.1011 20.8172C67.278 20.8079 67.4224 20.7846 67.5342 20.7472C67.646 20.7192 67.7298 20.6539 67.7857 20.5512C67.8509 20.4486 67.8928 20.3039 67.9114 20.1172C67.9394 19.9306 67.9627 19.6739 67.9813 19.3472C68.0092 18.7872 68.0325 18.2506 68.0511 17.7372C68.0698 17.2239 68.0837 16.7152 68.0931 16.2112C68.1024 15.6979 68.107 15.1799 68.107 14.6572C68.1163 14.1346 68.121 13.5839 68.121 13.0052H66.2488C66.2022 14.1719 66.1324 15.2032 66.0392 16.0992C65.9554 16.9859 65.8483 17.7466 65.7179 18.3812C65.5782 19.0346 65.3593 19.7299 65.0612 20.4672C64.7631 21.2046 64.4185 21.8952 64.0273 22.5392L62.9375 21.9372C63.7572 20.5372 64.2974 19.2399 64.5582 18.0452C64.6886 17.4572 64.7957 16.7479 64.8796 15.9172C64.9634 15.0772 65.0286 14.1066 65.0752 13.0052H63.3008V11.7872H65.1171ZM71.7257 20.4532H74.073V12.2352H71.7257V20.4532Z" fill="#777884"/>
<path d="M58.1733 9.40625V13.0182H61.764V14.1943H52.4449C52.4355 14.6143 52.4262 15.0156 52.4169 15.3983C52.4076 15.7716 52.3936 16.1263 52.375 16.4623H58.7321V22.4683H57.5306V17.6383H52.2772C52.2493 17.9369 52.212 18.2169 52.1654 18.4783C52.1282 18.7303 52.0863 18.9636 52.0397 19.1783C51.9093 19.7476 51.6997 20.3403 51.411 20.9563C51.1222 21.5816 50.7403 22.1836 50.2653 22.7623L49.1895 21.9783C50.0557 20.8769 50.6146 19.7989 50.8661 18.7443C51.1269 17.7083 51.2573 16.1683 51.2573 14.1243V9.63025H52.4449V13.0182H56.9996V9.40625H58.1733Z" fill="#777884"/>
<path d="M47.2053 10.0508V22.2728H36V10.0508H47.2053ZM37.0898 21.2368H46.1155V11.0868H37.0898V21.2368ZM37.3972 14.3348C37.63 14.1481 37.8676 13.9334 38.1097 13.6908C38.3519 13.4481 38.5848 13.1961 38.8083 12.9348C39.0412 12.6734 39.2554 12.4074 39.451 12.1368C39.6559 11.8568 39.8376 11.5861 39.9959 11.3248L40.8622 11.8008C40.7783 11.9314 40.6945 12.0574 40.6107 12.1788C40.5362 12.3001 40.457 12.4214 40.3731 12.5428H44.8581V13.3828C44.5134 13.7188 44.1455 14.0408 43.7543 14.3488C43.3724 14.6568 42.9486 14.9508 42.4829 15.2308C42.9579 15.4454 43.4749 15.6368 44.0337 15.8048C44.5926 15.9728 45.226 16.1268 45.9339 16.2668L45.5567 17.2328C44.737 17.0461 43.9965 16.8314 43.3352 16.5888C42.6831 16.3368 42.0824 16.0568 41.5328 15.7488C41.2627 15.8888 40.9739 16.0288 40.6666 16.1688C40.3685 16.2994 40.0565 16.4301 39.7304 16.5608C40.0006 16.6074 40.3173 16.6681 40.6805 16.7428C41.0531 16.8174 41.4303 16.8968 41.8122 16.9808C42.2034 17.0648 42.5807 17.1534 42.9439 17.2468C43.3072 17.3308 43.6192 17.4101 43.88 17.4848L43.6286 18.3528C43.3491 18.2688 43.0324 18.1848 42.6785 18.1008C42.3338 18.0168 41.9752 17.9328 41.6027 17.8488C41.2394 17.7648 40.8761 17.6901 40.5129 17.6248C40.1589 17.5501 39.8376 17.4894 39.5488 17.4428L39.7304 16.5608C39.0971 16.8128 38.4124 17.0508 37.6766 17.2748L37.2575 16.3788C37.9281 16.2014 38.5382 16.0148 39.0877 15.8188C39.6373 15.6134 40.1496 15.4034 40.6246 15.1888C40.0937 14.8154 39.6187 14.4048 39.1995 13.9568C39.0132 14.1434 38.8269 14.3254 38.6407 14.5028C38.4544 14.6708 38.2588 14.8434 38.0538 15.0208L37.3972 14.3348ZM38.7385 18.3668C39.1297 18.4321 39.5535 18.5114 40.0099 18.6048C40.4756 18.6888 40.9553 18.7868 41.449 18.8988C41.9426 19.0014 42.4503 19.1134 42.9719 19.2348C43.4935 19.3561 44.0058 19.4821 44.5088 19.6128L44.2154 20.5088C43.7403 20.3874 43.2467 20.2661 42.7344 20.1448C42.2314 20.0234 41.7284 19.9114 41.2254 19.8088C40.7318 19.6968 40.2521 19.5988 39.7863 19.5148C39.3299 19.4214 38.9061 19.3468 38.5149 19.2908L38.7385 18.3668ZM39.8562 13.3828C40.3964 13.9054 40.96 14.3534 41.5468 14.7268C41.9194 14.5121 42.2593 14.2974 42.5667 14.0828C42.8741 13.8588 43.1628 13.6254 43.433 13.3828H39.8562Z" fill="#777884"/>
</svg>
