<svg width="126" height="90" viewBox="0 0 126 90" fill="none" xmlns="http://www.w3.org/2000/svg">
<path fill-rule="evenodd" clip-rule="evenodd" d="M2 36C2 17.2356 17.4328 2 36.5 2C54.6663 2 69.5352 15.8315 70.898 33.3659C64.2078 39.3115 60 47.9181 60 57.5C60 58.5946 60.0549 59.6764 60.1622 60.7431C53.9857 66.4819 45.6618 70 36.5 70C30.0196 70 23.9599 68.2401 18.7826 65.1802C18.5756 65.0579 18.3315 65.0143 18.0949 65.0573L4.12777 67.5967L9.9397 58.8143C10.1838 58.4453 10.1566 57.9598 9.8726 57.6206C4.95282 51.7427 2 44.2118 2 36ZM60.4931 63.1299C54.0771 68.6541 45.6829 72 36.5 72C29.7876 72 23.4951 70.212 18.0888 67.0912L2.17889 69.9839C1.78469 70.0555 1.38578 69.885 1.1652 69.5506C0.944618 69.2161 0.94496 68.7822 1.16607 68.4481L7.86474 58.3257C2.94152 52.191 0 44.4338 0 36C0 16.1044 16.355 0 36.5 0C55.2174 0 70.6613 13.9013 72.7578 31.8308C78.3489 27.5488 85.3745 25 93 25C111.21 25 126 39.536 126 57.5C126 64.8534 123.519 71.6374 119.34 77.0819L125.342 86.4609C125.554 86.7913 125.552 87.2148 125.339 87.544C125.126 87.8731 124.74 88.0471 124.352 87.9889L109.347 85.7383C104.527 88.4507 98.9453 90 93 90C76.7362 90 63.201 78.4057 60.4931 63.1299ZM62 57.5C62 40.6701 75.8643 27 93 27C110.136 27 124 40.6701 124 57.5C124 64.6364 121.51 71.1994 117.335 76.3966C117.066 76.7313 117.041 77.2003 117.272 77.5619L122.471 85.6844L109.302 83.7091C109.078 83.6755 108.85 83.7188 108.654 83.8317C104.061 86.4806 98.7126 88 93 88C75.8643 88 62 74.3299 62 57.5ZM80 59C78.8954 59 78 59.8954 78 61C78 62.1046 78.8954 63 80 63C81.1046 63 82 62.1046 82 61C82 59.8954 81.1046 59 80 59ZM76 61C76 58.7909 77.7909 57 80 57C82.2091 57 84 58.7909 84 61C84 63.2091 82.2091 65 80 65C77.7909 65 76 63.2091 76 61ZM24 26C23.4477 26 23 26.4477 23 27C23 27.5523 23.4477 28 24 28H50C50.5523 28 51 27.5523 51 27C51 26.4477 50.5523 26 50 26H24ZM23 36C23 35.4477 23.4477 35 24 35H50C50.5523 35 51 35.4477 51 36C51 36.5523 50.5523 37 50 37H24C23.4477 37 23 36.5523 23 36ZM24 44C23.4477 44 23 44.4477 23 45C23 45.5523 23.4477 46 24 46H33C33.5523 46 34 45.5523 34 45C34 44.4477 33.5523 44 33 44H24Z" fill="url(#paint0_linear_142_9182)"/>
<defs>
<linearGradient id="paint0_linear_142_9182" x1="63" y1="12.5" x2="51.4145" y2="87.5832" gradientUnits="userSpaceOnUse">
<stop stop-color="#AAB1BC"/>
<stop offset="1" stop-color="#D1D6DD" stop-opacity="0.17"/>
</linearGradient>
</defs>
</svg>
