<svg width="127" height="102" viewBox="0 0 127 102" fill="none" xmlns="http://www.w3.org/2000/svg">
<path fill-rule="evenodd" clip-rule="evenodd" d="M48 27C33.0883 27 21 39.0883 21 54C21 61.6091 24.1476 68.483 29.2117 73.3907C30.2888 66.8242 35.3635 61.6031 41.8545 60.3091C38.3481 58.2143 36 54.3814 36 50V49C36 42.3726 41.3726 37 48 37C54.6274 37 60 42.3726 60 49V50C60 54.3814 57.6519 58.2143 54.1455 60.3091C60.6365 61.6031 65.7112 66.8242 66.7883 73.3907C71.8524 68.483 75 61.6091 75 54C75 39.0883 62.9117 27 48 27ZM66.9998 75.9097C73.1259 70.5926 77 62.7487 77 54C77 37.9837 64.0163 25 48 25C31.9837 25 19 37.9837 19 54C19 62.7487 22.8741 70.5926 29.0002 75.9097C29.0001 75.9398 29 75.9699 29 76H29.1048C34.1801 80.3631 40.7821 83 48 83C55.2179 83 61.8199 80.3631 66.8952 76H67C67 75.9699 66.9999 75.9398 66.9998 75.9097ZM64.9652 75.0055C64.4551 67.7376 58.3976 62 51 62H48H45C37.6024 62 31.5449 67.7376 31.0348 75.0055C35.6709 78.7546 41.5732 81 48 81C54.4268 81 60.3291 78.7546 64.9652 75.0055ZM48 60C53.5229 60 58 55.5228 58 50V49C58 43.4772 53.5229 39 48 39C42.4772 39 38 43.4772 38 49V50C38 55.5228 42.4772 60 48 60Z" fill="url(#paint0_linear_146_9062)"/>
<path d="M93.6064 11.5356L87.9496 17.1925C87.1685 17.9735 85.9022 17.9735 85.1212 17.1925L82.9998 15.0712" stroke="url(#paint1_linear_146_9062)" stroke-width="2" stroke-linecap="round"/>
<path fill-rule="evenodd" clip-rule="evenodd" d="M45 4C45 2.89543 45.8954 2 47 2C48.1046 2 49 2.89543 49 4C49 5.10457 48.1046 6 47 6C45.8954 6 45 5.10457 45 4ZM47 0C44.7909 0 43 1.79086 43 4C43 5.86384 44.2748 7.42994 46 7.87398L46 25C46 25.5523 46.4477 26 47 26C47.5523 26 48 25.5523 48 25L48 7.87398C49.7252 7.42994 51 5.86384 51 4C51 1.79086 49.2091 0 47 0Z" fill="url(#paint2_linear_146_9062)"/>
<path fill-rule="evenodd" clip-rule="evenodd" d="M76.9998 14C76.9998 7.92487 81.9247 3 87.9998 3C94.075 3 98.9998 7.92487 98.9998 14C98.9998 20.0751 94.075 25 87.9998 25C81.9247 25 76.9998 20.0751 76.9998 14ZM87.9998 1C80.8201 1 74.9998 6.8203 74.9998 14C74.9998 17.2299 76.1778 20.1847 78.1275 22.4583L67.2929 33.2929C66.9024 33.6834 66.9024 34.3166 67.2929 34.7071C67.6834 35.0976 68.3166 35.0976 68.7071 34.7071L79.5417 23.8725C81.8152 25.8221 84.77 27 87.9998 27C88.3363 27 88.6698 26.9872 88.9998 26.9621V33.126C87.2746 33.5701 85.9998 35.1362 85.9998 37C85.9998 39.2091 87.7907 41 89.9998 41C92.209 41 93.9998 39.2091 93.9998 37C93.9998 35.1362 92.7251 33.5701 90.9998 33.126V26.6521C96.7332 25.2978 101 20.1472 101 14C101 6.8203 95.1796 1 87.9998 1ZM89.9998 35C88.8953 35 87.9998 35.8954 87.9998 37C87.9998 38.1046 88.8953 39 89.9998 39C91.1044 39 91.9998 38.1046 91.9998 37C91.9998 35.8954 91.1044 35 89.9998 35Z" fill="url(#paint3_linear_146_9062)"/>
<path fill-rule="evenodd" clip-rule="evenodd" d="M123 62C121.895 62 121 62.8954 121 64C121 65.1046 121.895 66 123 66C124.104 66 125 65.1046 125 64C125 62.8954 124.104 62 123 62ZM119 64C119 61.7909 120.791 60 123 60C125.209 60 127 61.7909 127 64C127 66.2091 125.209 68 123 68C122.525 68 122.07 67.9174 121.648 67.7658L117.707 71.7071C117.62 71.7935 117.522 71.8608 117.417 71.909C119.657 74.662 121 78.1742 121 82C121 90.8366 113.836 98 105 98C99.9228 98 95.398 95.6352 92.4669 91.9471L88.7068 95.7071C88.619 95.795 88.5188 95.8631 88.4119 95.9114C88.7849 96.5193 88.9999 97.2345 88.9999 98C88.9999 100.209 87.209 102 84.9999 102C82.7907 102 80.9999 100.209 80.9999 98C80.9999 95.7909 82.7907 94 84.9999 94C85.7653 94 86.4804 94.215 87.0883 94.5878C87.1366 94.4809 87.2047 94.3808 87.2926 94.2929L91.2926 90.2929L91.306 90.2797C89.8424 87.8642 88.9999 85.0305 88.9999 82C88.9999 81.3409 89.0397 80.6911 89.1171 80.0529L72.6706 70.5574C72.1923 70.2813 72.0284 69.6697 72.3046 69.1914C72.5807 68.7131 73.1923 68.5492 73.6706 68.8254L89.5114 77.9711C91.2976 71.0849 97.5549 66 105 66C109.326 66 113.25 67.7166 116.13 70.5057C116.173 70.4296 116.228 70.3579 116.293 70.2929L119.972 66.6137C119.366 65.9127 119 64.9991 119 64ZM84.9999 96C83.8953 96 82.9999 96.8954 82.9999 98C82.9999 99.1046 83.8953 100 84.9999 100C86.1044 100 86.9999 99.1046 86.9999 98C86.9999 96.8954 86.1044 96 84.9999 96ZM90.9999 82C90.9999 74.268 97.2679 68 105 68C112.732 68 119 74.268 119 82C119 89.732 112.732 96 105 96C97.2679 96 90.9999 89.732 90.9999 82ZM104.015 74.8828L109.036 84.4214L110.419 82H115.5V84H111.58L108.964 88.5786L103.984 79.1172L101.654 83.389L96.1958 84.4806L95.8036 82.5194L100.345 81.611L104.015 74.8828Z" fill="url(#paint4_linear_146_9062)"/>
<g filter="url(#filter0_ddd_146_9062)">
<circle cx="16" cy="86" r="3" fill="white"/>
</g>
<defs>
<filter id="filter0_ddd_146_9062" x="0" y="70" width="32" height="32" filterUnits="userSpaceOnUse" color-interpolation-filters="sRGB">
<feFlood flood-opacity="0" result="BackgroundImageFix"/>
<feColorMatrix in="SourceAlpha" type="matrix" values="0 0 0 0 0 0 0 0 0 0 0 0 0 0 0 0 0 0 127 0" result="hardAlpha"/>
<feOffset/>
<feGaussianBlur stdDeviation="6.5"/>
<feComposite in2="hardAlpha" operator="out"/>
<feColorMatrix type="matrix" values="0 0 0 0 1 0 0 0 0 1 0 0 0 0 1 0 0 0 0.81 0"/>
<feBlend mode="normal" in2="BackgroundImageFix" result="effect1_dropShadow_146_9062"/>
<feColorMatrix in="SourceAlpha" type="matrix" values="0 0 0 0 0 0 0 0 0 0 0 0 0 0 0 0 0 0 127 0" result="hardAlpha"/>
<feOffset/>
<feGaussianBlur stdDeviation="1"/>
<feComposite in2="hardAlpha" operator="out"/>
<feColorMatrix type="matrix" values="0 0 0 0 1 0 0 0 0 1 0 0 0 0 1 0 0 0 1 0"/>
<feBlend mode="normal" in2="effect1_dropShadow_146_9062" result="effect2_dropShadow_146_9062"/>
<feColorMatrix in="SourceAlpha" type="matrix" values="0 0 0 0 0 0 0 0 0 0 0 0 0 0 0 0 0 0 127 0" result="hardAlpha"/>
<feOffset/>
<feGaussianBlur stdDeviation="4"/>
<feComposite in2="hardAlpha" operator="out"/>
<feColorMatrix type="matrix" values="0 0 0 0 1 0 0 0 0 1 0 0 0 0 1 0 0 0 0.71 0"/>
<feBlend mode="normal" in2="effect2_dropShadow_146_9062" result="effect3_dropShadow_146_9062"/>
<feBlend mode="normal" in="SourceGraphic" in2="effect3_dropShadow_146_9062" result="shape"/>
</filter>
<linearGradient id="paint0_linear_146_9062" x1="24.5" y1="47.5" x2="27.226" y2="76.3106" gradientUnits="userSpaceOnUse">
<stop stop-color="#AAB1BC"/>
<stop offset="1" stop-color="#D1D6DD" stop-opacity="0.17"/>
</linearGradient>
<linearGradient id="paint1_linear_146_9062" x1="90.7082" y1="9.87512" x2="90.4811" y2="9.79236" gradientUnits="userSpaceOnUse">
<stop stop-color="#21D3A2"/>
<stop offset="1" stop-color="#7AF7FF"/>
</linearGradient>
<linearGradient id="paint2_linear_146_9062" x1="43" y1="0" x2="55.5" y2="19.5" gradientUnits="userSpaceOnUse">
<stop stop-color="#AAB1BC"/>
<stop offset="1" stop-color="#D1D6DD" stop-opacity="0.17"/>
</linearGradient>
<linearGradient id="paint3_linear_146_9062" x1="74.5" y1="6.5" x2="98.5" y2="26" gradientUnits="userSpaceOnUse">
<stop stop-color="#AAB1BC"/>
<stop offset="1" stop-color="#D1D6DD" stop-opacity="0.17"/>
</linearGradient>
<linearGradient id="paint4_linear_146_9062" x1="86" y1="61.5" x2="107.5" y2="94.5" gradientUnits="userSpaceOnUse">
<stop stop-color="#AAB1BC"/>
<stop offset="1" stop-color="#D1D6DD" stop-opacity="0.17"/>
</linearGradient>
</defs>
</svg>
