<svg width="58" height="19" viewBox="0 0 58 19" fill="none" xmlns="http://www.w3.org/2000/svg">
<path d="M9.41372 18.288C8.08572 18.288 6.85372 18.072 5.71772 17.64C4.59772 17.208 3.62172 16.6 2.78972 15.816C1.97372 15.032 1.33372 14.112 0.869719 13.056C0.421719 12 0.197719 10.848 0.197719 9.6C0.197719 8.352 0.421719 7.2 0.869719 6.144C1.33372 5.088 1.98172 4.168 2.81372 3.384C3.64572 2.6 4.62172 1.992 5.74172 1.56C6.86172 1.128 8.07772 0.912 9.38972 0.912C10.7177 0.912 11.9337 1.128 13.0377 1.56C14.1577 1.992 15.1257 2.6 15.9417 3.384C16.7737 4.168 17.4217 5.088 17.8857 6.144C18.3497 7.184 18.5817 8.336 18.5817 9.6C18.5817 10.848 18.3497 12.008 17.8857 13.08C17.4217 14.136 16.7737 15.056 15.9417 15.84C15.1257 16.608 14.1577 17.208 13.0377 17.64C11.9337 18.072 10.7257 18.288 9.41372 18.288ZM9.38972 14.976C10.1417 14.976 10.8297 14.848 11.4537 14.592C12.0937 14.336 12.6537 13.968 13.1337 13.488C13.6137 13.008 13.9817 12.44 14.2377 11.784C14.5097 11.128 14.6457 10.4 14.6457 9.6C14.6457 8.8 14.5097 8.072 14.2377 7.416C13.9817 6.76 13.6137 6.192 13.1337 5.712C12.6697 5.232 12.1177 4.864 11.4777 4.608C10.8377 4.352 10.1417 4.224 9.38972 4.224C8.63772 4.224 7.94172 4.352 7.30172 4.608C6.67772 4.864 6.12572 5.232 5.64572 5.712C5.16572 6.192 4.78972 6.76 4.51772 7.416C4.26172 8.072 4.13372 8.8 4.13372 9.6C4.13372 10.384 4.26172 11.112 4.51772 11.784C4.78972 12.44 5.15772 13.008 5.62172 13.488C6.10172 13.968 6.66172 14.336 7.30172 14.592C7.94172 14.848 8.63772 14.976 9.38972 14.976ZM21.5037 18V1.2H24.7197L31.8717 13.056H30.1677L37.1997 1.2H40.3917L40.4397 18H36.7917L36.7677 6.792H37.4397L31.8237 16.224H30.0717L24.3357 6.792H25.1517V18H21.5037ZM49.9456 18.288C48.6016 18.288 47.3136 18.112 46.0816 17.76C44.8496 17.392 43.8576 16.92 43.1056 16.344L44.4256 13.416C45.1456 13.928 45.9936 14.352 46.9696 14.688C47.9616 15.008 48.9616 15.168 49.9696 15.168C50.7376 15.168 51.3536 15.096 51.8176 14.952C52.2976 14.792 52.6496 14.576 52.8736 14.304C53.0976 14.032 53.2096 13.72 53.2096 13.368C53.2096 12.92 53.0336 12.568 52.6816 12.312C52.3296 12.04 51.8656 11.824 51.2896 11.664C50.7136 11.488 50.0736 11.328 49.3696 11.184C48.6816 11.024 47.9856 10.832 47.2816 10.608C46.5936 10.384 45.9616 10.096 45.3856 9.744C44.8096 9.392 44.3376 8.928 43.9696 8.352C43.6176 7.776 43.4416 7.04 43.4416 6.144C43.4416 5.184 43.6976 4.312 44.2096 3.528C44.7376 2.728 45.5216 2.096 46.5616 1.632C47.6176 1.152 48.9376 0.912 50.5216 0.912C51.5776 0.912 52.6176 1.04 53.6416 1.296C54.6656 1.536 55.5696 1.904 56.3536 2.4L55.1536 5.352C54.3696 4.904 53.5856 4.576 52.8016 4.368C52.0176 4.144 51.2496 4.032 50.4976 4.032C49.7456 4.032 49.1296 4.12 48.6496 4.296C48.1696 4.472 47.8256 4.704 47.6176 4.992C47.4096 5.264 47.3056 5.584 47.3056 5.952C47.3056 6.384 47.4816 6.736 47.8336 7.008C48.1856 7.264 48.6496 7.472 49.2256 7.632C49.8016 7.792 50.4336 7.952 51.1216 8.112C51.8256 8.272 52.5216 8.456 53.2096 8.664C53.9136 8.872 54.5536 9.152 55.1296 9.504C55.7056 9.856 56.1696 10.32 56.5216 10.896C56.8896 11.472 57.0736 12.2 57.0736 13.08C57.0736 14.024 56.8096 14.888 56.2816 15.672C55.7536 16.456 54.9616 17.088 53.9056 17.568C52.8656 18.048 51.5456 18.288 49.9456 18.288Z" fill="url(#paint0_linear_184_13899)"/>
<defs>
<linearGradient id="paint0_linear_184_13899" x1="-1" y1="9" x2="58" y2="9" gradientUnits="userSpaceOnUse">
<stop stop-color="#1FD59E"/>
<stop offset="1" stop-color="#4E94FF"/>
</linearGradient>
</defs>
</svg>
