<svg width="200" height="200" viewBox="0 0 200 200" fill="none" xmlns="http://www.w3.org/2000/svg">
<path d="M22.3273 37.6777C23.8529 31.2283 30.3172 27.24 36.7657 28.7696L188.324 64.7204C194.772 66.25 198.763 72.7183 197.238 79.1678L177.673 161.877C176.147 168.327 169.683 172.315 163.234 170.785L11.676 134.835C5.22754 133.305 1.23675 126.837 2.76237 120.387L22.3273 37.6777Z" fill="url(#paint0_linear_1177_7108)"/>
<path d="M4.80257 72.4322C3.84753 65.8739 8.38951 59.7811 14.9474 58.8234L169.069 36.3173C175.626 35.3597 181.717 39.8999 182.672 46.4581L194.92 130.568C195.875 137.126 191.333 143.219 184.775 144.177L30.6543 166.683C24.0964 167.64 18.006 163.1 17.051 156.542L4.80257 72.4322Z" fill="url(#paint1_linear_1177_7108)" fill-opacity="0.1"/>
<path fill-rule="evenodd" clip-rule="evenodd" d="M169.213 37.3069L15.0915 59.813C9.08011 60.6908 4.91662 66.2759 5.79207 72.2877L18.0405 156.397C18.9159 162.409 24.4988 166.571 30.5102 165.693L184.631 143.187C190.643 142.309 194.806 136.724 193.931 130.712L181.682 46.6026C180.807 40.5909 175.224 36.4291 169.213 37.3069ZM14.9474 58.8234C8.38951 59.7811 3.84753 65.8739 4.80257 72.4322L17.051 156.542C18.006 163.1 24.0964 167.64 30.6543 166.683L184.775 144.177C191.333 143.219 195.875 137.126 194.92 130.568L182.672 46.4581C181.717 39.8999 175.626 35.3597 169.069 36.3173L14.9474 58.8234Z" fill="url(#paint2_linear_1177_7108)" fill-opacity="0.12"/>
<path d="M90.1145 95L57 100.293L61.6182 129L94.7326 123.707L90.9306 118.423L96 113.197L88.8567 105.51L92.0251 97.6419L90.1145 95Z" fill="white" fill-opacity="0.06"/>
<path d="M107.84 95L108.491 98.1677L102.39 104.028L105.752 113.892L99 116.584L100.303 122.91L149.472 136L157 108.09L107.84 95Z" fill="white" fill-opacity="0.06"/>
<path d="M80 82.8876L82.682 80L89.0491 86.5166L86.3671 89.4042L80 82.8876ZM108.041 89.1846L114.249 82.501L117 85.3164L110.792 92L108.041 89.1846Z" fill="url(#paint3_linear_1177_7108)"/>
<path d="M96 77H101V84H96V77Z" fill="url(#paint4_linear_1177_7108)"/>
<defs>
<linearGradient id="paint0_linear_1177_7108" x1="112.545" y1="46.745" x2="87.3892" y2="152.794" gradientUnits="userSpaceOnUse">
<stop stop-opacity="0.4"/>
<stop offset="1" stop-opacity="0"/>
</linearGradient>
<linearGradient id="paint1_linear_1177_7108" x1="92.008" y1="47.5704" x2="107.758" y2="155.423" gradientUnits="userSpaceOnUse">
<stop stop-color="#EC5A5A" stop-opacity="0"/>
<stop offset="1" stop-color="#1F2023"/>
</linearGradient>
<linearGradient id="paint2_linear_1177_7108" x1="92.008" y1="47.5704" x2="107.758" y2="155.423" gradientUnits="userSpaceOnUse">
<stop stop-color="white"/>
<stop offset="1" stop-color="white" stop-opacity="0"/>
</linearGradient>
<linearGradient id="paint3_linear_1177_7108" x1="98.5" y1="80" x2="98.5" y2="92" gradientUnits="userSpaceOnUse">
<stop stop-color="#E6954A"/>
<stop offset="1" stop-color="#E3934A" stop-opacity="0"/>
</linearGradient>
<linearGradient id="paint4_linear_1177_7108" x1="98.5" y1="77" x2="98.5" y2="84" gradientUnits="userSpaceOnUse">
<stop stop-color="#E6954A"/>
<stop offset="1" stop-color="#E3934A" stop-opacity="0"/>
</linearGradient>
</defs>
</svg>
