<svg width="7" height="7" viewBox="0 0 7 7" fill="none" xmlns="http://www.w3.org/2000/svg">
<path d="M0.725587 5.66691C0.57819 5.8124 0.576645 6.04983 0.722135 6.19722C0.867625 6.34462 1.10506 6.34617 1.25245 6.20068L5.59 1.91924L5.56367 5.96357C5.56232 6.17067 5.72912 6.33966 5.93622 6.341C6.14332 6.34235 6.31231 6.17555 6.31365 5.96845L6.34587 1.01971C6.3459 1.0167 6.34589 1.01369 6.34584 1.01068C6.34514 0.963309 6.33565 0.918042 6.31891 0.876453C6.3009 0.831592 6.27386 0.789494 6.23777 0.752935C6.16649 0.68072 6.07314 0.643515 5.97912 0.641459C5.97698 0.641412 5.97485 0.641383 5.97271 0.641373L1.02368 0.609156C0.816579 0.607807 0.647596 0.774604 0.646248 0.981707C0.6449 1.18881 0.811697 1.35779 1.0188 1.35914L5.06313 1.38547L0.725587 5.66691Z" fill="white"/>
</svg>
