<svg width="24" height="24" viewBox="0 0 24 24" fill="none" xmlns="http://www.w3.org/2000/svg">
<g clip-path="url(#clip0_2833_16834)">
<path d="M18.5303 7.5303C18.8232 7.23741 18.8232 6.76253 18.5303 6.46964C18.2374 6.17675 17.7626 6.17675 17.4697 6.46964L12.4697 11.4696C12.1768 11.7625 12.1768 12.2374 12.4697 12.5303L17.4697 17.5303C17.7626 17.8232 18.2374 17.8232 18.5303 17.5303C18.8232 17.2374 18.8232 16.7625 18.5303 16.4696L14.0607 12L18.5303 7.5303Z" fill="white"/>
<path d="M11.5303 7.5303C11.8232 7.23741 11.8232 6.76253 11.5303 6.46964C11.2374 6.17675 10.7626 6.17675 10.4697 6.46964L5.46967 11.4696C5.17678 11.7625 5.17678 12.2374 5.46967 12.5303L10.4697 17.5303C10.7626 17.8232 11.2374 17.8232 11.5303 17.5303C11.8232 17.2374 11.8232 16.7625 11.5303 16.4696L7.06066 12L11.5303 7.5303Z" fill="white"/>
</g>
<defs>
<clipPath id="clip0_2833_16834">
<rect width="24" height="24" fill="white"/>
</clipPath>
</defs>
</svg>
