<svg width="24" height="24" viewBox="0 0 24 24" fill="none" xmlns="http://www.w3.org/2000/svg">
<g clip-path="url(#clip0_4087_696)">
<rect width="24" height="24" rx="4" fill="#292A2F"/>
<path d="M4 19C4 18.4477 4.44772 18 5 18H19C19.5523 18 20 18.4477 20 19C20 19.5523 19.5523 20 19 20H5C4.44772 20 4 19.5523 4 19Z" fill="#4E95FF"/>
<path d="M11 4C9.34315 4 8 5.34315 8 7C8 7.88825 8.38604 8.68635 8.99949 9.23565C9.52219 9.70369 9.99999 10.2984 9.99999 11C9.99999 12.1046 9.10456 13 7.99999 13H6.56154C5.64381 13 4.84384 13.6246 4.62126 14.5149L4.31062 15.7575C4.15284 16.3886 4.63019 17 5.28077 17H18.7192C19.3698 17 19.8471 16.3886 19.6894 15.7575L19.3787 14.5149C19.1561 13.6246 18.3562 13 17.4384 13H16C14.8954 13 14 12.1046 14 11C14 10.2984 14.4778 9.7037 15.0005 9.23567C15.614 8.68636 16 7.88827 16 7C16 5.34315 14.6569 4 13 4H11Z" fill="#1FD59E"/>
</g>
<defs>
<clipPath id="clip0_4087_696">
<rect width="24" height="24" rx="4" fill="white"/>
</clipPath>
</defs>
</svg>
