<svg width="632" height="48" viewBox="0 0 632 48" fill="none" xmlns="http://www.w3.org/2000/svg">
<path d="M0.350813 38L7.07081 4.4H20.6548C24.0788 4.4 27.0068 4.976 29.4388 6.128C31.8708 7.248 33.7268 8.848 35.0068 10.928C36.3188 13.008 36.9748 15.456 36.9748 18.272C36.9748 21.248 36.4628 23.952 35.4388 26.384C34.4468 28.816 33.0228 30.896 31.1668 32.624C29.3428 34.32 27.1508 35.648 24.5908 36.608C22.0308 37.536 19.1828 38 16.0468 38H0.350813ZM7.64681 32.72H16.2388C19.2468 32.72 21.8228 32.112 23.9668 30.896C26.1428 29.648 27.8068 27.968 28.9588 25.856C30.1108 23.744 30.6868 21.344 30.6868 18.656C30.6868 16.832 30.2868 15.248 29.4868 13.904C28.6868 12.56 27.4868 11.52 25.8868 10.784C24.3188 10.048 22.3508 9.68 19.9828 9.68H12.2548L7.64681 32.72ZM52.2951 38.336C49.7351 38.336 47.5111 37.872 45.6231 36.944C43.7351 35.984 42.2631 34.672 41.2071 33.008C40.1831 31.312 39.6711 29.328 39.6711 27.056C39.6711 24.144 40.3111 21.568 41.5911 19.328C42.8711 17.088 44.6151 15.328 46.8231 14.048C49.0631 12.736 51.6071 12.08 54.4551 12.08C56.8551 12.08 58.9351 12.528 60.6951 13.424C62.4551 14.32 63.8151 15.616 64.7751 17.312C65.7671 18.976 66.2631 20.976 66.2631 23.312C66.2631 23.92 66.2311 24.544 66.1671 25.184C66.1031 25.824 66.0071 26.416 65.8791 26.96H44.1351L44.8071 22.976H63.0471L60.5991 24.32C60.8551 22.688 60.7431 21.328 60.2631 20.24C59.7831 19.152 59.0151 18.32 57.9591 17.744C56.9031 17.168 55.6391 16.88 54.1671 16.88C52.4071 16.88 50.8711 17.296 49.5591 18.128C48.2791 18.928 47.2871 20.08 46.5831 21.584C45.8791 23.056 45.5271 24.784 45.5271 26.768C45.5271 28.848 46.1191 30.448 47.3031 31.568C48.5191 32.688 50.3911 33.248 52.9191 33.248C54.3591 33.248 55.7351 33.024 57.0471 32.576C58.3591 32.096 59.4471 31.44 60.3111 30.608L62.8071 34.784C61.4631 35.968 59.8631 36.864 58.0071 37.472C56.1831 38.048 54.2791 38.336 52.2951 38.336ZM80.6698 38.336C78.5898 38.336 76.6858 37.888 74.9578 36.992C73.2618 36.096 71.9018 34.816 70.8778 33.152C69.8858 31.456 69.3898 29.424 69.3898 27.056C69.3898 24.88 69.7418 22.88 70.4458 21.056C71.1818 19.232 72.2058 17.648 73.5178 16.304C74.8298 14.96 76.3498 13.92 78.0778 13.184C79.8378 12.448 81.7578 12.08 83.8378 12.08C85.9818 12.08 87.8218 12.464 89.3578 13.232C90.9258 14 92.1098 15.168 92.9098 16.736C93.7098 18.272 94.0778 20.192 94.0138 22.496C93.9498 25.664 93.3738 28.448 92.2858 30.848C91.1978 33.216 89.6778 35.056 87.7258 36.368C85.7738 37.68 83.4218 38.336 80.6698 38.336ZM82.2058 33.2C83.9338 33.2 85.4538 32.8 86.7658 32C88.0778 31.168 89.1178 30.032 89.8858 28.592C90.6538 27.152 91.0378 25.488 91.0378 23.6C91.0378 21.616 90.4458 20.048 89.2618 18.896C88.0778 17.744 86.4138 17.168 84.2698 17.168C82.5738 17.168 81.0538 17.584 79.7098 18.416C78.3978 19.216 77.3578 20.336 76.5898 21.776C75.8218 23.216 75.4378 24.88 75.4378 26.768C75.4378 28.752 76.0298 30.32 77.2138 31.472C78.3978 32.624 80.0618 33.2 82.2058 33.2ZM88.4938 38L89.6458 32.144L91.2778 25.328L92.0938 18.464L93.2938 12.368H99.2938L94.2058 38H88.4938ZM102.056 38L109.16 2.384H115.16L108.056 38H102.056ZM136.589 38L142.253 9.68H131.117L132.173 4.4H160.637L159.581 9.68H148.445L142.829 38H136.589ZM158.072 38L163.16 12.368H169.16L164.072 38H158.072ZM167.528 8.144C166.44 8.144 165.56 7.824 164.888 7.184C164.248 6.512 163.928 5.712 163.928 4.784C163.928 3.696 164.296 2.784 165.032 2.048C165.8 1.312 166.792 0.943999 168.008 0.943999C169.064 0.943999 169.928 1.264 170.6 1.904C171.272 2.512 171.608 3.264 171.608 4.16C171.608 5.344 171.24 6.304 170.504 7.04C169.768 7.776 168.776 8.144 167.528 8.144ZM184.763 38.336C182.235 38.336 180.011 37.872 178.091 36.944C176.203 35.984 174.747 34.672 173.723 33.008C172.699 31.312 172.187 29.328 172.187 27.056C172.187 24.176 172.843 21.616 174.155 19.376C175.467 17.104 177.275 15.328 179.579 14.048C181.883 12.736 184.539 12.08 187.547 12.08C190.139 12.08 192.363 12.592 194.219 13.616C196.107 14.608 197.563 16.096 198.587 18.08L193.451 20.72C192.875 19.504 192.043 18.608 190.955 18.032C189.899 17.456 188.603 17.168 187.067 17.168C185.403 17.168 183.899 17.584 182.555 18.416C181.211 19.216 180.155 20.336 179.387 21.776C178.619 23.216 178.235 24.88 178.235 26.768C178.235 28.752 178.827 30.32 180.011 31.472C181.195 32.624 182.875 33.2 185.051 33.2C186.459 33.2 187.771 32.912 188.987 32.336C190.203 31.76 191.227 30.864 192.059 29.648L196.475 32.624C195.291 34.416 193.659 35.824 191.579 36.848C189.499 37.84 187.227 38.336 184.763 38.336ZM205.843 32.096L207.139 24.704L222.547 12.368H230.707L216.307 23.984L213.091 26.336L205.843 32.096ZM199.603 38L206.707 2.384H212.707L205.603 38H199.603ZM219.187 38L212.035 26.432L216.163 21.824L226.147 38H219.187ZM241.436 38.336C238.876 38.336 236.652 37.872 234.764 36.944C232.876 35.984 231.404 34.672 230.348 33.008C229.324 31.312 228.812 29.328 228.812 27.056C228.812 24.144 229.452 21.568 230.732 19.328C232.012 17.088 233.756 15.328 235.964 14.048C238.204 12.736 240.748 12.08 243.596 12.08C245.996 12.08 248.076 12.528 249.836 13.424C251.596 14.32 252.956 15.616 253.916 17.312C254.908 18.976 255.404 20.976 255.404 23.312C255.404 23.92 255.372 24.544 255.308 25.184C255.244 25.824 255.148 26.416 255.02 26.96H233.276L233.948 22.976H252.188L249.74 24.32C249.996 22.688 249.884 21.328 249.404 20.24C248.924 19.152 248.156 18.32 247.1 17.744C246.044 17.168 244.78 16.88 243.308 16.88C241.548 16.88 240.012 17.296 238.7 18.128C237.42 18.928 236.428 20.08 235.724 21.584C235.02 23.056 234.668 24.784 234.668 26.768C234.668 28.848 235.26 30.448 236.444 31.568C237.66 32.688 239.532 33.248 242.06 33.248C243.5 33.248 244.876 33.024 246.188 32.576C247.5 32.096 248.588 31.44 249.452 30.608L251.948 34.784C250.604 35.968 249.004 36.864 247.148 37.472C245.324 38.048 243.42 38.336 241.436 38.336ZM267.89 38.336C266.226 38.336 264.786 37.984 263.57 37.28C262.386 36.544 261.522 35.52 260.978 34.208C260.466 32.864 260.386 31.28 260.738 29.456L265.298 6.704H271.298L266.738 29.408C266.546 30.592 266.674 31.552 267.122 32.288C267.57 33.024 268.418 33.392 269.666 33.392C270.242 33.392 270.818 33.312 271.394 33.152C272.002 32.96 272.546 32.704 273.026 32.384L274.082 36.8C273.186 37.376 272.194 37.776 271.106 38C270.018 38.224 268.946 38.336 267.89 38.336ZM259.01 17.36L259.97 12.56H277.01L276.05 17.36H259.01ZM292.476 38L299.196 4.4H304.284L314.076 29.024L311.436 28.976L330.588 4.4H335.964L329.244 38H323.34L328.188 13.52L329.58 13.568L313.356 34.16H310.572L302.076 13.52L303.276 13.664L298.428 38H292.476ZM349.264 38.336C347.184 38.336 345.28 37.888 343.552 36.992C341.856 36.096 340.496 34.816 339.472 33.152C338.48 31.456 337.984 29.424 337.984 27.056C337.984 24.88 338.336 22.88 339.04 21.056C339.776 19.232 340.8 17.648 342.112 16.304C343.424 14.96 344.944 13.92 346.672 13.184C348.432 12.448 350.352 12.08 352.432 12.08C354.576 12.08 356.416 12.464 357.952 13.232C359.52 14 360.704 15.168 361.504 16.736C362.304 18.272 362.672 20.192 362.608 22.496C362.544 25.664 361.968 28.448 360.88 30.848C359.792 33.216 358.272 35.056 356.32 36.368C354.368 37.68 352.016 38.336 349.264 38.336ZM350.8 33.2C352.528 33.2 354.048 32.8 355.36 32C356.672 31.168 357.712 30.032 358.48 28.592C359.248 27.152 359.632 25.488 359.632 23.6C359.632 21.616 359.04 20.048 357.856 18.896C356.672 17.744 355.008 17.168 352.864 17.168C351.168 17.168 349.648 17.584 348.304 18.416C346.992 19.216 345.952 20.336 345.184 21.776C344.416 23.216 344.032 24.88 344.032 26.768C344.032 28.752 344.624 30.32 345.808 31.472C346.992 32.624 348.656 33.2 350.8 33.2ZM357.088 38L358.24 32.144L359.872 25.328L360.688 18.464L361.888 12.368H367.888L362.8 38H357.088ZM389.706 12.08C391.914 12.08 393.786 12.528 395.322 13.424C396.858 14.32 397.93 15.648 398.538 17.408C399.178 19.136 399.242 21.264 398.73 23.792L395.898 38H389.898L392.682 23.936C393.098 21.856 392.906 20.24 392.106 19.088C391.306 17.904 389.85 17.312 387.738 17.312C385.53 17.312 383.706 17.92 382.266 19.136C380.826 20.352 379.85 22.208 379.338 24.704L376.65 38H370.65L375.738 12.368H381.45L380.01 19.664L379.05 17.36C380.266 15.536 381.786 14.208 383.61 13.376C385.466 12.512 387.498 12.08 389.706 12.08ZM415.076 38.336C412.996 38.336 411.092 37.888 409.364 36.992C407.668 36.096 406.308 34.816 405.284 33.152C404.292 31.456 403.796 29.424 403.796 27.056C403.796 24.88 404.148 22.88 404.852 21.056C405.588 19.232 406.612 17.648 407.924 16.304C409.236 14.96 410.756 13.92 412.484 13.184C414.244 12.448 416.164 12.08 418.244 12.08C420.388 12.08 422.228 12.464 423.764 13.232C425.332 14 426.516 15.168 427.316 16.736C428.116 18.272 428.484 20.192 428.42 22.496C428.356 25.664 427.78 28.448 426.692 30.848C425.604 33.216 424.084 35.056 422.132 36.368C420.18 37.68 417.828 38.336 415.076 38.336ZM416.612 33.2C418.34 33.2 419.86 32.8 421.172 32C422.484 31.168 423.524 30.032 424.292 28.592C425.06 27.152 425.444 25.488 425.444 23.6C425.444 21.616 424.852 20.048 423.668 18.896C422.484 17.744 420.82 17.168 418.676 17.168C416.98 17.168 415.46 17.584 414.116 18.416C412.804 19.216 411.764 20.336 410.996 21.776C410.228 23.216 409.844 24.88 409.844 26.768C409.844 28.752 410.436 30.32 411.62 31.472C412.804 32.624 414.468 33.2 416.612 33.2ZM422.9 38L424.052 32.144L425.684 25.328L426.5 18.464L427.7 12.368H433.7L428.612 38H422.9ZM446.83 47.648C444.398 47.648 442.158 47.344 440.11 46.736C438.062 46.16 436.302 45.296 434.83 44.144L437.95 39.632C438.942 40.496 440.254 41.184 441.886 41.696C443.518 42.24 445.294 42.512 447.214 42.512C450.03 42.512 452.158 41.888 453.598 40.64C455.038 39.424 455.998 37.584 456.478 35.12L457.534 29.84L459.118 24.416L460.078 18.608L461.278 12.368H466.99L462.67 34.112C461.71 38.88 459.918 42.32 457.294 44.432C454.67 46.576 451.182 47.648 446.83 47.648ZM448.318 36.848C446.11 36.848 444.142 36.432 442.414 35.6C440.686 34.736 439.326 33.52 438.334 31.952C437.342 30.352 436.846 28.448 436.846 26.24C436.846 24.224 437.198 22.368 437.902 20.672C438.638 18.944 439.646 17.44 440.926 16.16C442.238 14.88 443.774 13.888 445.534 13.184C447.326 12.448 449.278 12.08 451.39 12.08C453.246 12.08 454.958 12.416 456.526 13.088C458.094 13.728 459.342 14.784 460.27 16.256C461.198 17.696 461.63 19.6 461.566 21.968C461.502 24.784 460.942 27.328 459.886 29.6C458.83 31.84 457.326 33.616 455.374 34.928C453.422 36.208 451.07 36.848 448.318 36.848ZM449.662 31.76C451.39 31.76 452.91 31.392 454.222 30.656C455.534 29.888 456.558 28.848 457.294 27.536C458.062 26.192 458.446 24.688 458.446 23.024C458.446 21.2 457.854 19.776 456.67 18.752C455.486 17.696 453.838 17.168 451.726 17.168C449.998 17.168 448.478 17.552 447.166 18.32C445.854 19.056 444.814 20.08 444.046 21.392C443.278 22.704 442.894 24.208 442.894 25.904C442.894 27.728 443.486 29.168 444.67 30.224C445.886 31.248 447.55 31.76 449.662 31.76ZM482.654 38.336C480.094 38.336 477.87 37.872 475.982 36.944C474.094 35.984 472.622 34.672 471.566 33.008C470.542 31.312 470.03 29.328 470.03 27.056C470.03 24.144 470.67 21.568 471.95 19.328C473.23 17.088 474.974 15.328 477.182 14.048C479.422 12.736 481.966 12.08 484.814 12.08C487.214 12.08 489.294 12.528 491.054 13.424C492.814 14.32 494.174 15.616 495.134 17.312C496.126 18.976 496.622 20.976 496.622 23.312C496.622 23.92 496.59 24.544 496.526 25.184C496.462 25.824 496.366 26.416 496.238 26.96H474.494L475.166 22.976H493.406L490.958 24.32C491.214 22.688 491.102 21.328 490.622 20.24C490.142 19.152 489.374 18.32 488.318 17.744C487.262 17.168 485.998 16.88 484.526 16.88C482.766 16.88 481.23 17.296 479.918 18.128C478.638 18.928 477.646 20.08 476.942 21.584C476.238 23.056 475.886 24.784 475.886 26.768C475.886 28.848 476.478 30.448 477.662 31.568C478.878 32.688 480.75 33.248 483.278 33.248C484.718 33.248 486.094 33.024 487.406 32.576C488.718 32.096 489.806 31.44 490.67 30.608L493.166 34.784C491.822 35.968 490.222 36.864 488.366 37.472C486.542 38.048 484.638 38.336 482.654 38.336ZM536.277 12.08C538.517 12.08 540.389 12.528 541.893 13.424C543.397 14.32 544.453 15.648 545.061 17.408C545.669 19.136 545.717 21.264 545.205 23.792L542.373 38H536.373L539.205 23.936C539.621 21.824 539.445 20.192 538.677 19.04C537.909 17.888 536.517 17.312 534.501 17.312C532.421 17.312 530.709 17.92 529.365 19.136C528.053 20.32 527.141 22.16 526.629 24.656L523.941 38H517.941L520.773 23.936C521.189 21.824 521.013 20.192 520.245 19.04C519.477 17.888 518.085 17.312 516.069 17.312C513.989 17.312 512.277 17.92 510.933 19.136C509.621 20.32 508.709 22.176 508.197 24.704L505.509 38H499.509L504.597 12.368H510.309L508.917 19.424L507.909 17.36C509.093 15.536 510.565 14.208 512.325 13.376C514.117 12.512 516.069 12.08 518.181 12.08C519.845 12.08 521.317 12.368 522.597 12.944C523.877 13.488 524.901 14.336 525.669 15.488C526.469 16.608 526.933 18 527.061 19.664L524.181 19.04C525.493 16.736 527.173 15.008 529.221 13.856C531.301 12.672 533.653 12.08 536.277 12.08ZM562.951 38.336C560.391 38.336 558.167 37.872 556.279 36.944C554.391 35.984 552.919 34.672 551.863 33.008C550.839 31.312 550.327 29.328 550.327 27.056C550.327 24.144 550.967 21.568 552.247 19.328C553.527 17.088 555.271 15.328 557.479 14.048C559.719 12.736 562.263 12.08 565.111 12.08C567.511 12.08 569.591 12.528 571.351 13.424C573.111 14.32 574.471 15.616 575.431 17.312C576.423 18.976 576.919 20.976 576.919 23.312C576.919 23.92 576.887 24.544 576.823 25.184C576.759 25.824 576.663 26.416 576.535 26.96H554.791L555.463 22.976H573.703L571.255 24.32C571.511 22.688 571.399 21.328 570.919 20.24C570.439 19.152 569.671 18.32 568.615 17.744C567.559 17.168 566.295 16.88 564.823 16.88C563.063 16.88 561.527 17.296 560.215 18.128C558.935 18.928 557.943 20.08 557.239 21.584C556.535 23.056 556.183 24.784 556.183 26.768C556.183 28.848 556.775 30.448 557.959 31.568C559.175 32.688 561.047 33.248 563.575 33.248C565.015 33.248 566.391 33.024 567.703 32.576C569.015 32.096 570.103 31.44 570.967 30.608L573.463 34.784C572.119 35.968 570.519 36.864 568.663 37.472C566.839 38.048 564.935 38.336 562.951 38.336ZM598.862 12.08C601.07 12.08 602.942 12.528 604.478 13.424C606.014 14.32 607.086 15.648 607.694 17.408C608.334 19.136 608.398 21.264 607.886 23.792L605.054 38H599.054L601.838 23.936C602.254 21.856 602.062 20.24 601.262 19.088C600.462 17.904 599.006 17.312 596.894 17.312C594.686 17.312 592.862 17.92 591.422 19.136C589.982 20.352 589.006 22.208 588.494 24.704L585.806 38H579.806L584.894 12.368H590.606L589.166 19.664L588.206 17.36C589.422 15.536 590.942 14.208 592.766 13.376C594.622 12.512 596.654 12.08 598.862 12.08ZM622.265 38.336C620.601 38.336 619.161 37.984 617.945 37.28C616.761 36.544 615.897 35.52 615.353 34.208C614.841 32.864 614.761 31.28 615.113 29.456L619.673 6.704H625.673L621.113 29.408C620.921 30.592 621.049 31.552 621.497 32.288C621.945 33.024 622.793 33.392 624.041 33.392C624.617 33.392 625.193 33.312 625.769 33.152C626.377 32.96 626.921 32.704 627.401 32.384L628.457 36.8C627.561 37.376 626.569 37.776 625.481 38C624.393 38.224 623.321 38.336 622.265 38.336ZM613.385 17.36L614.345 12.56H631.385L630.425 17.36H613.385Z" fill="#FDFDFD"/>
</svg>
