<svg width="450" height="204" viewBox="0 0 450 204" fill="none" xmlns="http://www.w3.org/2000/svg">
    <rect x="37" y="4" width="158" height="88" rx="12" fill="white"/>
    <path d="M37 16C37 9.37258 42.3726 4 49 4H183C189.627 4 195 9.37258 195 16V19C195 19.5523 194.552 20 194 20H38C37.4477 20 37 19.5523 37 19V16Z" fill="#1FD59E"/>
    <g filter="url(#filter0_d_8242_139142)">
        <rect x="49" y="32" width="16" height="16" rx="4" fill="#1FD59E" shape-rendering="crispEdges"/>
        <path d="M59.5 37.5C59.5 38.8807 58.3807 40 57 40C55.6193 40 54.5 38.8807 54.5 37.5C54.5 36.1193 55.6193 35 57 35C58.3807 35 59.5 36.1193 59.5 37.5Z" fill="#FDFDFD"/>
        <path d="M52.455 45C52.455 42.93 54.495 41.25 57 41.25C59.505 41.25 61.545 42.93 61.545 45C61.545 45.14 61.435 45.25 61.295 45.25H52.705C52.565 45.25 52.455 45.14 52.455 45Z" fill="#FDFDFD"/>
    </g>
    <g filter="url(#filter1_d_8242_139142)">
        <path d="M77 42.3237C79.4408 45.9561 86.5539 51.5577 95.4803 44.9046C106.638 36.5883 109.802 35.9034 115.007 42.3237C119.191 47.4855 127.211 50.3532 137.671 44.9046C148.132 39.456 149.845 34.7341 163.5 41.2C175.007 46.6486 168.704 32 183 32" stroke="#1FD59E" stroke-width="0.5" stroke-linecap="round" stroke-dasharray="2 2"/>
    </g>
    <g filter="url(#filter2_d_8242_139142)">
        <rect x="49" y="60" width="16" height="16" rx="4" fill="#EE994B" shape-rendering="crispEdges"/>
        <path d="M59.5 65.5C59.5 66.8807 58.3807 68 57 68C55.6193 68 54.5 66.8807 54.5 65.5C54.5 64.1193 55.6193 63 57 63C58.3807 63 59.5 64.1193 59.5 65.5Z" fill="#FDFDFD"/>
        <path d="M52.455 73C52.455 70.93 54.495 69.25 57 69.25C59.505 69.25 61.545 70.93 61.545 73C61.545 73.14 61.435 73.25 61.295 73.25H52.705C52.565 73.25 52.455 73.14 52.455 73Z" fill="#FDFDFD"/>
    </g>
    <g filter="url(#filter3_d_8242_139142)">
        <path d="M77 72.7814C78.5 71 83 65.5344 93.5 74.5906C94.6667 75.5968 101.699 78.4071 108.662 71.3825C117.5 62.4655 119.802 75.4624 126.251 68.4525C133.287 60.805 134.972 65.0079 143.338 70.7516C159.923 82.1374 160.631 60 175 60" stroke="#EE994B" stroke-width="0.5" stroke-linecap="round" stroke-dasharray="2 2"/>
    </g>
    <g filter="url(#filter4_d_8242_139142)">
        <path d="M173 50C173 47.7909 174.791 46 177 46H321C323.209 46 325 47.7909 325 50V140H173V50Z" fill="#1FD59E"/>
        <path d="M176 54C176 52.8954 176.895 52 178 52H320C321.105 52 322 52.8954 322 54V137H176V54Z" fill="#FDFDFD"/>
        <path d="M140.004 176.662C138.846 177.949 139.759 180 141.491 180H356.509C358.241 180 359.154 177.949 357.996 176.662L325 140H173L140.004 176.662Z" fill="#FDFDFD"/>
        <path d="M162.52 162.327C161.936 162.97 162.392 164 163.26 164H334.74C335.608 164 336.064 162.97 335.48 162.327L318.821 144H179.179L162.52 162.327Z" fill="#D4D5DB" fill-opacity="0.4"/>
        <path d="M162.89 162.664C162.598 162.985 162.826 163.5 163.26 163.5H334.74C335.174 163.5 335.402 162.985 335.11 162.664L318.6 144.5H179.4L162.89 162.664Z" stroke="url(#paint0_linear_8242_139142)" stroke-opacity="0.2"/>
        <path d="M217.438 173.344C216.876 173.992 217.336 175 218.193 175H279.807C280.664 175 281.124 173.992 280.562 173.344L273.612 165.344C273.422 165.126 273.147 165 272.857 165H225.143C224.853 165 224.578 165.126 224.388 165.344L217.438 173.344Z" fill="#D4D5DB" fill-opacity="0.4"/>
        <path d="M217.627 173.508C217.205 173.994 217.55 174.75 218.193 174.75H279.807C280.45 174.75 280.795 173.994 280.373 173.508L273.423 165.508C273.281 165.344 273.074 165.25 272.857 165.25H225.143C224.926 165.25 224.719 165.344 224.577 165.508L217.627 173.508Z" stroke="url(#paint1_linear_8242_139142)" stroke-opacity="0.2" stroke-width="0.5"/>
        <path d="M238.854 178.146C238.947 178.053 239.074 178 239.207 178H258.793C258.926 178 259.053 178.053 259.146 178.146L261 180H237L238.854 178.146Z" fill="#B1B2BD"/>
        <circle cx="249" cy="49" r="1" fill="#FDFDFD"/>
        <g filter="url(#filter5_d_8242_139142)">
            <path d="M296 65C296 64.4477 296.448 64 297 64H309C309.552 64 310 64.4477 310 65V82.1805C310 82.9692 309.13 83.4475 308.464 83.0248L303.536 79.8959C303.209 79.6882 302.791 79.6882 302.464 79.8959L297.536 83.0248C296.87 83.4475 296 82.9692 296 82.1805V65Z" fill="#EE994B"/>
        </g>
        <rect opacity="0.5" x="188" y="64" width="20" height="20" rx="2" fill="#D4D5DB"/>
        <rect opacity="0.5" x="216" y="64" width="64" height="6" rx="2" fill="#D4D5DB"/>
        <rect opacity="0.5" x="216" y="78" width="64" height="6" rx="2" fill="#D4D5DB"/>
        <rect opacity="0.5" x="188" y="96" width="122" height="6" rx="2" fill="#D4D5DB"/>
        <path opacity="0.5" fill-rule="evenodd" clip-rule="evenodd" d="M190 114C188.895 114 188 114.895 188 116V118C188 119.105 188.895 120 190 120H214C215.105 120 216 119.105 216 118V116C216 114.895 215.105 114 214 114H190ZM222 114C220.895 114 220 114.895 220 116V118C220 119.105 220.895 120 222 120H308C309.105 120 310 119.105 310 118V116C310 114.895 309.105 114 308 114H222Z" fill="#D4D5DB"/>
    </g>
    <path fill-rule="evenodd" clip-rule="evenodd" d="M327.864 30.979L303 35.4832L324.521 80.5415L349.162 76.5205L327.864 30.979Z" fill="#4E95FF"/>
    <path fill-rule="evenodd" clip-rule="evenodd" d="M305.029 29.8148L323.808 82.995L357.785 77.8736L339.85 28.0347L305.029 29.8148Z" fill="#1FD59E"/>
    <path fill-rule="evenodd" clip-rule="evenodd" d="M319.192 44.5126C320.473 55.0843 322.567 62.3287 325.474 66.2458C329.833 72.1214 336.463 76.9019 349.162 74.7509L320.857 45.3301L319.192 44.5126Z" fill="#21BB8D"/>
    <path fill-rule="evenodd" clip-rule="evenodd" d="M308.113 27.5257L311.115 27.4853L312.658 31.0723L309.758 31.3325L308.113 27.5257Z" fill="#FDFDFD"/>
    <path fill-rule="evenodd" clip-rule="evenodd" d="M312.09 26.386H315.258L317.204 30.7828H314.216L312.09 26.386Z" fill="#4E95FF"/>
    <path d="M318.218 35.6504C335.43 35.7085 345.213 34.8057 347.568 32.9419C351.161 52.6407 355.243 65.742 359.815 72.2459C355.581 74.2602 350.573 74.9357 344.79 74.2724C336.117 73.2774 332.517 71.0196 326.081 63.5995C321.79 58.6528 319.169 49.3364 318.218 35.6504Z" fill="white"/>
    <mask id="mask0_8242_139142" style="mask-type:luminance" maskUnits="userSpaceOnUse" x="318" y="32" width="42" height="43">
        <path d="M318.218 35.6504C335.43 35.7085 345.213 34.8057 347.568 32.9419C351.161 52.6407 355.243 65.742 359.815 72.2459C355.581 74.2602 350.573 74.9357 344.79 74.2724C336.117 73.2774 332.517 71.0196 326.081 63.5995C321.79 58.6528 319.169 49.3364 318.218 35.6504Z" fill="#F6F7FF"/>
    </mask>
    <g mask="url(#mask0_8242_139142)">
        <path fill-rule="evenodd" clip-rule="evenodd" d="M336.776 35.1432C340.038 35.5774 342.543 36.8831 344.289 39.0605C345.564 40.6513 339.116 51.7237 340.446 54.2446C347.573 37.269 353.745 57.4721 356.69 66.5069L356.739 57.7686L347.34 29.4086L336.776 35.1432Z" fill="#F6F7FF"/>
    </g>
    <mask id="mask1_8242_139142" style="mask-type:luminance" maskUnits="userSpaceOnUse" x="318" y="32" width="42" height="43">
        <path d="M318.218 35.6504C335.43 35.7085 345.213 34.8057 347.568 32.9419C351.161 52.6407 355.243 65.742 359.815 72.2459C355.581 74.2602 350.573 74.9357 344.79 74.2724C336.117 73.2774 332.517 71.0196 326.081 63.5995C321.79 58.6528 319.169 49.3364 318.218 35.6504Z" fill="#A7A7A7"/>
    </mask>
    <g mask="url(#mask1_8242_139142)">
        <path d="M324.521 46.2597L324.99 46.1501C328.454 45.3542 330.733 45.1349 331.866 45.5047C333.184 45.9352 333.036 47.0722 331.596 48.7286L331.508 48.8286C329.418 51.1779 328.204 53.3986 328.299 54.6037C328.39 55.7457 329.803 55.8183 332.603 54.4491L334.205 53.6714C337.1 52.2794 338.627 51.6366 339.75 51.3705L339.822 51.354C341.601 50.9516 342.012 51.7983 340.915 53.7592L340.855 53.8653C339.415 56.3706 340.6 58.2937 344.54 59.7241C344.659 59.7672 344.719 59.8956 344.675 60.0109C344.631 60.1262 344.498 60.1847 344.38 60.1416C340.263 58.6473 338.891 56.4922 340.39 53.7622L340.567 53.4488C341.441 51.8711 341.219 51.4958 339.926 51.7881L339.785 51.8215C338.545 52.1296 336.729 52.9329 333.025 54.7417L332.809 54.8472C329.763 56.3372 327.969 56.245 327.842 54.6379C327.736 53.3085 328.942 51.0701 331.02 48.6957L331.16 48.5373C332.503 47.0275 332.627 46.2236 331.72 45.9272C330.65 45.5779 328.272 45.8283 324.63 46.6927C324.507 46.7219 324.383 46.6487 324.353 46.5291C324.323 46.4095 324.398 46.2889 324.521 46.2597Z" fill="#A7A7A7"/>
    </g>
    <path opacity="0.3" fill-rule="evenodd" clip-rule="evenodd" d="M337.381 66.0549C331.009 64.8014 329.458 64.0274 324.389 61.3214C330.73 70.9323 338.987 75.3315 349.162 74.5191C342.754 72.0501 340.963 70.2762 337.381 66.0549Z" fill="#5ADEB2"/>
    <path d="M344.913 44.1513C360.332 29.5691 369.344 21.0521 371.949 18.6004C375.855 14.9227 382.016 18.0303 376.795 23.3882C373.314 26.9602 364.206 35.4939 349.472 48.9893L340.475 53.0493L344.913 44.1513Z" fill="white"/>
    <mask id="mask2_8242_139142" style="mask-type:luminance" maskUnits="userSpaceOnUse" x="340" y="17" width="39" height="37">
        <path d="M344.913 44.1513C360.332 29.5691 369.344 21.0521 371.949 18.6004C375.855 14.9227 382.016 18.0303 376.795 23.3882C373.314 26.9602 364.206 35.4939 349.472 48.9893L340.475 53.0493L344.913 44.1513Z" fill="#D1D3FB"/>
    </mask>
    <g mask="url(#mask2_8242_139142)">
        <path fill-rule="evenodd" clip-rule="evenodd" d="M347.547 49.0565L376.468 21.9409C378.657 19.0537 377.379 17.2278 372.635 16.463C373.801 15.5515 374.377 14.7613 375.555 14.1174C377.277 15.2719 379.528 16.6761 382.309 18.3299L351.241 54.2044L347.547 49.0565Z" fill="#D1D3FB"/>
    </g>
    <mask id="mask3_8242_139142" style="mask-type:luminance" maskUnits="userSpaceOnUse" x="340" y="17" width="39" height="37">
        <path d="M344.913 44.1513C360.332 29.5691 369.344 21.0521 371.949 18.6004C375.855 14.9227 382.016 18.0303 376.795 23.3882C373.314 26.9602 364.206 35.4939 349.472 48.9893L340.475 53.0493L344.913 44.1513Z" fill="#B5B7D8"/>
    </mask>
    <g mask="url(#mask3_8242_139142)">
        <path d="M368.048 19.6981C372.049 20.8881 374.421 23.577 375.064 27.6538L375.098 27.8817L373.427 28.1221C372.942 24.6556 371.092 22.4523 367.777 21.4017L367.573 21.3389L368.048 19.6981Z" fill="#B5B7D8"/>
    </g>
    <mask id="mask4_8242_139142" style="mask-type:luminance" maskUnits="userSpaceOnUse" x="340" y="17" width="39" height="37">
        <path d="M344.913 44.1513C360.332 29.5691 369.344 21.0521 371.949 18.6004C375.855 14.9227 382.016 18.0303 376.795 23.3882C373.314 26.9602 364.206 35.4939 349.472 48.9893L340.475 53.0493L344.913 44.1513Z" fill="#B5B7D8"/>
    </mask>
    <g mask="url(#mask4_8242_139142)">
        <path fill-rule="evenodd" clip-rule="evenodd" d="M343.172 43.5441C346.761 44.2365 349.121 46.8077 350.252 51.2577L338.781 55.2127L343.172 43.5441Z" fill="#B5B7D8"/>
    </g>
    <mask id="mask5_8242_139142" style="mask-type:luminance" maskUnits="userSpaceOnUse" x="340" y="17" width="39" height="37">
        <path d="M344.913 44.1513C360.332 29.5691 369.344 21.0521 371.949 18.6004C375.855 14.9227 382.016 18.0303 376.795 23.3882C373.314 26.9602 364.206 35.4939 349.472 48.9893L340.475 53.0493L344.913 44.1513Z" fill="#3D3D3D"/>
    </mask>
    <g mask="url(#mask5_8242_139142)">
        <path fill-rule="evenodd" clip-rule="evenodd" d="M341.035 48.4687C343.45 49.8442 345.007 51.5372 345.705 53.5478L338.225 56.1948L341.035 48.4687Z" fill="#1B1B1B"/>
    </g>
    <circle cx="370.126" cy="47.296" r="2.97019" fill="#1FD59E"/>
    <circle cx="365.782" cy="52.7821" r="1.78212" fill="#1FD59E"/>
    <path d="M151.219 146.028L163.319 169.746C150.704 166.092 141.241 166.092 134.93 169.746C119.205 168.555 108.683 171.511 103.364 178.614L89 150.832L108.816 144.046L151.219 146.028Z" fill="#1FD59E"/>
    <mask id="mask6_8242_139142" style="mask-type:luminance" maskUnits="userSpaceOnUse" x="89" y="144" width="75" height="35">
        <path d="M151.219 146.028L163.319 169.746C150.704 166.092 141.241 166.092 134.93 169.746C119.205 168.555 108.683 171.511 103.364 178.614L89 150.832L108.816 144.046L151.219 146.028Z" fill="#FFDEBF"/>
    </mask>
    <g mask="url(#mask6_8242_139142)">
        <path fill-rule="evenodd" clip-rule="evenodd" d="M160.189 162.431C147.865 162.621 139.419 165.047 134.853 169.71C120.367 166.81 109.719 168.351 102.908 174.333L89.9246 149.252C89.8192 149.252 91.2395 149.252 94.1857 149.252C97.1319 149.252 118.916 152.695 159.537 159.58L160.189 162.431Z" fill="#21BB8D"/>
    </g>
    <path fill-rule="evenodd" clip-rule="evenodd" d="M103.824 144.046C98.4383 144.31 94.3754 145.59 91.6354 147.884L103.159 172.329C113.151 166.879 123.19 165.97 133.275 169.604L106.447 145.456L103.824 144.046Z" fill="#E6E9EE"/>
    <path fill-rule="evenodd" clip-rule="evenodd" d="M122.144 144.522C111.542 139.951 103.13 139.711 96.9062 143.801L106.745 166.91C116.614 163.352 125.457 164.286 133.275 169.71C129.062 159.402 125.352 151.006 122.144 144.522Z" fill="white"/>
    <path fill-rule="evenodd" clip-rule="evenodd" d="M137.499 139.889C142.298 136.714 146.51 135.92 150.135 137.508L163.319 160.665C149.696 159.843 139.96 163.032 134.111 170.234L128.004 148.731L137.499 139.889Z" fill="#E6E9EE"/>
    <path fill-rule="evenodd" clip-rule="evenodd" d="M120.625 144.018C124.588 137.115 130.711 133.109 138.994 132C148.183 146.89 152.777 154.335 152.777 154.335C141.935 154.598 135.516 159.723 133.52 169.71C128.581 159.783 124.282 151.219 120.625 144.018Z" fill="#F7F7F7"/>
    <circle cx="83.9702" cy="136.97" r="2.97019" fill="#FDFDFD"/>
    <circle cx="90.626" cy="141.782" r="1.78212" fill="#FDFDFD"/>
    <defs>
        <filter id="filter0_d_8242_139142" x="41" y="26" width="32" height="32" filterUnits="userSpaceOnUse" color-interpolation-filters="sRGB">
            <feFlood flood-opacity="0" result="BackgroundImageFix"/>
            <feColorMatrix in="SourceAlpha" type="matrix" values="0 0 0 0 0 0 0 0 0 0 0 0 0 0 0 0 0 0 127 0" result="hardAlpha"/>
            <feOffset dy="2"/>
            <feGaussianBlur stdDeviation="4"/>
            <feComposite in2="hardAlpha" operator="out"/>
            <feColorMatrix type="matrix" values="0 0 0 0 0.121569 0 0 0 0 0.831373 0 0 0 0 0.619608 0 0 0 0.4 0"/>
            <feBlend mode="normal" in2="BackgroundImageFix" result="effect1_dropShadow_8242_139142"/>
            <feBlend mode="normal" in="SourceGraphic" in2="effect1_dropShadow_8242_139142" result="shape"/>
        </filter>
        <filter id="filter1_d_8242_139142" x="68.75" y="25.75" width="122.5" height="32.5" filterUnits="userSpaceOnUse" color-interpolation-filters="sRGB">
            <feFlood flood-opacity="0" result="BackgroundImageFix"/>
            <feColorMatrix in="SourceAlpha" type="matrix" values="0 0 0 0 0 0 0 0 0 0 0 0 0 0 0 0 0 0 127 0" result="hardAlpha"/>
            <feOffset dy="2"/>
            <feGaussianBlur stdDeviation="4"/>
            <feComposite in2="hardAlpha" operator="out"/>
            <feColorMatrix type="matrix" values="0 0 0 0 0.121569 0 0 0 0 0.831373 0 0 0 0 0.619608 0 0 0 0.4 0"/>
            <feBlend mode="normal" in2="BackgroundImageFix" result="effect1_dropShadow_8242_139142"/>
            <feBlend mode="normal" in="SourceGraphic" in2="effect1_dropShadow_8242_139142" result="shape"/>
        </filter>
        <filter id="filter2_d_8242_139142" x="41" y="54" width="32" height="32" filterUnits="userSpaceOnUse" color-interpolation-filters="sRGB">
            <feFlood flood-opacity="0" result="BackgroundImageFix"/>
            <feColorMatrix in="SourceAlpha" type="matrix" values="0 0 0 0 0 0 0 0 0 0 0 0 0 0 0 0 0 0 127 0" result="hardAlpha"/>
            <feOffset dy="2"/>
            <feGaussianBlur stdDeviation="4"/>
            <feComposite in2="hardAlpha" operator="out"/>
            <feColorMatrix type="matrix" values="0 0 0 0 0.933333 0 0 0 0 0.6 0 0 0 0 0.294118 0 0 0 0.4 0"/>
            <feBlend mode="normal" in2="BackgroundImageFix" result="effect1_dropShadow_8242_139142"/>
            <feBlend mode="normal" in="SourceGraphic" in2="effect1_dropShadow_8242_139142" result="shape"/>
        </filter>
        <filter id="filter3_d_8242_139142" x="68.75" y="53.75" width="114.5" height="32.4976" filterUnits="userSpaceOnUse" color-interpolation-filters="sRGB">
            <feFlood flood-opacity="0" result="BackgroundImageFix"/>
            <feColorMatrix in="SourceAlpha" type="matrix" values="0 0 0 0 0 0 0 0 0 0 0 0 0 0 0 0 0 0 127 0" result="hardAlpha"/>
            <feOffset dy="2"/>
            <feGaussianBlur stdDeviation="4"/>
            <feComposite in2="hardAlpha" operator="out"/>
            <feColorMatrix type="matrix" values="0 0 0 0 0.933333 0 0 0 0 0.6 0 0 0 0 0.294118 0 0 0 0.4 0"/>
            <feBlend mode="normal" in2="BackgroundImageFix" result="effect1_dropShadow_8242_139142"/>
            <feBlend mode="normal" in="SourceGraphic" in2="effect1_dropShadow_8242_139142" result="shape"/>
        </filter>
        <filter id="filter4_d_8242_139142" x="119.487" y="30" width="259.026" height="174" filterUnits="userSpaceOnUse" color-interpolation-filters="sRGB">
            <feFlood flood-opacity="0" result="BackgroundImageFix"/>
            <feColorMatrix in="SourceAlpha" type="matrix" values="0 0 0 0 0 0 0 0 0 0 0 0 0 0 0 0 0 0 127 0" result="hardAlpha"/>
            <feOffset dy="4"/>
            <feGaussianBlur stdDeviation="10"/>
            <feComposite in2="hardAlpha" operator="out"/>
            <feColorMatrix type="matrix" values="0 0 0 0 0 0 0 0 0 0 0 0 0 0 0 0 0 0 0.25 0"/>
            <feBlend mode="normal" in2="BackgroundImageFix" result="effect1_dropShadow_8242_139142"/>
            <feBlend mode="normal" in="SourceGraphic" in2="effect1_dropShadow_8242_139142" result="shape"/>
        </filter>
        <filter id="filter5_d_8242_139142" x="288" y="58" width="30" height="35.1822" filterUnits="userSpaceOnUse" color-interpolation-filters="sRGB">
            <feFlood flood-opacity="0" result="BackgroundImageFix"/>
            <feColorMatrix in="SourceAlpha" type="matrix" values="0 0 0 0 0 0 0 0 0 0 0 0 0 0 0 0 0 0 127 0" result="hardAlpha"/>
            <feOffset dy="2"/>
            <feGaussianBlur stdDeviation="4"/>
            <feComposite in2="hardAlpha" operator="out"/>
            <feColorMatrix type="matrix" values="0 0 0 0 0.933333 0 0 0 0 0.6 0 0 0 0 0.294118 0 0 0 0.4 0"/>
            <feBlend mode="normal" in2="BackgroundImageFix" result="effect1_dropShadow_8242_139142"/>
            <feBlend mode="normal" in="SourceGraphic" in2="effect1_dropShadow_8242_139142" result="shape"/>
        </filter>
        <linearGradient id="paint0_linear_8242_139142" x1="249" y1="164" x2="249" y2="144" gradientUnits="userSpaceOnUse">
            <stop stop-color="#B1B2BD" stop-opacity="0"/>
            <stop offset="1" stop-color="#B1B2BD"/>
        </linearGradient>
        <linearGradient id="paint1_linear_8242_139142" x1="249" y1="175" x2="249" y2="165" gradientUnits="userSpaceOnUse">
            <stop stop-color="#B1B2BD" stop-opacity="0"/>
            <stop offset="1" stop-color="#B1B2BD"/>
        </linearGradient>
    </defs>
</svg>
