<svg width="263" height="24" viewBox="0 0 263 24" fill="none" xmlns="http://www.w3.org/2000/svg">
<path d="M3.18613 23L0.426133 2H4.29613L6.75613 20.96H4.74613L14.9761 2H18.6061L21.0361 20.96H19.1461L29.2861 2H33.1561L22.0261 23H17.8561L15.5161 5.9H16.6861L7.35613 23H3.18613ZM38.6121 23.21C37.0121 23.21 35.6221 22.92 34.4421 22.34C33.2621 21.74 32.3421 20.92 31.6821 19.88C31.0421 18.82 30.7221 17.58 30.7221 16.16C30.7221 14.34 31.1221 12.73 31.9221 11.33C32.7221 9.93 33.8121 8.83 35.1921 8.03C36.5921 7.21 38.1821 6.8 39.9621 6.8C41.4621 6.8 42.7621 7.08 43.8621 7.64C44.9621 8.2 45.8121 9.01 46.4121 10.07C47.0321 11.11 47.3421 12.36 47.3421 13.82C47.3421 14.2 47.3221 14.59 47.2821 14.99C47.2421 15.39 47.1821 15.76 47.1021 16.1H33.5121L33.9321 13.61H45.3321L43.8021 14.45C43.9621 13.43 43.8921 12.58 43.5921 11.9C43.2921 11.22 42.8121 10.7 42.1521 10.34C41.4921 9.98 40.7021 9.8 39.7821 9.8C38.6821 9.8 37.7221 10.06 36.9021 10.58C36.1021 11.08 35.4821 11.8 35.0421 12.74C34.6021 13.66 34.3821 14.74 34.3821 15.98C34.3821 17.28 34.7521 18.28 35.4921 18.98C36.2521 19.68 37.4221 20.03 39.0021 20.03C39.9021 20.03 40.7621 19.89 41.5821 19.61C42.4021 19.31 43.0821 18.9 43.6221 18.38L45.1821 20.99C44.3421 21.73 43.3421 22.29 42.1821 22.67C41.0421 23.03 39.8521 23.21 38.6121 23.21ZM49.1464 23L53.5864 0.739999H57.3364L52.8964 23H49.1464ZM65.8282 23.21C64.2482 23.21 62.8582 22.92 61.6582 22.34C60.4782 21.74 59.5682 20.92 58.9282 19.88C58.2882 18.82 57.9682 17.58 57.9682 16.16C57.9682 14.36 58.3782 12.76 59.1982 11.36C60.0182 9.94 61.1482 8.83 62.5882 8.03C64.0282 7.21 65.6882 6.8 67.5682 6.8C69.1882 6.8 70.5782 7.12 71.7382 7.76C72.9182 8.38 73.8282 9.31 74.4682 10.55L71.2582 12.2C70.8982 11.44 70.3782 10.88 69.6982 10.52C69.0382 10.16 68.2282 9.98 67.2682 9.98C66.2282 9.98 65.2882 10.24 64.4482 10.76C63.6082 11.26 62.9482 11.96 62.4682 12.86C61.9882 13.76 61.7482 14.8 61.7482 15.98C61.7482 17.22 62.1182 18.2 62.8582 18.92C63.5982 19.64 64.6482 20 66.0082 20C66.8882 20 67.7082 19.82 68.4682 19.46C69.2282 19.1 69.8682 18.54 70.3882 17.78L73.1482 19.64C72.4082 20.76 71.3882 21.64 70.0882 22.28C68.7882 22.9 67.3682 23.21 65.8282 23.21ZM82.9355 23.21C81.3755 23.21 80.0055 22.92 78.8255 22.34C77.6655 21.74 76.7655 20.92 76.1255 19.88C75.4855 18.82 75.1655 17.58 75.1655 16.16C75.1655 14.36 75.5755 12.76 76.3955 11.36C77.2155 9.94 78.3355 8.83 79.7555 8.03C81.1955 7.21 82.8355 6.8 84.6755 6.8C86.2555 6.8 87.6255 7.09 88.7855 7.67C89.9655 8.23 90.8755 9.04 91.5155 10.1C92.1555 11.14 92.4755 12.38 92.4755 13.82C92.4755 15.6 92.0655 17.2 91.2455 18.62C90.4255 20.04 89.2955 21.16 87.8555 21.98C86.4355 22.8 84.7955 23.21 82.9355 23.21ZM83.1755 20C84.2555 20 85.2055 19.75 86.0255 19.25C86.8455 18.73 87.4955 18.02 87.9755 17.12C88.4555 16.22 88.6955 15.18 88.6955 14C88.6955 12.76 88.3255 11.78 87.5855 11.06C86.8455 10.34 85.8055 9.98 84.4655 9.98C83.4055 9.98 82.4555 10.24 81.6155 10.76C80.7955 11.26 80.1455 11.96 79.6655 12.86C79.1855 13.76 78.9455 14.8 78.9455 15.98C78.9455 17.24 79.3155 18.23 80.0555 18.95C80.7955 19.65 81.8355 20 83.1755 20ZM117.331 6.8C118.731 6.8 119.901 7.08 120.841 7.64C121.781 8.2 122.441 9.03 122.821 10.13C123.201 11.21 123.231 12.54 122.911 14.12L121.141 23H117.391L119.161 14.21C119.421 12.89 119.311 11.87 118.831 11.15C118.351 10.43 117.481 10.07 116.221 10.07C114.921 10.07 113.851 10.45 113.011 11.21C112.191 11.95 111.621 13.1 111.301 14.66L109.621 23H105.871L107.641 14.21C107.901 12.89 107.791 11.87 107.311 11.15C106.831 10.43 105.961 10.07 104.701 10.07C103.401 10.07 102.331 10.45 101.491 11.21C100.671 11.95 100.101 13.11 99.7814 14.69L98.1014 23H94.3514L97.5314 6.98H101.101L100.231 11.39L99.6014 10.1C100.341 8.96 101.261 8.13 102.361 7.61C103.481 7.07 104.701 6.8 106.021 6.8C107.061 6.8 107.981 6.98 108.781 7.34C109.581 7.68 110.221 8.21 110.701 8.93C111.201 9.63 111.491 10.5 111.571 11.54L109.771 11.15C110.591 9.71 111.641 8.63 112.921 7.91C114.221 7.17 115.691 6.8 117.331 6.8ZM134.003 23.21C132.403 23.21 131.013 22.92 129.833 22.34C128.653 21.74 127.733 20.92 127.073 19.88C126.433 18.82 126.113 17.58 126.113 16.16C126.113 14.34 126.513 12.73 127.313 11.33C128.113 9.93 129.203 8.83 130.583 8.03C131.983 7.21 133.573 6.8 135.353 6.8C136.853 6.8 138.153 7.08 139.253 7.64C140.353 8.2 141.203 9.01 141.803 10.07C142.423 11.11 142.733 12.36 142.733 13.82C142.733 14.2 142.713 14.59 142.673 14.99C142.633 15.39 142.573 15.76 142.493 16.1H128.903L129.323 13.61H140.723L139.193 14.45C139.353 13.43 139.283 12.58 138.983 11.9C138.683 11.22 138.203 10.7 137.543 10.34C136.883 9.98 136.093 9.8 135.173 9.8C134.073 9.8 133.113 10.06 132.293 10.58C131.493 11.08 130.873 11.8 130.433 12.74C129.993 13.66 129.773 14.74 129.773 15.98C129.773 17.28 130.143 18.28 130.883 18.98C131.643 19.68 132.813 20.03 134.393 20.03C135.293 20.03 136.153 19.89 136.973 19.61C137.793 19.31 138.473 18.9 139.013 18.38L140.573 20.99C139.733 21.73 138.733 22.29 137.573 22.67C136.433 23.03 135.243 23.21 134.003 23.21ZM158.828 23.21C157.788 23.21 156.888 22.99 156.128 22.55C155.388 22.09 154.848 21.45 154.508 20.63C154.188 19.79 154.138 18.8 154.358 17.66L157.208 3.44H160.958L158.108 17.63C157.988 18.37 158.068 18.97 158.348 19.43C158.628 19.89 159.158 20.12 159.938 20.12C160.298 20.12 160.658 20.07 161.018 19.97C161.398 19.85 161.738 19.69 162.038 19.49L162.698 22.25C162.138 22.61 161.518 22.86 160.838 23C160.158 23.14 159.488 23.21 158.828 23.21ZM153.278 10.1L153.878 7.1H164.528L163.928 10.1H153.278ZM172.936 23.21C171.376 23.21 170.006 22.92 168.826 22.34C167.666 21.74 166.766 20.92 166.126 19.88C165.486 18.82 165.166 17.58 165.166 16.16C165.166 14.36 165.576 12.76 166.396 11.36C167.216 9.94 168.336 8.83 169.756 8.03C171.196 7.21 172.836 6.8 174.676 6.8C176.256 6.8 177.626 7.09 178.786 7.67C179.966 8.23 180.876 9.04 181.516 10.1C182.156 11.14 182.476 12.38 182.476 13.82C182.476 15.6 182.066 17.2 181.246 18.62C180.426 20.04 179.296 21.16 177.856 21.98C176.436 22.8 174.796 23.21 172.936 23.21ZM173.176 20C174.256 20 175.206 19.75 176.026 19.25C176.846 18.73 177.496 18.02 177.976 17.12C178.456 16.22 178.696 15.18 178.696 14C178.696 12.76 178.326 11.78 177.586 11.06C176.846 10.34 175.806 9.98 174.466 9.98C173.406 9.98 172.456 10.24 171.616 10.76C170.796 11.26 170.146 11.96 169.666 12.86C169.186 13.76 168.946 14.8 168.946 15.98C168.946 17.24 169.316 18.23 170.056 18.95C170.796 19.65 171.836 20 173.176 20ZM193.002 23L197.202 2H205.692C207.832 2 209.662 2.36 211.182 3.08C212.702 3.78 213.862 4.78 214.662 6.08C215.482 7.38 215.892 8.91 215.892 10.67C215.892 12.53 215.572 14.22 214.932 15.74C214.312 17.26 213.422 18.56 212.262 19.64C211.122 20.7 209.752 21.53 208.152 22.13C206.552 22.71 204.772 23 202.812 23H193.002ZM197.562 19.7H202.932C204.812 19.7 206.422 19.32 207.762 18.56C209.122 17.78 210.162 16.73 210.882 15.41C211.602 14.09 211.962 12.59 211.962 10.91C211.962 9.77 211.712 8.78 211.212 7.94C210.712 7.1 209.962 6.45 208.962 5.99C207.982 5.53 206.752 5.3 205.272 5.3H200.442L197.562 19.7ZM221.755 23L225.295 5.3H218.335L218.995 2H236.785L236.125 5.3H229.165L225.655 23H221.755ZM235.542 23L239.742 2H242.922L249.042 17.39L247.392 17.36L259.362 2H262.722L258.522 23H254.832L257.862 7.7L258.732 7.73L248.592 20.6H246.852L241.542 7.7L242.292 7.79L239.262 23H235.542Z" fill="#FDFDFD"/>
</svg>
