<svg width="96" height="96" viewBox="0 0 96 96" fill="none" xmlns="http://www.w3.org/2000/svg">
    <path d="M34.3858 48.5555L35.1488 49.8771L37.7555 48.3721L38.4975 49.6572L35.8908 51.1623L36.5208 52.2534L39.6974 50.4194L40.4324 51.6925L38.8926 52.5815L39.5436 53.7091L40.9257 52.9111L41.6887 54.2326L40.3066 55.0306L41.5666 57.213C41.7066 57.4555 41.8037 57.6796 41.8578 57.8855C41.9167 58.0994 41.9205 58.302 41.8692 58.4932C41.8226 58.6925 41.7153 58.8892 41.5471 59.0833C41.379 59.2774 41.1426 59.4839 40.8379 59.7029C40.6371 59.8404 40.4258 59.9785 40.2042 60.1173C39.9872 60.2641 39.7736 60.3982 39.5635 60.5195L38.5421 59.2825C38.7616 59.1773 38.9585 59.0798 39.133 58.9899C39.3074 58.8999 39.4771 58.8019 39.6422 58.6959C39.8119 58.5979 39.9406 58.5128 40.0283 58.4406C40.1159 58.3685 40.166 58.2965 40.1784 58.2246C40.1942 58.14 40.1782 58.0469 40.1303 57.9453C40.0904 57.8389 40.0215 57.7009 39.9235 57.5312L38.9365 55.8216L36.1479 57.4316C36.2835 57.4611 36.4197 57.501 36.5565 57.5514C36.6968 57.5889 36.8521 57.634 37.0225 57.6865C37.3077 57.7697 37.5592 57.8508 37.7772 57.9297C37.9906 58.0005 38.1743 58.0668 38.3286 58.1287L37.8491 59.6502C37.2542 59.4225 36.7203 59.235 36.2473 59.0878C35.7743 58.9406 35.4509 58.8471 35.2771 58.8073L35.5538 57.7746L34.5596 58.3486L33.7966 57.0271L38.1735 54.5001L37.5225 53.3725L32.9031 56.0395L32.3011 54.9968C32.2916 55.4657 32.2626 55.9567 32.2139 56.4697L35.8399 62.7502L34.5547 63.4922L31.8807 58.8607C31.832 59.0936 31.7809 59.3224 31.7275 59.5473C31.6775 59.7593 31.6114 59.9807 31.529 60.2115L30.0088 59.6504C30.1462 59.2909 30.2682 58.8864 30.375 58.4367C30.4772 57.979 30.5694 57.4947 30.6516 56.9838C30.7339 56.4729 30.7895 55.9719 30.8186 55.4809C30.8477 54.99 30.8567 54.5483 30.8457 54.1559L32.2995 54.238C32.2998 54.3132 32.3002 54.3885 32.3005 54.4637C32.3089 54.5343 32.3093 54.6095 32.3015 54.6894L35.175 53.0304L34.545 51.9393L32.0716 53.3673L31.3296 52.0821L33.803 50.6541L33.04 49.3325L34.3858 48.5555ZM28.2628 55.9542C28.4877 55.2424 28.7008 54.4728 28.902 53.6453C29.1032 52.8178 29.2443 51.9982 29.3252 51.1863L30.8406 51.4591C30.8168 51.8285 30.77 52.2327 30.7001 52.6718C30.6257 53.1028 30.539 53.5408 30.4403 53.9858C30.3369 54.4227 30.2248 54.8538 30.104 55.2792C29.9785 55.6965 29.8488 56.0786 29.7149 56.4253L28.2628 55.9542Z" fill="#4E95FF"/>
    <path d="M46.9458 44.6341L47.4568 45.5192L51.0941 43.4192L54.5101 49.3359L50.8728 51.4359L51.9928 53.3758L50.6713 54.1388L49.5513 52.1989L45.8897 54.3129L42.4737 48.3962L46.1353 46.2822L45.6243 45.3971L46.9458 44.6341ZM44.7161 43.8522L43.9333 43.1403L45.2361 42.0648C45.5381 42.2892 45.8821 42.5863 46.2681 42.9562L50.4873 40.5202L51.8033 42.7996L50.3848 43.6186L49.7758 42.5638L42.3678 46.8408L42.9768 47.8956L41.5825 48.7006L40.2665 46.4212L44.7161 43.8522ZM46.4679 52.3463L48.8443 50.9743L48.1653 49.7983L45.7889 51.1703L46.4679 52.3463ZM45.1029 49.9821L47.4793 48.6101L46.8003 47.434L44.4239 48.806L45.1029 49.9821ZM48.1218 46.671L48.8008 47.8471L51.1408 46.4961L50.4618 45.32L48.1218 46.671ZM52.5058 48.8603L51.8268 47.6843L49.4868 49.0353L50.1658 50.2113L52.5058 48.8603Z" fill="#4E95FF"/>
    <path d="M58.8724 40.3995C58.9622 40.2938 59.0329 40.1829 59.0845 40.0669C59.1441 39.9462 59.1842 39.8477 59.2047 39.7712C59.232 39.6692 59.2643 39.5104 59.3016 39.2949C59.3341 39.0714 59.3636 38.7957 59.3899 38.468C59.3973 38.3128 59.4054 38.1681 59.414 38.0337C59.4261 37.8867 59.4318 37.7379 59.4312 37.5874L57.7459 38.5604L57.0319 37.3237L59.6265 35.8257L59.3176 35.4867C59.0187 35.1743 58.7832 34.9438 58.6112 34.7953L59.8884 33.8154C59.9895 33.8971 60.0999 33.995 60.2197 34.1091C60.3394 34.2232 60.4708 34.3575 60.6139 34.512C60.7116 34.6065 60.7942 34.6935 60.8617 34.7731C60.9372 34.848 61.0064 34.9212 61.0693 34.9927L63.8579 33.3827L64.5719 34.6194L60.9346 36.7194C60.9352 36.8699 60.9302 37.0291 60.9193 37.197C60.9166 37.3602 60.9081 37.5322 60.8938 37.7128C60.8675 38.0406 60.841 38.3307 60.8144 38.5832C60.7911 38.8229 60.7498 39.0407 60.6905 39.2367C60.9722 39.0525 61.2474 38.8666 61.5163 38.679C61.7852 38.4915 62.0356 38.3092 62.2676 38.1322C62.302 37.7998 62.334 37.4633 62.3638 37.1228C62.3935 36.7823 62.4099 36.428 62.4129 36.0599L63.9063 36.0706C63.9053 37.6554 63.6939 39.1839 63.2721 40.656C62.8537 42.1154 62.2304 43.5745 61.4022 45.0334L60.0429 44.331C60.9379 42.8012 61.5443 41.4434 61.862 40.2577L61.9184 40.0473C61.8584 40.0928 61.7984 40.1382 61.7384 40.1836C61.6737 40.2209 61.609 40.2583 61.5444 40.2956C60.8207 40.7781 60.2285 41.1523 59.7677 41.4183L58.8724 40.3995ZM54.8731 39.6046L53.6551 37.495L54.9524 36.746L56.1704 38.8556L57.3465 38.1766L58.0955 39.474L56.9194 40.153L57.3464 40.8925C57.5713 40.946 57.8031 41.0115 58.0419 41.0891C58.2807 41.1668 58.5346 41.2519 58.8036 41.3445C59.0726 41.4371 59.308 41.5275 59.5099 41.6157C59.7198 41.6993 59.8978 41.7743 60.044 41.8408L59.6055 43.2094C59.32 43.0509 58.9181 42.8681 58.3997 42.6608C58.3742 42.654 58.3614 42.6506 58.3614 42.6506L61.4414 47.9853L60.1441 48.7343L57.1621 43.5693C57.2363 44.1085 57.2899 44.584 57.323 44.996C57.3515 45.3999 57.3688 45.794 57.3752 46.1783L56.0599 46.0001C56.0401 45.4619 56.008 44.893 55.9637 44.2936C55.9193 43.6941 55.8553 43.0791 55.7714 42.4485C55.739 42.187 55.7049 41.9319 55.669 41.6832C55.6285 41.4264 55.5846 41.1823 55.5373 40.951L54.24 41.7L53.491 40.4026L54.8731 39.6046ZM61.5305 46.5436C62.5624 45.0641 63.325 43.697 63.8183 42.4422C64.307 41.1793 64.5911 39.7113 64.6705 38.0381L66.086 38.11C66.0738 38.7421 66.025 39.3576 65.9397 39.9565C65.8625 40.5507 65.747 41.1347 65.5933 41.7084C65.7739 41.7227 65.9656 41.7467 66.1684 41.7806C66.3745 41.8016 66.5934 41.8261 66.8251 41.854C67.7355 41.975 68.4417 42.1062 68.9436 42.2475L68.7529 43.8772C68.4678 43.7939 68.1409 43.7132 67.7725 43.6349C67.404 43.5567 66.9915 43.4769 66.535 43.3956L65.1189 43.2109C64.8763 43.836 64.5805 44.4809 64.2315 45.1458C63.8825 45.8107 63.4666 46.5089 62.9836 47.2404L61.5305 46.5436Z" fill="#4E95FF"/>
    <path fill-rule="evenodd" clip-rule="evenodd" d="M78.6231 17.0407L5.87694 59.0407L5.37694 58.1746L78.1231 16.1746L78.6231 17.0407Z" fill="#4E95FF"/>
    <path fill-rule="evenodd" clip-rule="evenodd" d="M90.6231 37.8253L17.8769 79.8253L17.3769 78.9592L90.1231 36.9592L90.6231 37.8253Z" fill="#4E95FF"/>
    <path d="M60.9999 70.5167L60.5467 68.3847L62.4343 67.2949L60.2667 67.067L59.8135 64.935L58.927 66.9262L56.7593 66.6984L58.379 68.1568L57.4925 70.148L59.3801 69.0582L60.9999 70.5167Z" fill="#4E95FF"/>
    <path d="M70.5136 61.4419L69.524 59.4998L71.0653 57.9586L68.9125 58.2996L67.9229 56.3575L67.582 58.5103L65.4292 58.8513L67.3712 59.8408L67.0303 61.9936L68.5715 60.4524L70.5136 61.4419Z" fill="#4E95FF"/>
    <path d="M48.4981 72.0417L48.384 74.2183L47.1969 72.3904L45.0915 72.9545L46.4632 71.2606L45.2761 69.4326L47.311 70.2137L48.6826 68.5198L48.5686 70.6965L50.6034 71.4776L48.4981 72.0417Z" fill="#4E95FF"/>
    <path d="M34.9999 25.4833L36.6197 26.9418L38.5073 25.852L37.6208 27.8432L39.2405 29.3016L37.0729 29.0738L36.1863 31.065L35.7332 28.933L33.5655 28.7052L35.4531 27.6153L34.9999 25.4833Z" fill="#4E95FF"/>
    <path d="M47.6157 21.7817L48.8028 23.6096L50.9082 23.0455L49.5365 24.7394L50.7236 26.5674L48.6887 25.7863L47.3171 27.4802L47.4311 25.3035L45.3963 24.5224L47.5016 23.9583L47.6157 21.7817Z" fill="#4E95FF"/>
    <path d="M27.4283 35.5477L25.4862 34.5582L26.4757 36.5003L24.9345 38.0415L27.0873 37.7005L28.0768 39.6426L28.4178 37.4898L30.5706 37.1488L28.6285 36.1593L28.9695 34.0065L27.4283 35.5477Z" fill="#4E95FF"/>
    <path fill-rule="evenodd" clip-rule="evenodd" d="M31 18.5551C19.7475 25.0517 13.6135 37.0092 14.0127 49.1473L1.23323 56.5255C-0.0543432 57.2689 -0.10947 59.1074 1.13125 59.9266L12.5244 67.449C13.0497 67.7959 13.3811 68.3698 13.4188 68.9982L14.2368 82.6261C14.3259 84.1102 15.9457 84.9817 17.2332 84.2384L30.0127 76.8601C40.325 83.2749 53.7475 83.9414 65 77.4448C76.2526 70.9481 82.3866 58.9907 81.9874 46.8525L94.7666 39.4744C96.0542 38.731 96.1093 36.8925 94.8686 36.0734L83.4755 28.551C82.9501 28.2041 82.6188 27.6302 82.581 27.0018L81.763 13.3738C81.674 11.8897 80.0542 11.0182 78.7666 11.7616L65.9874 19.1397C55.6751 12.7249 42.2526 12.0584 31 18.5551ZM65.001 19.7092C55.0548 13.7444 42.256 13.2111 31.5 19.4211C20.7441 25.6311 14.8065 36.9817 14.9991 48.5778L19.0504 46.2388C19.6298 36.8581 24.751 27.9365 33.5 22.8852C42.2491 17.8339 52.5361 17.8597 60.9497 22.0482L65.001 19.7092ZM64.5 76.5788C53.7441 82.7887 40.9453 82.2555 30.9991 76.2906L35.0504 73.9516C43.464 78.1402 53.751 78.1659 62.5 73.1147C71.2491 68.0634 76.3703 59.1417 76.9497 49.761L81.001 47.422C81.1936 59.0181 75.256 70.3688 64.5 76.5788ZM62 72.2486C53.7598 77.0061 44.1066 77.0992 36.0977 73.347L75.9024 50.3657C75.1474 59.1777 70.2402 67.4911 62 72.2486ZM59.9024 22.6529L20.0977 45.6341C20.8526 36.8222 25.7598 28.5087 34 23.7512C42.2402 18.9937 51.8935 18.9007 59.9024 22.6529ZM79.2666 12.6276L1.73323 57.3916C1.08944 57.7633 1.06188 58.6825 1.68224 59.0921L13.0754 66.6145C13.8634 67.1348 14.3605 67.9957 14.417 68.9383L15.235 82.5662C15.2796 83.3083 16.0894 83.744 16.7332 83.3723L94.2666 38.6084C94.9104 38.2367 94.938 37.3175 94.3176 36.9079L82.9245 29.3855C82.1365 28.8652 81.6394 28.0043 81.5828 27.0617L80.7648 13.4338C80.7203 12.6917 79.9104 12.256 79.2666 12.6276Z" fill="#4E95FF"/>
</svg>
