<svg width="96" height="96" viewBox="0 0 96 96" fill="none" xmlns="http://www.w3.org/2000/svg">
    <path d="M33.9384 48.0818L34.7014 49.4034L37.3081 47.8984L38.0501 49.1835L35.4434 50.6885L36.0734 51.7797L39.25 49.9457L39.985 51.2188L38.4452 52.1078L39.0962 53.2354L40.4784 52.4374L41.2414 53.7589L39.8592 54.5569L41.1192 56.7393C41.2592 56.9818 41.3563 57.2059 41.4104 57.4118C41.4693 57.6257 41.4731 57.8282 41.4218 58.0195C41.3752 58.2188 41.2679 58.4155 41.0997 58.6096C40.9316 58.8037 40.6952 59.0102 40.3905 59.2292C40.1897 59.3667 39.9785 59.5048 39.7568 59.6436C39.5398 59.7904 39.3262 59.9245 39.1161 60.0458L38.0947 58.8088C38.3142 58.7036 38.5112 58.6061 38.6856 58.5162C38.86 58.4262 39.0297 58.3282 39.1948 58.2222C39.3645 58.1242 39.4932 58.0391 39.5809 57.9669C39.6686 57.8947 39.7186 57.8227 39.731 57.7509C39.7468 57.6663 39.7308 57.5732 39.6829 57.4715C39.643 57.3652 39.5741 57.2272 39.4761 57.0574L38.4891 55.3479L35.7005 56.9579C35.8361 56.9874 35.9723 57.0273 36.1091 57.0776C36.2494 57.1152 36.4047 57.1603 36.5751 57.2128C36.8603 57.296 37.1119 57.3771 37.3298 57.456C37.5432 57.5268 37.727 57.5931 37.8812 57.655L37.4018 59.1765C36.8069 58.9488 36.2729 58.7613 35.7999 58.6141C35.3269 58.4669 35.0035 58.3734 34.8297 58.3336L35.1064 57.3009L34.1122 57.8749L33.3492 56.5534L37.7261 54.0264L37.0751 52.8988L32.4557 55.5658L31.8537 54.5231C31.8443 54.992 31.8152 55.483 31.7665 55.996L35.3925 62.2765L34.1074 63.0185L31.4334 58.387C31.3846 58.6199 31.3335 58.8487 31.2801 59.0736C31.2301 59.2856 31.164 59.507 31.0816 59.7378L29.5614 59.1767C29.6988 58.8172 29.8208 58.4127 29.9277 57.963C30.0298 57.5053 30.122 57.021 30.2042 56.5101C30.2865 55.9992 30.3421 55.4982 30.3712 55.0072C30.4003 54.5163 30.4093 54.0746 30.3983 53.6822L31.8521 53.7643C31.8524 53.8395 31.8528 53.9147 31.8531 53.99C31.8615 54.0606 31.8619 54.1358 31.8541 54.2157L34.7276 52.5567L34.0976 51.4655L31.6242 52.8935L30.8822 51.6084L33.3556 50.1804L32.5926 48.8588L33.9384 48.0818ZM27.8154 55.4805C28.0403 54.7687 28.2534 53.9991 28.4546 53.1716C28.6558 52.3441 28.7969 51.5245 28.8778 50.7126L30.3932 50.9854C30.3694 51.3548 30.3226 51.759 30.2528 52.1981C30.1783 52.6291 30.0917 53.0671 29.9929 53.5121C29.8895 53.949 29.7774 54.3801 29.6566 54.8055C29.5311 55.2228 29.4014 55.6049 29.2675 55.9516L27.8154 55.4805Z" fill="#D4D5DB"/>
    <path d="M44.4425 45.7515C44.8303 44.9672 45.107 44.177 45.2725 43.381C45.4333 42.5768 45.5279 41.854 45.5563 41.2126L46.9237 41.005L46.8876 41.8665L50.1127 40.0045L50.7567 41.1199C50.6397 41.888 50.4681 42.6175 50.242 43.3085C50.0159 43.9995 49.6943 44.7025 49.2772 45.4174L50.0151 45.3794C50.0024 45.6562 49.9845 45.9144 49.9612 46.1541L53.0044 44.3971L53.6904 45.5853C53.6505 46.2442 53.5522 46.9045 53.3954 47.5663C53.2466 48.2233 53.0118 48.9085 52.6908 49.6219C52.3732 50.3226 51.9494 51.0631 51.4192 51.8434C50.9017 52.6271 50.256 53.4687 49.482 54.3682L48.2892 53.6181C49.7352 52.072 50.7152 50.7734 51.2291 49.7222C51.7431 48.6711 52.0809 47.5762 52.2425 46.4375L49.6964 47.9075L49.5362 48.5819L50.0679 48.6629C50.3089 48.707 50.5203 48.7466 50.7022 48.7816C50.8922 48.8121 51.0574 48.846 51.1976 48.8836L50.8408 50.2536C50.6959 50.2079 50.5237 50.1618 50.3244 50.1152C50.1204 50.0606 49.8933 50.0031 49.6429 49.9429L49.1476 49.8409C49.0469 50.1145 48.9382 50.3929 48.8214 50.6759C48.7126 50.9542 48.5877 51.2418 48.4466 51.5388L47.0921 51.1246C47.4948 50.3102 47.816 49.5319 48.0558 48.79C48.2957 48.048 48.4717 47.2889 48.584 46.5128C48.3609 46.8356 48.1192 47.1637 47.8591 47.4971C47.5989 47.8305 47.3145 48.178 47.0059 48.5394L45.7664 47.8485C46.7378 46.8243 47.5084 45.8351 48.0784 44.881C48.6564 43.9222 49.0544 42.9595 49.2724 41.9931L46.6535 43.5051L46.5394 44.0074L46.9877 44.0558C47.2066 44.0803 47.4006 44.1084 47.5698 44.14C47.7389 44.1717 47.8826 44.1965 48.0007 44.2145L47.5795 45.557C47.3165 45.4933 46.9607 45.4185 46.5123 45.3325L46.1508 45.2664C46.0971 45.416 46.0393 45.5679 45.9775 45.7221C45.9191 45.8636 45.8589 46.0115 45.7971 46.1657L44.4425 45.7515ZM39.5957 46.0926C40.1957 45.6385 40.7598 45.1781 41.2879 44.7115C41.8194 44.2322 42.3225 43.7316 42.7972 43.2097L44.0115 44.109C43.6544 44.4984 43.2441 44.9077 42.7806 45.337L43.6486 46.8404L44.9823 46.0704L45.6683 47.2586L44.3346 48.0286L44.5376 48.3802C45.1147 48.5212 45.6636 48.6785 46.1842 48.8521C46.7047 49.0258 47.1025 49.1733 47.3774 49.2948L47.0084 50.6718C46.8147 50.5789 46.5786 50.478 46.3003 50.3693C46.0301 50.2559 45.7645 50.1506 45.5036 50.0533L48.2196 54.7576L47.0314 55.4436L44.5464 51.1394C44.7059 52.1251 44.7874 52.9941 44.7907 53.7466L43.4619 53.657C43.4896 52.865 43.4553 52.0496 43.359 51.2107C43.2579 50.3638 43.1305 49.5644 42.9767 48.8126L41.5945 49.6106L40.9085 48.4224L42.4604 47.5264L41.7324 46.2654C41.5456 46.4272 41.3645 46.5802 41.1892 46.7246C41.0092 46.8608 40.839 46.986 40.6786 47.1002L39.5957 46.0926Z" fill="#D4D5DB"/>
    <path d="M58.4476 40.721C58.9561 41.0418 59.451 41.311 59.9325 41.5288C60.4139 41.7467 60.8823 41.9234 61.3379 42.0592C61.4584 41.5585 61.536 41.0395 61.5706 40.5022C61.6133 39.9602 61.6085 39.3918 61.5561 38.797L63.2029 38.5414C63.2845 39.9707 63.1911 41.2371 62.9229 42.3404C64.3588 42.4382 66.2103 42.1451 68.4775 41.4613L68.7929 43.2676C66.2117 43.8741 64.1451 44.1027 62.5932 43.9533C62.5307 43.9571 62.4675 43.9504 62.4038 43.9333C62.0841 44.6675 61.6263 45.4707 61.0305 46.3428C60.4347 47.2148 59.6905 48.1564 58.7978 49.1676L57.3656 48.0869C59.0656 46.3833 60.2154 44.8842 60.8151 43.5896C59.8181 43.2815 58.7659 42.7843 57.6584 42.0981L58.4476 40.721ZM60.2158 36.5317L53.4868 40.4167L52.7028 39.0587L57.2373 36.4407C57.056 36.276 56.8683 36.1095 56.6742 35.9414C56.4835 35.7605 56.3156 35.6096 56.1703 35.4887L57.5286 34.3973C57.696 34.5378 57.897 34.7181 58.1319 34.9381C58.3748 35.1536 58.5939 35.3557 58.7892 35.5447L63.1055 33.0527L63.8895 34.4107L60.3128 36.4757C60.6266 36.4777 60.9936 36.4975 61.414 36.535C61.8344 36.5725 62.3058 36.6237 62.8282 36.6885C63.3795 36.7474 63.8666 36.8164 64.2895 36.8956C64.7159 36.962 65.0861 37.0338 65.4001 37.1111L65.1712 38.7306C64.8478 38.6371 64.4914 38.5519 64.1021 38.4749C63.7128 38.3979 63.2227 38.3144 62.6319 38.2244C62.0747 38.1366 61.5795 38.0722 61.1463 38.0313C60.7132 37.9904 60.3374 37.9649 60.019 37.9547L60.2158 36.5317ZM55.1458 43.2901C55.5234 42.5441 55.851 41.7676 56.1287 40.9606C56.4099 40.1409 56.6257 39.348 56.7763 38.5822L58.3197 38.9035C58.1567 39.7412 57.9359 40.5908 57.6573 41.4522C57.3821 42.3008 57.0552 43.1253 56.6768 43.9258L55.1458 43.2901Z" fill="#D4D5DB"/>
    <path fill-rule="evenodd" clip-rule="evenodd" d="M78.623 17.0407L5.87688 59.0407L5.37688 58.1746L78.123 16.1746L78.623 17.0407Z" fill="#D4D5DB"/>
    <path fill-rule="evenodd" clip-rule="evenodd" d="M90.623 37.8253L17.8769 79.8253L17.3769 78.9592L90.123 36.9592L90.623 37.8253Z" fill="#D4D5DB"/>
    <path d="M60.9998 70.5167L60.5467 68.3847L62.4343 67.2949L60.2666 67.067L59.8134 64.935L58.9269 66.9262L56.7592 66.6984L58.379 68.1568L57.4925 70.148L59.3801 69.0582L60.9998 70.5167Z" fill="#D4D5DB"/>
    <path d="M70.5135 61.4419L69.524 59.4998L71.0652 57.9586L68.9124 58.2996L67.9229 56.3575L67.5819 58.5103L65.4291 58.8513L67.3712 59.8408L67.0302 61.9936L68.5714 60.4524L70.5135 61.4419Z" fill="#D4D5DB"/>
    <path d="M48.498 72.0417L48.3839 74.2183L47.1968 72.3904L45.0915 72.9545L46.4632 71.2606L45.276 69.4326L47.3109 70.2137L48.6826 68.5198L48.5685 70.6965L50.6034 71.4776L48.498 72.0417Z" fill="#D4D5DB"/>
    <path d="M34.9998 25.4833L36.6196 26.9418L38.5072 25.852L37.6207 27.8432L39.2405 29.3016L37.0728 29.0738L36.1863 31.065L35.7331 28.933L33.5654 28.7052L35.453 27.6153L34.9998 25.4833Z" fill="#D4D5DB"/>
    <path d="M47.6156 21.7817L48.8027 23.6096L50.9081 23.0455L49.5364 24.7394L50.7235 26.5674L48.6887 25.7863L47.317 27.4802L47.4311 25.3035L45.3962 24.5224L47.5016 23.9583L47.6156 21.7817Z" fill="#D4D5DB"/>
    <path d="M27.4282 35.5477L25.4861 34.5582L26.4757 36.5003L24.9344 38.0415L27.0872 37.7005L28.0768 39.6426L28.4177 37.4898L30.5705 37.1488L28.6285 36.1593L28.9694 34.0065L27.4282 35.5477Z" fill="#D4D5DB"/>
    <path fill-rule="evenodd" clip-rule="evenodd" d="M31 18.5551C19.7475 25.0517 13.6134 37.0092 14.0126 49.1473L1.23317 56.5255C-0.0544043 57.2689 -0.109531 59.1074 1.13119 59.9266L12.5243 67.449C13.0497 67.7959 13.3811 68.3698 13.4188 68.9982L14.2368 82.6261C14.3258 84.1102 15.9456 84.9817 17.2332 84.2384L30.0126 76.8601C40.3249 83.2749 53.7474 83.9414 65 77.4448C76.2525 70.9481 82.3866 58.9907 81.9873 46.8525L94.7666 39.4744C96.0541 38.731 96.1093 36.8925 94.8686 36.0734L83.4754 28.551C82.9501 28.2041 82.6187 27.6302 82.581 27.0018L81.763 13.3738C81.6739 11.8897 80.0541 11.0182 78.7666 11.7616L65.9873 19.1397C55.675 12.7249 42.2525 12.0584 31 18.5551ZM65.0009 19.7092C55.0547 13.7444 42.2559 13.2111 31.5 19.4211C20.744 25.6311 14.8064 36.9817 14.999 48.5778L19.0503 46.2388C19.6297 36.8581 24.7509 27.9365 33.5 22.8852C42.249 17.8339 52.536 17.8597 60.9496 22.0482L65.0009 19.7092ZM64.5 76.5788C53.744 82.7887 40.9453 82.2555 30.999 76.2906L35.0503 73.9516C43.4639 78.1402 53.7509 78.1659 62.5 73.1147C71.249 68.0634 76.3703 59.1417 76.9496 49.761L81.0009 47.422C81.1935 59.0181 75.2559 70.3688 64.5 76.5788ZM62 72.2486C53.7598 77.0061 44.1065 77.0992 36.0976 73.347L75.9023 50.3657C75.1474 59.1777 70.2402 67.4911 62 72.2486ZM59.9023 22.6529L20.0976 45.6341C20.8526 36.8222 25.7598 28.5087 34 23.7512C42.2402 18.9937 51.8934 18.9007 59.9023 22.6529ZM79.2666 12.6276L1.73317 57.3916C1.08938 57.7633 1.06182 58.6825 1.68218 59.0921L13.0753 66.6145C13.8633 67.1348 14.3604 67.9957 14.417 68.9383L15.235 82.5662C15.2795 83.3083 16.0894 83.744 16.7332 83.3723L94.2666 38.6084C94.9104 38.2367 94.9379 37.3175 94.3176 36.9079L82.9244 29.3855C82.1364 28.8652 81.6393 28.0043 81.5828 27.0617L80.7648 13.4338C80.7202 12.6917 79.9104 12.256 79.2666 12.6276Z" fill="#D4D5DB"/>
</svg>
