<svg width="96" height="96" viewBox="0 0 96 96" fill="none" xmlns="http://www.w3.org/2000/svg">
<path fill-rule="evenodd" clip-rule="evenodd" d="M56.4074 36.1254L57.1233 37.3933C57.2117 37.7518 57.3018 38.1039 57.3937 38.4497C57.4855 38.7954 57.571 39.1394 57.6501 39.4817C58.0674 38.5618 58.3677 37.6448 58.5512 36.7306C58.7428 35.8117 58.8179 34.8684 58.7765 33.9008L59.9526 33.2218C60.699 33.6746 61.5475 34.0523 62.4981 34.3548C63.4441 34.6493 64.4389 34.8509 65.4824 34.9597L65.2497 36.5167C64.732 36.4599 64.2379 36.3788 63.7674 36.2732L64.2154 37.0492L62.6635 37.9452L63.2655 38.9879L65.9813 37.4199L66.7513 38.7536L64.0355 40.3215L65.6245 43.0738C65.7645 43.3163 65.865 43.5277 65.926 43.708C65.987 43.8883 66.0033 44.0567 65.9751 44.2131C65.9515 44.3776 65.8752 44.5348 65.7462 44.6847C65.63 44.838 65.4536 44.9992 65.217 45.1681C65.0728 45.2729 64.902 45.3877 64.7045 45.5125C64.5199 45.6406 64.3346 45.7584 64.1487 45.8657L63.119 44.6981C63.2334 44.6536 63.3512 44.5964 63.4724 44.5264C63.6064 44.4598 63.7358 44.3851 63.8604 44.3024C63.9897 44.2277 64.0861 44.1613 64.1495 44.1031C64.2257 44.0484 64.2723 43.9891 64.2894 43.9254C64.3111 43.8697 64.3074 43.8072 64.2781 43.7379C64.2523 43.6558 64.2044 43.5542 64.1344 43.4329L62.7624 41.0566L60.3618 42.4426L59.5918 41.1089L61.9924 39.7229L61.3904 38.6802L59.8991 39.5412L59.5141 38.8743C59.4467 39.0749 59.3752 39.2778 59.2997 39.4831C59.2277 39.6756 59.1475 39.8727 59.0593 40.0746L57.6538 39.5442L57.8631 40.5227C58.4387 40.8477 58.941 41.2044 59.3699 41.5926C59.7942 41.9727 60.1503 42.403 60.4384 42.8833C60.6437 43.2389 60.7898 43.548 60.8767 43.8104C60.9635 44.0728 60.9923 44.3094 60.9632 44.5202C60.934 44.731 60.8498 44.9305 60.7106 45.1187C60.5747 45.2941 60.3828 45.475 60.1347 45.6613C60.0632 45.7241 59.9732 45.7923 59.8647 45.8657C59.7516 45.931 59.6523 45.983 59.5668 46.0216L58.5753 44.8642C58.6365 44.8397 58.722 44.8011 58.8318 44.7485C58.9415 44.6959 59.0206 44.6556 59.0691 44.6276C59.1985 44.553 59.2925 44.4825 59.3512 44.4162C59.4181 44.3453 59.453 44.2659 59.4561 44.1779C59.4545 44.0818 59.4228 43.9708 59.3608 43.8449C59.3023 43.7062 59.2124 43.5318 59.0911 43.3217C58.9172 43.0018 58.6546 42.6684 58.3035 42.3215C57.9476 41.9665 57.46 41.6445 56.8405 41.3556C56.7119 40.8155 56.5665 40.2744 56.4044 39.7321C56.2503 39.1852 56.0794 38.6373 55.8917 38.0882L54.8369 38.6972L60.3249 48.2027L59.1125 48.9027L52.9035 38.1484L56.4074 36.1254ZM60.2227 35.0057C60.2132 35.4746 60.1772 35.9535 60.1145 36.4423C60.0472 36.923 59.9395 37.4271 59.7913 37.9545L63.0164 36.0925C62.9271 36.0686 62.8402 36.0487 62.7557 36.0329C62.6745 36.0043 62.591 35.9717 62.5052 35.935C62.0577 35.7946 61.6432 35.646 61.2616 35.4891C60.88 35.3322 60.5337 35.171 60.2227 35.0057Z" fill="#B1B2BD"/>
<path d="M61.1232 46.1414C61.1775 45.8621 61.2196 45.5523 61.2493 45.2118C61.279 44.8713 61.3001 44.5251 61.3124 44.1731C61.3201 43.813 61.3173 43.4536 61.3041 43.0948C61.2909 42.7359 61.2727 42.3962 61.2492 42.0757L62.7473 41.9544C62.7889 42.7171 62.798 43.4609 62.7746 44.1857C62.7465 44.9024 62.6836 45.5961 62.5859 46.2668L61.1232 46.1414Z" fill="#B1B2BD"/>
<path d="M65.3421 39.7288C65.8245 39.8922 66.4491 40.162 67.216 40.5383C67.6034 40.7242 67.944 40.894 68.2376 41.0478C68.5392 41.197 68.7962 41.3342 69.0087 41.4594L68.379 42.7767C68.17 42.6387 67.9227 42.4905 67.6372 42.332C67.3517 42.1735 67.024 42.0071 66.6539 41.8328C66.2791 41.6504 65.9456 41.4927 65.6533 41.3597C65.3563 41.2187 65.0924 41.107 64.8617 41.0246L65.3421 39.7288Z" fill="#B1B2BD"/>
<path fill-rule="evenodd" clip-rule="evenodd" d="M48.8865 45.8347L49.4442 45.5127L50.1442 46.7251L49.5865 47.0471L51.7145 50.7329C51.8872 51.032 52.011 51.2838 52.086 51.4884C52.1657 51.701 52.2018 51.8849 52.1944 52.0401C52.1951 52.1906 52.1488 52.3251 52.0555 52.4436C51.975 52.5655 51.8569 52.6876 51.7012 52.8098C51.5489 52.9193 51.4185 53.0108 51.31 53.0842C51.2015 53.1576 51.0745 53.2363 50.929 53.3203L49.9655 52.2115C50.088 52.1624 50.1856 52.1168 50.2584 52.0748C50.3358 52.0409 50.4149 52.0006 50.4957 51.9539C50.6493 51.8652 50.7346 51.789 50.7517 51.7253C50.7722 51.6488 50.7288 51.5176 50.6214 51.3317L48.5074 47.6701L47.8649 48.0411C48.6246 49.413 49.152 50.4665 49.447 51.2015C49.6191 51.6302 49.7588 52.0776 49.8663 52.5436C49.9737 53.0097 50.0534 53.5025 50.1055 54.0221L48.8127 54.2189C48.8055 54.1691 48.8007 54.1234 48.7982 54.0817L48.7907 53.9567C48.736 54.1607 48.5772 54.371 48.3142 54.5875C48.1862 54.683 48.0598 54.7721 47.9351 54.8548C47.8186 54.9329 47.6875 55.014 47.542 55.098L46.5715 53.977C46.694 53.9279 46.79 53.8887 46.8593 53.8594L47.0896 53.7264C47.2479 53.6458 47.3332 53.5696 47.3456 53.4978C47.3534 53.4179 47.3036 53.285 47.1963 53.0991L45.1733 49.5951L44.567 49.9451C44.9615 50.6657 45.2896 51.29 45.5513 51.8179C45.813 52.3458 46.0112 52.7918 46.1459 53.1558C46.2959 53.565 46.4142 54.0032 46.5008 54.4705C46.5874 54.9378 46.651 55.44 46.6916 55.977L45.3325 56.115C45.3047 55.5814 45.2451 55.0769 45.1539 54.6015C45.0626 54.1261 44.9449 53.6983 44.8008 53.3181C44.6919 53.0361 44.5236 52.6699 44.2958 52.2194C44.0681 51.7689 43.7826 51.2278 43.4395 50.5961L42.7241 51.0091L42.0241 49.7967L42.7516 49.3767L40.3646 45.2423L43.1774 43.6183L45.5644 47.7527L46.0615 47.4657L43.6745 43.3313L46.4995 41.7003L48.8865 45.8347ZM47.177 46.8217L47.8074 46.4577L46.1134 43.5236L45.483 43.8876L47.177 46.8217ZM43.8792 48.7257L44.4733 48.3827L42.7793 45.4486L42.1852 45.7916L43.8792 48.7257ZM48.2944 52.4812C48.4951 52.8287 48.6329 53.1048 48.7079 53.3094C48.6578 52.9612 48.588 52.635 48.4987 52.3309C48.4047 52.0188 48.2992 51.724 48.1822 51.4467C48.0512 51.1452 47.8654 50.7674 47.6249 50.3135C47.3878 49.8469 47.096 49.3041 46.7494 48.6851L46.2644 48.9651L48.2944 52.4812Z" fill="#B1B2BD"/>
<path d="M52.8068 50.7489C53.0263 50.6437 53.2169 50.5445 53.3786 50.4511C53.553 50.3612 53.725 50.2673 53.8948 50.1693C54.1454 50.0246 54.282 49.8972 54.3046 49.7871C54.3401 49.6805 54.2831 49.4978 54.1338 49.2392L48.7858 39.9762L49.9376 39.3112L55.2856 48.5742C55.4676 48.8894 55.599 49.1638 55.68 49.3973C55.769 49.6261 55.8023 49.8332 55.78 50.0185C55.7657 50.1991 55.6964 50.3685 55.5721 50.5265C55.4605 50.6879 55.2865 50.853 55.0499 51.022C54.8214 51.1862 54.5859 51.3383 54.3434 51.4783C54.1137 51.6217 53.9203 51.7442 53.7633 51.8456L52.8068 50.7489Z" fill="#B1B2BD"/>
<path d="M48.8025 41.4052L52.8975 48.498L51.8306 49.114L47.7356 42.0212L48.8025 41.4052Z" fill="#B1B2BD"/>
<path d="M31.5127 55.5583L30.6797 54.1155L29.249 54.9415L32.707 60.9309C32.945 61.3431 33.1652 61.6686 33.3677 61.9074C33.5702 62.1461 33.7828 62.309 34.0055 62.396C34.2362 62.4783 34.4898 62.4881 34.7662 62.4256C35.0426 62.363 35.3737 62.2365 35.7595 62.046C35.9258 61.9608 36.1568 61.8382 36.4525 61.6783C36.7562 61.5137 37.094 61.3241 37.4658 61.1094L38.6419 60.4304C39.0622 60.1878 39.464 59.9504 39.8473 59.7183C40.2434 59.4896 40.6088 59.2733 40.9436 59.0692C41.2831 58.8732 41.5637 58.7058 41.7853 58.567C42.0716 58.391 42.3059 58.218 42.488 58.0482C42.6783 57.8737 42.8105 57.6734 42.8848 57.4473C42.9637 57.2293 42.9816 56.9711 42.9386 56.6726C42.9003 56.3822 42.7997 56.0307 42.637 55.6181C42.5726 55.4506 42.4831 55.249 42.3686 55.0133C42.2622 54.773 42.1424 54.5188 42.0092 54.2508L40.3144 54.6474C40.4382 54.8992 40.5597 55.147 40.6789 55.3907C40.7981 55.6344 40.8893 55.8297 40.9524 55.9764C41.0355 56.1763 41.0935 56.3422 41.1265 56.474C41.1549 56.5978 41.1594 56.7083 41.1402 56.8056C41.1163 56.8949 41.0645 56.9733 40.9849 57.0408C40.9134 57.1036 40.8154 57.1764 40.6907 57.2591C39.8445 57.7908 38.9688 58.318 38.0635 58.8406C37.1663 59.3586 36.2921 59.8418 35.4409 60.2901C35.226 60.4034 35.051 60.4829 34.9158 60.5286C34.7886 60.5697 34.6717 60.5725 34.565 60.5371C34.4618 60.489 34.3601 60.3968 34.2599 60.2607C34.1551 60.1164 34.028 59.915 33.8787 59.6563L32.3107 56.9405L39.7671 52.6355L36.7291 47.3735L27.7086 52.5815L28.5066 53.9637L36.0965 49.5817L37.5385 52.0793L31.5127 55.5583Z" fill="#B1B2BD"/>
<path fill-rule="evenodd" clip-rule="evenodd" d="M78.623 17.0407L5.87688 59.0407L5.37688 58.1746L78.123 16.1746L78.623 17.0407Z" fill="#B1B2BD"/>
<path fill-rule="evenodd" clip-rule="evenodd" d="M90.623 37.8253L17.8769 79.8253L17.3769 78.9592L90.123 36.9592L90.623 37.8253Z" fill="#B1B2BD"/>
<path d="M60.9998 70.5167L60.5467 68.3847L62.4343 67.2949L60.2666 67.067L59.8134 64.935L58.9269 66.9262L56.7592 66.6984L58.379 68.1568L57.4925 70.148L59.3801 69.0582L60.9998 70.5167Z" fill="#B1B2BD"/>
<path d="M70.5135 61.4419L69.524 59.4998L71.0652 57.9586L68.9124 58.2996L67.9229 56.3575L67.5819 58.5103L65.4291 58.8513L67.3712 59.8408L67.0302 61.9936L68.5714 60.4524L70.5135 61.4419Z" fill="#B1B2BD"/>
<path d="M48.498 72.0417L48.3839 74.2183L47.1968 72.3904L45.0915 72.9545L46.4632 71.2606L45.276 69.4326L47.3109 70.2137L48.6826 68.5198L48.5685 70.6965L50.6034 71.4776L48.498 72.0417Z" fill="#B1B2BD"/>
<path d="M34.9998 25.4833L36.6196 26.9418L38.5072 25.852L37.6207 27.8432L39.2405 29.3016L37.0728 29.0738L36.1863 31.065L35.7331 28.933L33.5654 28.7052L35.453 27.6153L34.9998 25.4833Z" fill="#B1B2BD"/>
<path d="M47.6156 21.7817L48.8027 23.6096L50.9081 23.0455L49.5364 24.7394L50.7235 26.5674L48.6887 25.7863L47.317 27.4802L47.4311 25.3035L45.3962 24.5224L47.5016 23.9583L47.6156 21.7817Z" fill="#B1B2BD"/>
<path d="M27.4282 35.5477L25.4861 34.5582L26.4757 36.5003L24.9344 38.0415L27.0872 37.7005L28.0768 39.6426L28.4177 37.4898L30.5705 37.1488L28.6285 36.1593L28.9694 34.0065L27.4282 35.5477Z" fill="#B1B2BD"/>
<path fill-rule="evenodd" clip-rule="evenodd" d="M31 18.5551C19.7475 25.0517 13.6134 37.0092 14.0126 49.1473L1.23317 56.5255C-0.0544043 57.2689 -0.109531 59.1074 1.13119 59.9266L12.5243 67.449C13.0497 67.7959 13.3811 68.3698 13.4188 68.9982L14.2368 82.6261C14.3258 84.1102 15.9456 84.9817 17.2332 84.2384L30.0126 76.8601C40.3249 83.2749 53.7474 83.9414 65 77.4448C76.2525 70.9481 82.3866 58.9907 81.9873 46.8525L94.7666 39.4744C96.0541 38.731 96.1093 36.8925 94.8686 36.0734L83.4754 28.551C82.9501 28.2041 82.6187 27.6302 82.581 27.0018L81.763 13.3738C81.6739 11.8897 80.0541 11.0182 78.7666 11.7616L65.9873 19.1397C55.675 12.7249 42.2525 12.0584 31 18.5551ZM65.0009 19.7092C55.0547 13.7444 42.2559 13.2111 31.5 19.4211C20.744 25.6311 14.8064 36.9817 14.999 48.5778L19.0503 46.2388C19.6297 36.8581 24.7509 27.9365 33.5 22.8852C42.249 17.8339 52.536 17.8597 60.9496 22.0482L65.0009 19.7092ZM64.5 76.5788C53.744 82.7887 40.9453 82.2555 30.999 76.2906L35.0503 73.9516C43.4639 78.1402 53.7509 78.1659 62.5 73.1147C71.249 68.0634 76.3703 59.1417 76.9496 49.761L81.0009 47.422C81.1935 59.0181 75.2559 70.3688 64.5 76.5788ZM62 72.2486C53.7598 77.0061 44.1065 77.0992 36.0976 73.347L75.9023 50.3657C75.1474 59.1777 70.2402 67.4911 62 72.2486ZM59.9023 22.6529L20.0976 45.6341C20.8526 36.8222 25.7598 28.5087 34 23.7512C42.2402 18.9937 51.8934 18.9007 59.9023 22.6529ZM79.2666 12.6276L1.73317 57.3916C1.08938 57.7633 1.06182 58.6825 1.68218 59.0921L13.0753 66.6145C13.8633 67.1348 14.3604 67.9957 14.417 68.9383L15.235 82.5662C15.2795 83.3083 16.0894 83.744 16.7332 83.3723L94.2666 38.6084C94.9104 38.2367 94.9379 37.3175 94.3176 36.9079L82.9244 29.3855C82.1364 28.8652 81.6393 28.0043 81.5828 27.0617L80.7648 13.4338C80.7202 12.6917 79.9104 12.256 79.2666 12.6276Z" fill="#B1B2BD"/>
</svg>
