<svg width="96" height="96" viewBox="0 0 96 96" fill="none" xmlns="http://www.w3.org/2000/svg">
    <path d="M30.6271 54.5893L31.4601 56.0321L37.4859 52.5531L36.0439 50.0555L28.4541 54.4375L27.6561 53.0553L36.6766 47.8473L39.7146 53.1092L32.2581 57.4142L33.8261 60.1301C33.9754 60.3888 34.1025 60.5902 34.2074 60.7344C34.3075 60.8706 34.4092 60.9628 34.5125 61.0109C34.6191 61.0463 34.7361 61.0435 34.8632 61.0024C34.9985 60.9567 35.1735 60.8772 35.3883 60.7639C36.2395 60.3156 37.1137 59.8324 38.0109 59.3144C38.9162 58.7917 39.792 58.2646 40.6382 57.7329C40.7628 57.6502 40.8609 57.5774 40.9324 57.5145C41.012 57.447 41.0637 57.3687 41.0876 57.2794C41.1069 57.1821 41.1023 57.0716 41.074 56.9478C41.041 56.816 40.983 56.6501 40.8999 56.4502C40.8367 56.3035 40.7455 56.1082 40.6264 55.8645C40.5072 55.6208 40.3857 55.373 40.2619 55.1212L41.9567 54.7246C42.0898 54.9926 42.2096 55.2468 42.316 55.4871C42.4305 55.7227 42.52 55.9244 42.5844 56.0919C42.7472 56.5045 42.8477 56.856 42.8861 57.1464C42.9291 57.4449 42.9111 57.7031 42.8322 57.9211C42.758 58.1472 42.6257 58.3475 42.4355 58.522C42.2533 58.6918 42.0191 58.8648 41.7328 59.0408C41.5111 59.1796 41.2305 59.347 40.8911 59.543C40.5562 59.747 40.1908 59.9634 39.7947 60.1921C39.4114 60.4242 39.0096 60.6615 38.5893 60.9042C38.1771 61.1422 37.7851 61.3685 37.4132 61.5832C37.0414 61.7979 36.7037 61.9875 36.3999 62.1521C36.1043 62.312 35.8733 62.4346 35.707 62.5198C35.3212 62.7103 34.99 62.8368 34.7136 62.8993C34.4372 62.9619 34.1837 62.9521 33.9529 62.8697C33.7303 62.7827 33.5177 62.6199 33.3152 62.3811C33.1127 62.1424 32.8924 61.8169 32.6544 61.4047L29.1964 55.4153L30.6271 54.5893Z" fill="#1FD59E"/>
    <path d="M49.6976 40.2164L50.3206 41.2955C50.1109 41.7722 49.8959 42.2304 49.6756 42.6702C49.4553 43.1099 49.2094 43.5428 48.9381 43.9689L51.3145 42.5969L54.3175 47.7982C54.4435 48.0165 54.5347 48.2117 54.591 48.384C54.6554 48.5515 54.6752 48.7072 54.6504 48.8508C54.6256 48.9945 54.5567 49.1366 54.4439 49.2772C54.3392 49.4131 54.183 49.5626 53.9753 49.7255C53.8357 49.8385 53.6592 49.962 53.4456 50.096C53.2401 50.2255 53.0623 50.3281 52.9121 50.404L51.9645 49.3507C52.2452 49.221 52.4907 49.0954 52.7008 48.9741C52.9063 48.8447 53.0217 48.7458 53.0468 48.6774C53.0673 48.6009 53.0192 48.4616 52.9026 48.2595L52.7626 48.017L51.1864 48.927L52.1104 50.5274L50.8737 51.2414L49.9497 49.641L48.4099 50.53L49.4599 52.3487L48.4779 52.9157C49.0633 52.8471 49.6478 52.6928 50.2314 52.4529C50.815 52.213 51.4168 51.9301 52.0371 51.6044C52.6088 51.3066 53.2537 50.9397 53.9718 50.5035C54.698 50.0627 55.4224 49.5906 56.1448 49.0873L56.6112 50.4831C56.0041 50.8875 55.3553 51.2944 54.6648 51.7038C53.9825 52.1086 53.3069 52.4878 52.6382 52.8416C51.5802 53.3985 50.5673 53.8001 49.5995 54.0464C48.6363 54.3007 47.6616 54.3299 46.6756 54.134L46.4715 56.2726L44.9962 56.0413L45.3979 53.433L43.5429 50.22L42.4032 50.878L41.6542 49.5807L44.0791 48.1807L46.746 52.8001C46.9755 52.8616 47.2061 52.9063 47.4378 52.9342C47.6648 52.954 47.8928 52.9571 48.122 52.9433L44.44 46.5659L46.9255 45.1309C46.5897 45.1092 46.2602 45.0893 45.9372 45.071C45.6141 45.0528 45.3293 45.0448 45.0827 45.0471L45.109 44.3367L43.7269 45.1347L43.0899 44.0314L49.6976 40.2164ZM40.9442 44.963C41.1159 45.0364 41.3311 45.1384 41.5898 45.2693C41.8567 45.3954 42.1281 45.5297 42.4043 45.672C42.6839 45.8015 42.9513 45.9381 43.2067 46.0817C43.4573 46.2172 43.6564 46.3286 43.8038 46.4159L43.058 47.7841C42.8965 47.6726 42.6858 47.5409 42.4258 47.3893C42.1739 47.233 41.9076 47.0796 41.6267 46.9292C41.354 46.7741 41.0906 46.6352 40.8365 46.5125C40.5905 46.3851 40.3944 46.2881 40.2483 46.2216L40.9442 44.963ZM50.5354 47.7995L52.1116 46.8895L51.7126 46.1984L50.1364 47.1084L50.5354 47.7995ZM47.7589 49.4025L49.2987 48.5135L48.8997 47.8224L47.3599 48.7114L47.7589 49.4025ZM49.1214 45.3503L49.5064 46.0172L51.0826 45.1072L50.6976 44.4403L49.1214 45.3503ZM46.7299 47.6202L48.2697 46.7312L47.8847 46.0643L46.3449 46.9533L46.7299 47.6202ZM45.8486 43.9097C46.108 43.9109 46.38 43.9155 46.6648 43.9235C46.9497 43.9314 47.2368 43.9435 47.5263 43.9596C47.6631 43.7297 47.7911 43.4941 47.9104 43.2528C48.0378 43.0068 48.1669 42.7545 48.2978 42.4957L45.8486 43.9097Z" fill="#1FD59E"/>
    <path d="M58.3494 45.7937L56.5574 42.6899L55.1268 43.5159L54.3708 42.2065L57.1594 40.5965L59.7004 44.9976C60.1976 45.1308 60.7245 45.1661 61.281 45.1034C61.8376 45.0408 62.4672 44.8713 63.1698 44.5949C63.8725 44.3186 64.6683 43.9237 65.5575 43.4104C66.4547 42.8924 67.4821 42.2453 68.6398 41.4692L69.1762 42.9862C67.8696 43.8591 66.7347 44.5628 65.7716 45.0973C64.8166 45.6272 63.9727 46.0228 63.2399 46.2842C62.5198 46.5491 61.8809 46.7024 61.3231 46.7443C60.7653 46.7861 60.232 46.7491 59.7233 46.6333C59.6242 47.003 59.5223 47.3959 59.4177 47.812C59.3258 48.2315 59.2454 48.6336 59.1765 49.0182L57.6829 48.5873L58.3494 45.7937ZM62.0951 42.6774C62.3631 42.5442 62.6085 42.4187 62.8314 42.3008C63.0624 42.1782 63.2547 42.0726 63.4083 41.9839C63.6507 41.8439 63.8384 41.7302 63.9711 41.6428C64.0992 41.5473 64.1775 41.4589 64.2061 41.3778C64.2381 41.2839 64.2278 41.182 64.1752 41.0723C64.1307 40.9579 64.0525 40.8037 63.9405 40.6097L61.8195 36.936L57.6002 39.372L56.8372 38.0504L61.0565 35.6144L59.9785 33.7473L61.3485 32.9563L62.4265 34.8235L63.9421 33.9485L64.7051 35.27L63.1895 36.145L65.4645 40.0854C65.6652 40.433 65.8211 40.731 65.9321 40.9794C66.0432 41.2278 66.0721 41.4644 66.0187 41.6892C65.9733 41.9094 65.8343 42.1352 65.6014 42.3666C65.3686 42.598 65.011 42.8745 64.5285 43.1962C64.3519 43.3197 64.1568 43.4485 63.9433 43.5826C63.7331 43.7039 63.501 43.8433 63.2471 44.0007L62.0951 42.6774ZM58.9717 38.9196C59.4307 39.0426 60.0035 39.2507 60.6902 39.5441C61.0497 39.6814 61.3652 39.8172 61.6367 39.9514C61.9162 40.081 62.1576 40.2003 62.3606 40.3094L61.7869 41.7237C61.1208 41.3539 60.5175 41.0556 59.977 40.8288C59.4318 40.5939 58.9158 40.3907 58.4288 40.2192L58.9717 38.9196ZM53.7769 37.5379C53.9809 37.5926 54.2174 37.6662 54.4864 37.7588C54.7507 37.8433 55.0475 37.9467 55.3769 38.0691C56.0402 38.322 56.5552 38.542 56.9218 38.729L56.3328 40.2008C56.1552 40.0985 55.9376 39.9924 55.6801 39.8824C55.4261 39.7597 55.1384 39.6348 54.8172 39.5077C54.1479 39.2259 53.6302 39.0291 53.2638 38.9172L53.7769 37.5379Z" fill="#1FD59E"/>
    <path fill-rule="evenodd" clip-rule="evenodd" d="M78.6231 17.0407L5.87694 59.0407L5.37694 58.1746L78.1231 16.1746L78.6231 17.0407Z" fill="#1FD59E"/>
    <path fill-rule="evenodd" clip-rule="evenodd" d="M90.6231 37.8253L17.8769 79.8253L17.3769 78.9592L90.1231 36.9592L90.6231 37.8253Z" fill="#1FD59E"/>
    <path d="M60.9999 70.5167L60.5467 68.3847L62.4343 67.2949L60.2667 67.067L59.8135 64.935L58.927 66.9262L56.7593 66.6984L58.379 68.1568L57.4925 70.148L59.3801 69.0582L60.9999 70.5167Z" fill="#1FD59E"/>
    <path d="M70.5136 61.4419L69.524 59.4998L71.0653 57.9586L68.9125 58.2996L67.9229 56.3575L67.582 58.5103L65.4292 58.8513L67.3712 59.8408L67.0303 61.9936L68.5715 60.4524L70.5136 61.4419Z" fill="#1FD59E"/>
    <path d="M48.4981 72.0417L48.384 74.2183L47.1969 72.3904L45.0915 72.9545L46.4632 71.2606L45.2761 69.4326L47.311 70.2137L48.6826 68.5198L48.5686 70.6965L50.6034 71.4776L48.4981 72.0417Z" fill="#1FD59E"/>
    <path d="M34.9999 25.4833L36.6197 26.9418L38.5073 25.852L37.6208 27.8432L39.2405 29.3016L37.0729 29.0738L36.1863 31.065L35.7332 28.933L33.5655 28.7052L35.4531 27.6153L34.9999 25.4833Z" fill="#1FD59E"/>
    <path d="M47.6157 21.7817L48.8028 23.6096L50.9082 23.0455L49.5365 24.7394L50.7236 26.5674L48.6887 25.7863L47.3171 27.4802L47.4311 25.3035L45.3963 24.5224L47.5016 23.9583L47.6157 21.7817Z" fill="#1FD59E"/>
    <path d="M27.4283 35.5477L25.4862 34.5582L26.4757 36.5003L24.9345 38.0415L27.0873 37.7005L28.0768 39.6426L28.4178 37.4898L30.5706 37.1488L28.6285 36.1593L28.9695 34.0065L27.4283 35.5477Z" fill="#1FD59E"/>
    <path fill-rule="evenodd" clip-rule="evenodd" d="M31 18.5551C19.7475 25.0517 13.6135 37.0092 14.0127 49.1473L1.23323 56.5255C-0.0543432 57.2689 -0.10947 59.1074 1.13125 59.9266L12.5244 67.449C13.0497 67.7959 13.3811 68.3698 13.4188 68.9982L14.2368 82.6261C14.3259 84.1102 15.9457 84.9817 17.2332 84.2384L30.0127 76.8601C40.325 83.2749 53.7475 83.9414 65 77.4448C76.2526 70.9481 82.3866 58.9907 81.9874 46.8525L94.7666 39.4744C96.0542 38.731 96.1093 36.8925 94.8686 36.0734L83.4755 28.551C82.9501 28.2041 82.6188 27.6302 82.581 27.0018L81.763 13.3738C81.674 11.8897 80.0542 11.0182 78.7666 11.7616L65.9874 19.1397C55.6751 12.7249 42.2526 12.0584 31 18.5551ZM65.001 19.7092C55.0548 13.7444 42.256 13.2111 31.5 19.4211C20.7441 25.6311 14.8065 36.9817 14.9991 48.5778L19.0504 46.2388C19.6298 36.8581 24.751 27.9365 33.5 22.8852C42.2491 17.8339 52.5361 17.8597 60.9497 22.0482L65.001 19.7092ZM64.5 76.5788C53.7441 82.7887 40.9453 82.2555 30.9991 76.2906L35.0504 73.9516C43.464 78.1402 53.751 78.1659 62.5 73.1147C71.2491 68.0634 76.3703 59.1417 76.9497 49.761L81.001 47.422C81.1936 59.0181 75.256 70.3688 64.5 76.5788ZM62 72.2486C53.7598 77.0061 44.1066 77.0992 36.0977 73.347L75.9024 50.3657C75.1474 59.1777 70.2402 67.4911 62 72.2486ZM59.9024 22.6529L20.0977 45.6341C20.8526 36.8222 25.7598 28.5087 34 23.7512C42.2402 18.9937 51.8935 18.9007 59.9024 22.6529ZM79.2666 12.6276L1.73323 57.3916C1.08944 57.7633 1.06188 58.6825 1.68224 59.0921L13.0754 66.6145C13.8634 67.1348 14.3605 67.9957 14.417 68.9383L15.235 82.5662C15.2796 83.3083 16.0894 83.744 16.7332 83.3723L94.2666 38.6084C94.9104 38.2367 94.938 37.3175 94.3176 36.9079L82.9245 29.3855C82.1365 28.8652 81.6394 28.0043 81.5828 27.0617L80.7648 13.4338C80.7203 12.6917 79.9104 12.256 79.2666 12.6276Z" fill="#1FD59E"/>
</svg>
