<svg width="96" height="96" viewBox="0 0 96 96" fill="none" xmlns="http://www.w3.org/2000/svg">
    <path d="M34.4656 16.7718C31.6783 16.8063 29.11 18.2891 27.6865 20.6857L26.1087 23.342C25.4258 24.4917 24.4657 25.4518 23.316 26.1347L20.6597 27.7125C18.2631 29.136 16.7803 31.7043 16.7458 34.4916L16.7075 37.581C16.691 38.918 16.3395 40.2296 15.6853 41.3958L14.1738 44.0904C13.2303 45.7723 12.9396 47.7101 13.3016 49.5497L12.2654 50.1479C4.61275 54.5662 1.99074 64.3516 6.40902 72.0043C10.8273 79.657 20.6127 82.279 28.2654 77.8607L29.3015 77.2625C30.7137 78.4958 32.5372 79.2129 34.4656 79.2368L37.555 79.275C38.892 79.2916 40.2036 79.643 41.3698 80.2972L44.0644 81.8088C46.4955 83.1725 49.4611 83.1725 51.8922 81.8088L54.5868 80.2972C55.753 79.643 57.0646 79.2916 58.4016 79.2751L61.491 79.2368C64.2782 79.2023 66.8465 77.7194 68.2701 75.3229L69.8479 72.6665C70.5308 71.5169 71.4909 70.5568 72.6405 69.8739L75.2969 68.2961C77.6934 66.8725 79.1762 64.3042 79.2108 61.517L79.249 58.4276C79.2656 57.0906 79.617 55.779 80.2712 54.6128L81.7828 51.9182C82.7262 50.2363 83.017 48.2985 82.655 46.4589L83.6911 45.8607C91.3437 41.4424 93.9657 31.657 89.5475 24.0043C85.1292 16.3516 75.3437 13.7296 67.6911 18.1479L66.655 18.7461C65.2428 17.5128 63.4193 16.7957 61.491 16.7718L58.4016 16.7335C57.0646 16.717 55.753 16.3655 54.5868 15.7114L51.8922 14.1998C49.4611 12.8361 46.4955 12.8361 44.0644 14.1998L41.3698 15.7113C40.2036 16.3655 38.892 16.717 37.555 16.7335L34.4656 16.7718Z" fill="#EE994B" fill-opacity="0.15"/>
    <path d="M32.7122 51.9708C32.6124 51.9098 32.5062 51.8472 32.3936 51.7829C32.281 51.7186 32.1597 51.6485 32.0297 51.5727C31.8046 51.444 31.6015 51.3349 31.4205 51.2454C31.2476 51.1513 31.0904 51.075 30.9489 51.0166L31.6467 49.7892C31.7929 49.8557 31.9588 49.9378 32.1444 50.0353C32.3335 50.1202 32.5406 50.2269 32.7658 50.3556C32.9944 50.4715 33.1975 50.5805 33.375 50.6828C33.5526 50.785 33.7024 50.8764 33.8243 50.9569L33.476 51.5298L34.7491 50.7948C34.7727 50.6303 34.7973 50.449 34.8231 50.2509C34.8522 50.0401 34.8761 49.8107 34.8947 49.5629C34.9313 49.1969 34.9529 48.8611 34.9597 48.5555C34.9664 48.2498 34.9669 47.9801 34.9613 47.7462L36.5191 47.7845C36.5188 47.9894 36.5043 48.2349 36.4755 48.5209C36.4547 48.8023 36.4231 49.1116 36.3806 49.4486L36.3253 49.8848L38.1197 48.8488L38.8197 50.0612L35.9098 51.7412L36.7708 53.2325L39.8504 51.4545L40.5644 52.6912L37.3515 54.5462L37.4271 54.7612C37.7166 54.7772 38.0362 54.8082 38.3861 54.8541C38.7393 54.8873 39.1227 54.9354 39.5363 54.9983C40.0506 55.0678 40.5047 55.1451 40.8987 55.2302C41.3008 55.3106 41.6484 55.3901 41.9417 55.4687L41.7183 57.1818C41.4158 57.0871 41.0692 56.9908 40.6786 56.893C40.2881 56.7952 39.8414 56.7028 39.3386 56.6159C39.013 56.556 38.7089 56.5053 38.4262 56.4637C38.1516 56.4174 37.8945 56.3827 37.6547 56.3595C37.6324 57.31 37.1054 58.5626 36.0739 60.1173C36.9333 59.9445 37.9347 59.5603 39.0781 58.9648C40.2216 58.3693 41.5972 57.532 43.205 56.4528L43.6784 57.8608C42.4284 58.701 41.3235 59.382 40.3638 59.9038C39.4088 60.4336 38.5591 60.8379 37.8148 61.1168C37.0705 61.3956 36.4074 61.563 35.8253 61.6188C35.2479 61.6827 34.7078 61.6712 34.205 61.5843C34.1417 61.9227 34.0779 62.2882 34.0137 62.6809C33.9575 63.069 33.9181 63.4581 33.8956 63.8484L32.2896 63.5308L32.8088 60.79L30.9468 57.5649L29.6374 58.3209L28.9304 57.0964L31.5492 55.5844L34.1812 60.1431C34.406 60.1966 34.6337 60.2268 34.8641 60.2339C35.0945 60.2409 35.3404 60.2283 35.6019 60.1959L34.4376 59.6072C35.4719 58.1694 35.9961 57.08 36.0102 56.339C36.0042 56.0299 35.9623 55.7147 35.8844 55.3932L33.0716 57.0172L32.3576 55.7805L35.3402 54.0585C35.3202 54.0053 35.2963 53.9545 35.2683 53.906C35.2356 53.8494 35.2029 53.7928 35.1703 53.7362L34.4913 52.5602L31.9694 54.0162L31.2694 52.8038L32.7122 51.9708ZM27.9662 52.3183C28.1702 52.373 28.4026 52.449 28.6635 52.5462C28.9244 52.6434 29.2155 52.7556 29.5367 52.8827C30.2047 53.1436 30.7029 53.3625 31.0313 53.5394L30.4371 55.0302C30.2549 54.9199 30.039 54.8074 29.7896 54.6927C29.5402 54.5781 29.2549 54.4572 28.9337 54.3301C28.2993 54.0713 27.7862 53.8826 27.3943 53.7639L27.9662 52.3183Z" fill="url(#paint0_linear_3279_5330)"/>
    <path d="M46.9241 44.6385L47.4351 45.5235L51.0724 43.4235L54.4884 49.3402L50.8511 51.4402L51.9711 53.3801L50.6495 54.1431L49.5295 52.2032L45.868 54.3172L42.452 48.4005L46.1135 46.2865L45.6025 45.4015L46.9241 44.6385ZM44.6944 43.8566L43.9116 43.1446L45.2144 42.0691C45.5164 42.2935 45.8603 42.5907 46.2463 42.9606L50.4656 40.5245L51.7816 42.8039L50.3631 43.6229L49.7541 42.5681L42.3461 46.8451L42.9551 47.8999L41.5608 48.7049L40.2448 46.4255L44.6944 43.8566ZM46.4462 52.3507L48.8225 50.9787L48.1435 49.8026L45.7672 51.1746L46.4462 52.3507ZM45.0812 49.9864L47.4575 48.6144L46.7785 47.4384L44.4022 48.8104L45.0812 49.9864ZM48.1001 46.6754L48.7791 47.8514L51.1191 46.5004L50.4401 45.3244L48.1001 46.6754ZM52.4841 48.8647L51.8051 47.6886L49.4651 49.0396L50.1441 50.2157L52.4841 48.8647Z" fill="url(#paint1_linear_3279_5330)"/>
    <path d="M58.2141 34.7092L59.46 36.8674L63.6187 34.4664L66.8947 40.1406L62.736 42.5416L64.7171 45.9728L63.2743 46.8058L61.2933 43.3746L57.171 45.7546L53.895 40.0804L58.0173 37.7004L56.7713 35.5422L58.2141 34.7092ZM60.251 38.2374L61.931 41.1473L64.659 39.5723L62.979 36.6624L60.251 38.2374ZM57.7845 43.5413L60.4883 41.9803L58.8083 39.0704L56.1045 40.6314L57.7845 43.5413Z" fill="url(#paint2_linear_3279_5330)"/>
    <path d="M34.9948 25.5279L36.6146 26.9863L38.5022 25.8965L37.6157 27.8877L39.2354 29.3462L37.0678 29.1183L36.1812 31.1095L35.7281 28.9775L33.5604 28.7497L35.448 27.6599L34.9948 25.5279Z" fill="url(#paint3_linear_3279_5330)"/>
    <path d="M48.7977 23.6542L47.6106 21.8262L47.4965 24.0028L45.3912 24.567L47.426 25.3481L47.312 27.5247L48.6836 25.8308L50.7185 26.6119L49.5314 24.7839L50.9031 23.0901L48.7977 23.6542Z" fill="url(#paint4_linear_3279_5330)"/>
    <path d="M27.4232 35.5923L25.4811 34.6027L26.4706 36.5448L24.9294 38.086L27.0822 37.7451L28.0717 39.6871L28.4127 37.5343L30.5655 37.1934L28.6234 36.2038L28.9644 34.051L27.4232 35.5923Z" fill="url(#paint5_linear_3279_5330)"/>
    <path d="M48.3789 74.2629L48.493 72.0862L50.5983 71.5221L48.5635 70.741L48.6776 68.5644L47.3059 70.2583L45.271 69.4771L46.4581 71.3051L45.0864 72.999L47.1918 72.4349L48.3789 74.2629Z" fill="url(#paint6_linear_3279_5330)"/>
    <path d="M70.5085 61.4865L69.5189 59.5444L71.0602 58.0032L68.9074 58.3441L67.9178 56.4021L67.5769 58.5549L65.4241 58.8958L67.3661 59.8854L67.0252 62.0381L68.5664 60.4969L70.5085 61.4865Z" fill="url(#paint7_linear_3279_5330)"/>
    <path d="M60.9948 70.5612L60.5416 68.4292L62.4293 67.3394L60.2616 67.1116L59.8084 64.9796L58.9219 66.9707L56.7542 66.7429L58.374 68.2014L57.4874 70.1926L59.375 69.1027L60.9948 70.5612Z" fill="url(#paint8_linear_3279_5330)"/>
    <path d="M84.3513 27.0043C84.9036 27.9609 84.5758 29.1841 83.6193 29.7363C82.6627 30.2886 81.4395 29.9609 80.8872 29.0043C80.3349 28.0477 80.6627 26.8245 81.6193 26.2722C82.5758 25.72 83.799 26.0477 84.3513 27.0043Z" fill="url(#paint9_linear_3279_5330)"/>
    <path d="M14.3372 69.7363C15.2938 69.1841 15.6216 67.9609 15.0693 67.0043C14.517 66.0477 13.2938 65.72 12.3372 66.2722C11.3806 66.8245 11.0529 68.0477 11.6052 69.0043C12.1575 69.9609 13.3806 70.2886 14.3372 69.7363Z" fill="url(#paint10_linear_3279_5330)"/>
    <path fill-rule="evenodd" clip-rule="evenodd" d="M34.4656 16.7718C31.6783 16.8063 29.11 18.2891 27.6865 20.6857L26.1087 23.342C25.4258 24.4917 24.4657 25.4518 23.316 26.1347L20.6597 27.7125C18.2631 29.136 16.7803 31.7043 16.7458 34.4916L16.7075 37.581C16.691 38.918 16.3395 40.2296 15.6853 41.3958L14.1738 44.0904C13.2303 45.7723 12.9396 47.7101 13.3016 49.5497L12.2654 50.1479C4.61275 54.5662 1.99074 64.3516 6.40902 72.0043C10.8273 79.657 20.6127 82.279 28.2654 77.8607L29.3015 77.2625C30.7137 78.4958 32.5372 79.2129 34.4656 79.2368L37.555 79.275C38.892 79.2916 40.2036 79.643 41.3698 80.2972L44.0644 81.8088C46.4955 83.1725 49.4611 83.1725 51.8922 81.8088L54.5868 80.2972C55.753 79.643 57.0646 79.2916 58.4016 79.2751L61.491 79.2368C64.2782 79.2023 66.8465 77.7194 68.2701 75.3229L69.8479 72.6665C70.5308 71.5169 71.4909 70.5568 72.6405 69.8739L75.2969 68.2961C77.6934 66.8725 79.1762 64.3042 79.2108 61.517L79.249 58.4276C79.2656 57.0906 79.617 55.779 80.2712 54.6128L81.7828 51.9182C82.7262 50.2363 83.017 48.2985 82.655 46.4589L83.6911 45.8607C91.3437 41.4424 93.9657 31.657 89.5475 24.0043C85.1292 16.3516 75.3437 13.7296 67.6911 18.1479L66.655 18.7461C65.2428 17.5128 63.4193 16.7957 61.491 16.7718L58.4016 16.7335C57.0646 16.717 55.753 16.3655 54.5868 15.7114L51.8922 14.1998C49.4611 12.8361 46.4955 12.8361 44.0644 14.1998L41.3698 15.7113C40.2036 16.3655 38.892 16.717 37.555 16.7335L34.4656 16.7718ZM65.732 19.2789C64.5373 18.3351 63.0476 17.7911 61.4786 17.7717L58.3892 17.7334C56.885 17.7148 55.4095 17.3195 54.0976 16.5835L51.4029 15.0719C49.2757 13.8787 46.6808 13.8787 44.5536 15.0719L41.859 16.5835C40.547 17.3195 39.0715 17.7148 37.5673 17.7334L34.4779 17.7717C32.0391 17.8019 29.7918 19.0994 28.5463 21.1964L26.9684 23.8527C26.2002 25.1461 25.1201 26.2262 23.8267 26.9944L21.1704 28.5723C19.0734 29.8179 17.7759 32.0651 17.7457 34.5039L17.7074 37.5933C17.6888 39.0975 17.2934 40.573 16.5575 41.885L15.0459 44.5796C14.2783 45.9481 14.0045 47.5102 14.2245 49.0168L17.1812 47.3098C17.2782 46.1956 17.609 45.0972 18.1738 44.0904L19.1627 42.3275C19.8169 41.1613 20.1683 39.8498 20.1849 38.5127L20.2099 36.4916C20.2444 33.7043 21.7272 31.136 24.1238 29.7125L25.8616 28.6803C27.0113 27.9974 27.9714 27.0373 28.6542 25.8876L29.6865 24.1498C31.11 21.7532 33.6783 20.2704 36.4656 20.2359L38.4867 20.2109C39.8237 20.1943 41.1353 19.8429 42.3015 19.1887L44.0644 18.1998C46.4955 16.8361 49.4611 16.8361 51.8922 18.1998L53.655 19.1887C54.8212 19.8429 56.1328 20.1943 57.4698 20.2109L59.491 20.2359C60.6453 20.2502 61.762 20.5129 62.7754 20.986L65.732 19.2789ZM61.6786 21.6192C60.9802 21.3777 60.2387 21.2452 59.4786 21.2358L57.4575 21.2108C55.9533 21.1922 54.4778 20.7968 53.1658 20.0608L51.4029 19.0719C49.2757 17.8787 46.6808 17.8787 44.5536 19.0719L42.7907 20.0608C41.4788 20.7968 40.0033 21.1922 38.4991 21.2108L36.4779 21.2358C34.0391 21.266 31.7918 22.5635 30.5463 24.6605L29.514 26.3983C28.7458 27.6917 27.6656 28.7718 26.3723 29.54L24.6345 30.5723C22.5375 31.8179 21.24 34.0651 21.2098 36.504L21.1848 38.5251C21.1661 40.0293 20.7708 41.5048 20.0348 42.8168L19.0459 44.5796C18.674 45.2426 18.418 45.951 18.278 46.6765L61.6786 21.6192ZM81.732 46.9917L78.7754 48.6988C78.6784 49.813 78.3475 50.9114 77.7828 51.9182L76.7939 53.681C76.1397 54.8472 75.7883 56.1588 75.7717 57.4959L75.7467 59.517C75.7122 62.3042 74.2293 64.8725 71.8328 66.2961L70.0949 67.3283C68.9453 68.0112 67.9852 68.9713 67.3023 70.1209L66.2701 71.8588C64.8465 74.2553 62.2782 75.7382 59.491 75.7727L57.4698 75.7977C56.1328 75.8143 54.8212 76.1657 53.6551 76.8199L51.8922 77.8088C49.4611 79.1725 46.4955 79.1725 44.0644 77.8088L42.3015 76.8199C41.1353 76.1657 39.8237 75.8143 38.4867 75.7977L36.4656 75.7727C35.3113 75.7584 34.1946 75.4957 33.1812 75.0226L30.2245 76.7296C31.4192 77.6735 32.909 78.2174 34.4779 78.2369L37.5673 78.2751C39.0715 78.2938 40.547 78.6891 41.859 79.4251L44.5536 80.9366C46.6808 82.1299 49.2757 82.1299 51.4029 80.9366L54.0976 79.4251C55.4095 78.6891 56.885 78.2938 58.3892 78.2751L61.4786 78.2369C63.9174 78.2066 66.1647 76.9092 67.4103 74.8122L68.9881 72.1558C69.7563 70.8625 70.8365 69.7824 72.1298 69.0141L74.7862 67.4363C76.8832 66.1907 78.1806 63.9435 78.2109 61.5046L78.2491 58.4152C78.2677 56.911 78.6631 55.4355 79.3991 54.1236L80.9106 51.4289C81.6783 50.0604 81.9521 48.4983 81.732 46.9917ZM34.2779 74.3894C34.9763 74.6308 35.7178 74.7633 36.4779 74.7728L38.4991 74.7978C40.0033 74.8164 41.4788 75.2118 42.7907 75.9477L44.5536 76.9366C46.6808 78.1299 49.2757 78.1299 51.4029 76.9366L53.1658 75.9477C54.4778 75.2118 55.9533 74.8164 57.4575 74.7978L59.4786 74.7728C61.9174 74.7425 64.1647 73.4451 65.4103 71.3481L66.4425 69.6103C67.2108 68.3169 68.2909 67.2368 69.5843 66.4685L71.3221 65.4363C73.4191 64.1907 74.7165 61.9434 74.7467 59.5046L74.7718 57.4835C74.7904 55.9793 75.1858 54.5038 75.9217 53.1918L76.9106 51.4289C77.2825 50.766 77.5385 50.0575 77.6786 49.332L34.2779 74.3894ZM12.7654 51.0139L68.1911 19.0139C75.3654 14.8718 84.5393 17.3299 88.6814 24.5043C92.8236 31.6787 90.3654 40.8525 83.1911 44.9947L27.7654 76.9947C20.591 81.1368 11.4172 78.6787 7.27505 71.5043C3.13291 64.3299 5.59104 55.156 12.7654 51.0139Z" fill="url(#paint11_linear_3279_5330)"/>
    <defs>
        <linearGradient id="paint0_linear_3279_5330" x1="47.9782" y1="13.177" x2="47.9782" y2="82.8316" gradientUnits="userSpaceOnUse">
            <stop stop-color="#FF7A00"/>
            <stop offset="1" stop-color="#FFD600"/>
        </linearGradient>
        <linearGradient id="paint1_linear_3279_5330" x1="47.9782" y1="13.177" x2="47.9782" y2="82.8316" gradientUnits="userSpaceOnUse">
            <stop stop-color="#FF7A00"/>
            <stop offset="1" stop-color="#FFD600"/>
        </linearGradient>
        <linearGradient id="paint2_linear_3279_5330" x1="47.9782" y1="13.177" x2="47.9782" y2="82.8316" gradientUnits="userSpaceOnUse">
            <stop stop-color="#FF7A00"/>
            <stop offset="1" stop-color="#FFD600"/>
        </linearGradient>
        <linearGradient id="paint3_linear_3279_5330" x1="47.9782" y1="13.177" x2="47.9782" y2="82.8316" gradientUnits="userSpaceOnUse">
            <stop stop-color="#FF7A00"/>
            <stop offset="1" stop-color="#FFD600"/>
        </linearGradient>
        <linearGradient id="paint4_linear_3279_5330" x1="47.9782" y1="13.177" x2="47.9782" y2="82.8316" gradientUnits="userSpaceOnUse">
            <stop stop-color="#FF7A00"/>
            <stop offset="1" stop-color="#FFD600"/>
        </linearGradient>
        <linearGradient id="paint5_linear_3279_5330" x1="47.9782" y1="13.177" x2="47.9782" y2="82.8316" gradientUnits="userSpaceOnUse">
            <stop stop-color="#FF7A00"/>
            <stop offset="1" stop-color="#FFD600"/>
        </linearGradient>
        <linearGradient id="paint6_linear_3279_5330" x1="47.9782" y1="13.177" x2="47.9782" y2="82.8316" gradientUnits="userSpaceOnUse">
            <stop stop-color="#FF7A00"/>
            <stop offset="1" stop-color="#FFD600"/>
        </linearGradient>
        <linearGradient id="paint7_linear_3279_5330" x1="47.9782" y1="13.177" x2="47.9782" y2="82.8316" gradientUnits="userSpaceOnUse">
            <stop stop-color="#FF7A00"/>
            <stop offset="1" stop-color="#FFD600"/>
        </linearGradient>
        <linearGradient id="paint8_linear_3279_5330" x1="47.9782" y1="13.177" x2="47.9782" y2="82.8316" gradientUnits="userSpaceOnUse">
            <stop stop-color="#FF7A00"/>
            <stop offset="1" stop-color="#FFD600"/>
        </linearGradient>
        <linearGradient id="paint9_linear_3279_5330" x1="47.9782" y1="13.177" x2="47.9782" y2="82.8316" gradientUnits="userSpaceOnUse">
            <stop stop-color="#FF7A00"/>
            <stop offset="1" stop-color="#FFD600"/>
        </linearGradient>
        <linearGradient id="paint10_linear_3279_5330" x1="47.9782" y1="13.177" x2="47.9782" y2="82.8316" gradientUnits="userSpaceOnUse">
            <stop stop-color="#FF7A00"/>
            <stop offset="1" stop-color="#FFD600"/>
        </linearGradient>
        <linearGradient id="paint11_linear_3279_5330" x1="47.9782" y1="13.177" x2="47.9782" y2="82.8316" gradientUnits="userSpaceOnUse">
            <stop stop-color="#FF7A00"/>
            <stop offset="1" stop-color="#FFD600"/>
        </linearGradient>
    </defs>
</svg>
