<svg width="96" height="96" viewBox="0 0 96 96" fill="none" xmlns="http://www.w3.org/2000/svg">
    <path d="M30.627 54.5893L31.46 56.0321L37.4859 52.5531L36.0439 50.0555L28.454 54.4375L27.656 53.0553L36.6765 47.8473L39.7145 53.1093L32.258 57.4143L33.826 60.1301C33.9754 60.3888 34.1025 60.5902 34.2073 60.7345C34.3075 60.8706 34.4092 60.9628 34.5124 61.0109C34.6191 61.0464 34.736 61.0435 34.8632 61.0024C34.9984 60.9567 35.1734 60.8772 35.3883 60.7639C36.2395 60.3156 37.1137 59.8324 38.0109 59.3144C38.9161 58.7918 39.7919 58.2646 40.6381 57.7329C40.7628 57.6502 40.8608 57.5774 40.9323 57.5146C41.0119 57.4471 41.0637 57.3687 41.0876 57.2794C41.1068 57.1821 41.1023 57.0716 41.0739 56.9478C41.0409 56.816 40.9829 56.6501 40.8998 56.4502C40.8366 56.3035 40.7455 56.1082 40.6263 55.8645C40.5071 55.6208 40.3856 55.373 40.2618 55.1212L41.9566 54.7246C42.0898 54.9926 42.2096 55.2468 42.316 55.4871C42.4305 55.7228 42.5199 55.9244 42.5844 56.0919C42.7471 56.5045 42.8477 56.856 42.886 57.1464C42.929 57.4449 42.911 57.7031 42.8321 57.9211C42.7579 58.1472 42.6257 58.3475 42.4354 58.522C42.2533 58.6918 42.019 58.8648 41.7327 59.0409C41.5111 59.1796 41.2305 59.347 40.891 59.543C40.5562 59.7471 40.1907 59.9634 39.7947 60.1921C39.4114 60.4242 39.0096 60.6616 38.5893 60.9042C38.177 61.1422 37.785 61.3686 37.4132 61.5832C37.0414 61.7979 36.7036 61.9875 36.3999 62.1521C36.1042 62.312 35.8732 62.4346 35.7069 62.5198C35.3211 62.7103 34.99 62.8368 34.7136 62.8994C34.4372 62.9619 34.1836 62.9521 33.9529 62.8698C33.7302 62.7828 33.5176 62.6199 33.3151 62.3812C33.1126 62.1424 32.8924 61.8169 32.6544 61.4047L29.1964 55.4153L30.627 54.5893Z" fill="#B1B2BD"/>
    <path d="M50.1439 53.0854C50.1703 53.0378 50.1967 52.9902 50.2231 52.9426C50.2542 52.9031 50.2853 52.8636 50.3163 52.8242C50.0384 53.0708 49.7057 53.3438 49.318 53.643C48.9304 53.9423 48.5006 54.2712 48.0287 54.6299C47.5326 55.0025 47.082 55.3328 46.6769 55.6205C46.28 55.9036 45.9245 56.1465 45.6105 56.3494L44.7472 55.1342C45.0255 54.9628 45.3395 54.7599 45.6892 54.5257C46.0389 54.2914 46.4238 54.0154 46.8438 53.6974L45.9758 52.194L44.145 53.251L43.431 52.0143L48.3413 49.1793L49.0553 50.416L47.2488 51.459L48.0258 52.8048C48.3373 52.5603 48.6245 52.3298 48.8875 52.1133C49.1505 51.8968 49.3875 51.7007 49.5986 51.525L50.3905 52.7005C50.9135 51.8705 51.3002 51.1029 51.5506 50.398C51.0496 50.2022 50.5356 49.9278 50.0084 49.5748C49.4847 49.209 48.9636 48.7824 48.4451 48.295L48.2268 48.421L47.5058 47.1722L48.3303 46.6962L46.8848 46.5446C46.9821 46.2837 47.0453 46.0478 47.0744 45.837C47.1117 45.6215 47.1183 45.4183 47.0943 45.2274C47.0737 45.0237 47.0219 44.822 46.9388 44.6221C46.8591 44.4094 46.7493 44.1818 46.6093 43.9393L45.7343 42.4238L49.3716 40.3238L50.5336 42.3364C50.6829 42.5951 50.8028 42.7468 50.8933 42.7915C50.9838 42.8363 51.1001 42.823 51.2422 42.7518C51.3843 42.6805 51.5136 42.6059 51.6302 42.5278C51.7502 42.4369 51.8742 42.3438 52.0023 42.2483L52.5172 43.6161C52.4053 43.7023 52.2621 43.7903 52.0877 43.8802C51.9133 43.9701 51.7002 44.077 51.4484 44.2008C51.2289 44.306 51.0341 44.37 50.864 44.3927C50.6893 44.4074 50.5248 44.3838 50.3705 44.322C50.2197 44.2474 50.0768 44.1305 49.9418 43.9714C49.8068 43.8122 49.6646 43.6033 49.5153 43.3447L48.8783 42.2414L47.6416 42.9554L48.0056 43.5858C48.2856 44.0708 48.4614 44.562 48.5331 45.0595C48.6082 45.5442 48.5527 46.0828 48.3667 46.6752L52.4768 44.3022L53.1978 45.551C53.4871 46.8174 53.5385 48.0917 53.352 49.3741C53.7563 49.4209 54.2032 49.4484 54.693 49.4567C55.178 49.4568 55.7046 49.4169 56.2727 49.3368L56.2191 50.952C55.6183 50.9755 55.0517 50.9739 54.519 50.9474C53.9944 50.9161 53.4958 50.8645 53.0232 50.7925C52.87 51.2366 52.6741 51.7 52.4355 52.1826C52.2096 52.6687 51.9288 53.1811 51.5932 53.7197L50.1439 53.0854ZM40.1176 46.1354C40.6858 45.5702 41.1351 44.9391 41.4654 44.2418L42.7673 44.9289C42.6331 45.2004 42.4872 45.4517 42.3296 45.6827C42.1721 45.9138 42.0109 46.12 41.8462 46.3014L42.4202 47.2956L43.4386 46.7076L44.0826 47.823L43.0642 48.411L43.6522 49.4294L46.0043 48.0714L45.4163 47.053L44.4585 47.606L43.8145 46.4906L44.7723 45.9376L44.2193 44.9797L43.2251 45.5537L42.5671 44.414L44.8222 43.112L47.9302 48.4953L43.0926 51.2883L40.1176 46.1354ZM49.7666 47.532C50.1212 47.8661 50.4756 48.1627 50.8299 48.4216C51.1922 48.6758 51.5514 48.8779 51.9074 49.028C52.048 48.0955 52.0255 47.1978 51.8399 46.335L49.7666 47.532Z" fill="#B1B2BD"/>
    <path d="M55.3435 36.0515C55.4931 36.1052 55.6584 36.1768 55.8394 36.2663C56.0238 36.3431 56.2343 36.437 56.471 36.5483C56.6647 36.6412 56.848 36.7347 57.021 36.8289C57.1892 36.915 57.3383 36.9959 57.4683 37.0717L59.1415 36.1057C59.1629 35.9748 59.186 35.8375 59.2108 35.6939C59.2438 35.5456 59.272 35.3891 59.2956 35.2246C59.3427 34.8957 59.3837 34.6026 59.4184 34.3454C59.4485 34.0802 59.466 33.8492 59.4709 33.6523L60.983 33.5553C60.9672 33.92 60.9207 34.3995 60.8435 34.9937L60.8268 35.1327L62.7545 34.0197L65.9955 39.6333L62.2976 41.7683L62.8436 42.714L67.4751 40.04L68.2311 41.3494L63.5996 44.0234L64.7336 45.9876L63.3636 46.7786L62.2296 44.8144L57.5981 47.4884L56.8421 46.179L61.4736 43.505L60.9276 42.5593L57.2418 44.6873L54.0008 39.0737L55.9407 37.9537C55.9058 37.9307 55.8693 37.9141 55.831 37.9039C55.7881 37.8855 55.7469 37.8608 55.7074 37.8297C55.4869 37.7092 55.2862 37.6041 55.1052 37.5147C54.9195 37.4171 54.7559 37.3391 54.6144 37.2807L55.3435 36.0515ZM57.8474 42.6564L60.1996 41.2984L59.6326 40.3163L57.2804 41.6743L57.8474 42.6564ZM63.8975 39.1634L63.3305 38.1813L61.0026 39.5253L61.5696 40.5074L63.8975 39.1634ZM56.5944 40.4861L58.9466 39.1281L58.3866 38.1582L56.0344 39.5162L56.5944 40.4861ZM59.7566 37.3672L60.3166 38.3371L62.6445 36.9931L62.0845 36.0232L59.7566 37.3672Z" fill="#B1B2BD"/>
    <path fill-rule="evenodd" clip-rule="evenodd" d="M78.623 17.0407L5.87688 59.0407L5.37688 58.1746L78.123 16.1746L78.623 17.0407Z" fill="#B1B2BD"/>
    <path fill-rule="evenodd" clip-rule="evenodd" d="M90.623 37.8253L17.8769 79.8253L17.3769 78.9592L90.123 36.9592L90.623 37.8253Z" fill="#B1B2BD"/>
    <path d="M60.9998 70.5167L60.5467 68.3847L62.4343 67.2949L60.2666 67.067L59.8134 64.935L58.9269 66.9262L56.7592 66.6984L58.379 68.1568L57.4925 70.148L59.3801 69.0582L60.9998 70.5167Z" fill="#B1B2BD"/>
    <path d="M70.5135 61.4419L69.524 59.4998L71.0652 57.9586L68.9124 58.2996L67.9229 56.3575L67.5819 58.5103L65.4291 58.8513L67.3712 59.8408L67.0302 61.9936L68.5714 60.4524L70.5135 61.4419Z" fill="#B1B2BD"/>
    <path d="M48.498 72.0417L48.3839 74.2183L47.1968 72.3904L45.0915 72.9545L46.4632 71.2606L45.276 69.4326L47.3109 70.2137L48.6826 68.5198L48.5685 70.6965L50.6034 71.4776L48.498 72.0417Z" fill="#B1B2BD"/>
    <path d="M34.9998 25.4833L36.6196 26.9418L38.5072 25.852L37.6207 27.8432L39.2405 29.3016L37.0728 29.0738L36.1863 31.065L35.7331 28.933L33.5654 28.7052L35.453 27.6153L34.9998 25.4833Z" fill="#B1B2BD"/>
    <path d="M47.6156 21.7817L48.8027 23.6096L50.9081 23.0455L49.5364 24.7394L50.7235 26.5674L48.6887 25.7863L47.317 27.4802L47.4311 25.3035L45.3962 24.5224L47.5016 23.9583L47.6156 21.7817Z" fill="#B1B2BD"/>
    <path d="M27.4282 35.5477L25.4861 34.5582L26.4757 36.5003L24.9344 38.0415L27.0872 37.7005L28.0768 39.6426L28.4177 37.4898L30.5705 37.1488L28.6285 36.1593L28.9694 34.0065L27.4282 35.5477Z" fill="#B1B2BD"/>
    <path fill-rule="evenodd" clip-rule="evenodd" d="M31 18.5551C19.7475 25.0517 13.6134 37.0092 14.0126 49.1473L1.23317 56.5255C-0.0544043 57.2689 -0.109531 59.1074 1.13119 59.9266L12.5243 67.449C13.0497 67.7959 13.3811 68.3698 13.4188 68.9982L14.2368 82.6261C14.3258 84.1102 15.9456 84.9817 17.2332 84.2384L30.0126 76.8601C40.3249 83.2749 53.7474 83.9414 65 77.4448C76.2525 70.9481 82.3866 58.9907 81.9873 46.8525L94.7666 39.4744C96.0541 38.731 96.1093 36.8925 94.8686 36.0734L83.4754 28.551C82.9501 28.2041 82.6187 27.6302 82.581 27.0018L81.763 13.3738C81.6739 11.8897 80.0541 11.0182 78.7666 11.7616L65.9873 19.1397C55.675 12.7249 42.2525 12.0584 31 18.5551ZM65.0009 19.7092C55.0547 13.7444 42.2559 13.2111 31.5 19.4211C20.744 25.6311 14.8064 36.9817 14.999 48.5778L19.0503 46.2388C19.6297 36.8581 24.7509 27.9365 33.5 22.8852C42.249 17.8339 52.536 17.8597 60.9496 22.0482L65.0009 19.7092ZM64.5 76.5788C53.744 82.7887 40.9453 82.2555 30.999 76.2906L35.0503 73.9516C43.4639 78.1402 53.7509 78.1659 62.5 73.1147C71.249 68.0634 76.3703 59.1417 76.9496 49.761L81.0009 47.422C81.1935 59.0181 75.2559 70.3688 64.5 76.5788ZM62 72.2486C53.7598 77.0061 44.1065 77.0992 36.0976 73.347L75.9023 50.3657C75.1474 59.1777 70.2402 67.4911 62 72.2486ZM59.9023 22.6529L20.0976 45.6341C20.8526 36.8222 25.7598 28.5087 34 23.7512C42.2402 18.9937 51.8934 18.9007 59.9023 22.6529ZM79.2666 12.6276L1.73317 57.3916C1.08938 57.7633 1.06182 58.6825 1.68218 59.0921L13.0753 66.6145C13.8633 67.1348 14.3604 67.9957 14.417 68.9383L15.235 82.5662C15.2795 83.3083 16.0894 83.744 16.7332 83.3723L94.2666 38.6084C94.9104 38.2367 94.9379 37.3175 94.3176 36.9079L82.9244 29.3855C82.1364 28.8652 81.6393 28.0043 81.5828 27.0617L80.7648 13.4338C80.7202 12.6917 79.9104 12.256 79.2666 12.6276Z" fill="#B1B2BD"/>
</svg>
