<svg width="96" height="96" viewBox="0 0 96 96" fill="none" xmlns="http://www.w3.org/2000/svg">
    <path d="M33.6786 48.2318L34.4416 49.5534L37.0484 48.0484L37.7904 49.3336L35.1836 50.8386L35.8136 51.9298L38.9902 50.0958L39.7252 51.3688L38.1854 52.2578L38.8364 53.3854L40.2186 52.5874L40.9816 53.9089L39.5994 54.7069L40.8594 56.8893C40.9994 57.1318 41.0965 57.356 41.1507 57.5618C41.2095 57.7757 41.2133 57.9783 41.1621 58.1695C41.1155 58.3688 41.0081 58.5655 40.84 58.7596C40.6718 58.9537 40.4354 59.1602 40.1307 59.3792C39.9299 59.5167 39.7187 59.6549 39.497 59.7936C39.28 59.9404 39.0665 60.0745 38.8563 60.1959L37.835 58.9588C38.0544 58.8536 38.2514 58.7561 38.4258 58.6662C38.6002 58.5763 38.7699 58.4783 38.935 58.3722C39.1048 58.2742 39.2335 58.1891 39.3211 58.1169C39.4088 58.0448 39.4588 57.9728 39.4712 57.9009C39.4871 57.8164 39.471 57.7232 39.4231 57.6216C39.3833 57.5152 39.3144 57.3772 39.2164 57.2075L38.2294 55.4979L35.4408 57.1079C35.5763 57.1374 35.7125 57.1773 35.8494 57.2277C35.9896 57.2653 36.1449 57.3103 36.3154 57.3628C36.6005 57.446 36.8521 57.5271 37.0701 57.606C37.2834 57.6768 37.4672 57.7432 37.6214 57.805L37.142 59.3266C36.5471 59.0988 36.0132 58.9114 35.5402 58.7641C35.0672 58.6169 34.7438 58.5234 34.57 58.4837L34.8467 57.4509L33.8525 58.0249L33.0895 56.7034L37.4664 54.1764L36.8154 53.0488L32.196 55.7158L31.594 54.6731C31.5845 55.142 31.5554 55.633 31.5068 56.1461L35.1328 62.4265L33.8476 63.1685L31.1736 58.537C31.1248 58.7699 31.0738 58.9988 31.0204 59.2236C30.9704 59.4357 30.9042 59.6571 30.8219 59.8878L29.3017 59.3267C29.439 58.9673 29.5611 58.5627 29.6679 58.113C29.77 57.6553 29.8622 57.171 29.9445 56.6601C30.0267 56.1492 30.0824 55.6482 30.1114 55.1573C30.1405 54.6663 30.1495 54.2246 30.1385 53.8322L31.5923 53.9143C31.5927 53.9895 31.593 54.0648 31.5933 54.14C31.6018 54.2106 31.6021 54.2858 31.5943 54.3658L34.4678 52.7068L33.8378 51.6156L31.3645 53.0436L30.6225 51.7584L33.0958 50.3304L32.3328 49.0088L33.6786 48.2318ZM27.5557 55.6306C27.7806 54.9187 27.9936 54.1491 28.1948 53.3216C28.3961 52.4942 28.5371 51.6745 28.618 50.8626L30.1335 51.1354C30.1096 51.5048 30.0628 51.9091 29.993 52.3481C29.9185 52.7791 29.8319 53.2171 29.7332 53.6621C29.6298 54.099 29.5176 54.5301 29.3968 54.9555C29.2713 55.3729 29.1416 55.7549 29.0077 56.1016L27.5557 55.6306Z" fill="#DFC538"/>
    <path d="M41.1178 46.6688L39.9628 44.6683L41.2601 43.9193L42.4151 45.9198L43.5427 45.2688L44.2777 46.5419L43.1501 47.1929L43.9551 48.5872C44.2187 48.241 44.4448 47.9327 44.6334 47.6621L45.3987 48.7075L52.552 44.5775L53.231 45.7536L50.3333 47.4266L50.8723 48.3602L53.2608 46.9812L53.9538 48.1815L51.5653 49.5605L52.1673 50.6032L52.2158 50.5752C52.6859 50.3254 53.1611 50.0564 53.6414 49.7683C54.1251 49.4675 54.6554 49.1074 55.2324 48.6881L55.7478 50.1687C55.6278 50.2596 55.4529 50.3767 55.2232 50.5201C55.0062 50.667 54.7563 50.822 54.4734 50.9854C54.2032 51.1521 53.9186 51.3218 53.6195 51.4945C53.3332 51.6706 53.0561 51.8252 52.7881 51.9584C52.4473 52.1335 52.1198 52.2849 51.8055 52.4125C51.4993 52.5354 51.1905 52.6167 50.8793 52.6563C50.5808 52.6993 50.2752 52.6925 49.9623 52.636C49.6623 52.583 49.3457 52.464 49.0126 52.2791C49.0525 52.6656 49.0548 53.0522 49.0195 53.439C48.9923 53.8212 48.9136 54.2169 48.7834 54.6261L47.3067 54.4764C47.4484 54.0497 47.5305 53.6413 47.5531 53.2511C47.571 52.8527 47.5455 52.4633 47.4767 52.0827C47.4078 51.7022 47.3037 51.3258 47.1643 50.9537C47.0202 50.5734 46.8587 50.1817 46.6798 49.7785L48.0471 49.1507C48.1442 49.3749 48.2372 49.6014 48.3262 49.8302C48.4186 50.0463 48.503 50.267 48.5792 50.4924C48.9848 50.8402 49.362 51.0643 49.7109 51.1646C50.0552 51.2568 50.4048 51.2651 50.7599 51.1894L49.0239 48.1826L45.8473 50.0166L45.3783 49.2043C45.2978 49.3262 45.2052 49.4551 45.1005 49.591C44.9957 49.7269 44.8893 49.8692 44.7811 50.0179L46.9091 53.7037C47.0444 53.9381 47.1345 54.1501 47.1794 54.3398C47.2242 54.5294 47.2244 54.7071 47.18 54.8729C47.1356 55.0386 47.0489 55.1965 46.9199 55.3464C46.799 55.4916 46.6324 55.6417 46.42 55.7966C46.3162 55.8781 46.1754 55.9702 45.9976 56.0729C45.8244 56.1836 45.6812 56.2717 45.5681 56.337L44.4982 55.1279C44.5837 55.0893 44.7137 55.0251 44.8881 54.9352C45.0706 54.8406 45.2039 54.7636 45.2882 54.7042C45.4256 54.6248 45.5022 54.5429 45.518 54.4583C45.5339 54.3737 45.4835 54.2304 45.3668 54.0283L43.7918 51.3004C43.5891 51.5467 43.402 51.7733 43.2305 51.9801C43.0542 52.1788 42.8912 52.3538 42.7414 52.505L41.7647 51.1774C41.918 51.0135 42.0948 50.8252 42.2953 50.6124C42.4992 50.3869 42.7181 50.1313 42.9518 49.8454L41.8528 47.9419L40.5919 48.6699L39.8569 47.3968L41.1178 46.6688ZM48.8692 39.9627L51.4102 44.3638L45.542 47.7518L43.001 43.3507L48.8692 39.9627ZM49.4745 44.0911L49.1035 43.4485L45.8906 45.3035L46.2616 45.9461L49.4745 44.0911ZM45.2886 44.2608L48.5015 42.4058L48.1305 41.7633L44.9176 43.6183L45.2886 44.2608Z" fill="#DFC538"/>
    <path d="M58.1879 40.8711C58.6963 41.1918 59.1913 41.4611 59.6727 41.6789C60.1541 41.8967 60.6226 42.0735 61.0781 42.2092C61.1986 41.7085 61.2762 41.1896 61.3108 40.6522C61.3536 40.1103 61.3487 39.5419 61.2963 38.9471L62.9431 38.6914C63.0247 40.1208 62.9314 41.3871 62.6631 42.4904C64.099 42.5882 65.9506 42.2952 68.2177 41.6113L68.5331 43.4176C65.9519 44.0241 63.8853 44.2527 62.3334 44.1033C62.2709 44.1071 62.2078 44.1004 62.144 44.0833C61.8243 44.8176 61.3665 45.6207 60.7708 46.4928C60.175 47.3648 59.4307 48.3064 58.538 49.3176L57.1058 48.2369C58.8058 46.5334 59.9556 45.0343 60.5553 43.7396C59.5584 43.4315 58.5061 42.9343 57.3987 42.2481L58.1879 40.8711ZM59.9561 36.6817L53.227 40.5667L52.443 39.2088L56.9776 36.5908C56.7962 36.426 56.6085 36.2596 56.4144 36.0914C56.2238 35.9105 56.0558 35.7596 55.9106 35.6387L57.2689 34.5473C57.4362 34.6878 57.6373 34.8681 57.8721 35.0882C58.115 35.3036 58.3341 35.5058 58.5295 35.6948L62.8457 33.2028L63.6297 34.5607L60.0531 36.6257C60.3668 36.6278 60.7339 36.6475 61.1543 36.685C61.5747 36.7225 62.0461 36.7737 62.5685 36.8385C63.1198 36.8974 63.6069 36.9664 64.0298 37.0456C64.4561 37.112 64.8263 37.1838 65.1404 37.2612L64.9114 38.8806C64.588 38.7871 64.2316 38.7019 63.8423 38.6249C63.453 38.5479 62.9629 38.4644 62.3721 38.3744C61.8149 38.2866 61.3197 38.2223 60.8866 38.1814C60.4534 38.1405 60.0776 38.1149 59.7592 38.1048L59.9561 36.6817ZM54.886 43.4402C55.2636 42.6941 55.5912 41.9176 55.8689 41.1106C56.1501 40.2909 56.3659 39.4981 56.5165 38.7322L58.0599 39.0535C57.897 39.8912 57.6762 40.7408 57.3975 41.6022C57.1223 42.4508 56.7955 43.2754 56.417 44.0758L54.886 43.4402Z" fill="#DFC538"/>
    <path fill-rule="evenodd" clip-rule="evenodd" d="M78.623 17.0407L5.87688 59.0407L5.37688 58.1746L78.123 16.1746L78.623 17.0407Z" fill="#DFC538"/>
    <path fill-rule="evenodd" clip-rule="evenodd" d="M90.623 37.8253L17.8769 79.8253L17.3769 78.9592L90.123 36.9592L90.623 37.8253Z" fill="#DFC538"/>
    <path d="M60.9998 70.5167L60.5467 68.3847L62.4343 67.2949L60.2666 67.067L59.8134 64.935L58.9269 66.9262L56.7592 66.6984L58.379 68.1568L57.4925 70.148L59.3801 69.0582L60.9998 70.5167Z" fill="#DFC538"/>
    <path d="M70.5135 61.4419L69.524 59.4998L71.0652 57.9586L68.9124 58.2996L67.9229 56.3575L67.5819 58.5103L65.4291 58.8513L67.3712 59.8408L67.0302 61.9936L68.5714 60.4524L70.5135 61.4419Z" fill="#DFC538"/>
    <path d="M48.498 72.0417L48.3839 74.2183L47.1968 72.3904L45.0915 72.9545L46.4632 71.2606L45.276 69.4326L47.3109 70.2137L48.6826 68.5198L48.5685 70.6965L50.6034 71.4776L48.498 72.0417Z" fill="#DFC538"/>
    <path d="M34.9998 25.4833L36.6196 26.9418L38.5072 25.852L37.6207 27.8432L39.2405 29.3016L37.0728 29.0738L36.1863 31.065L35.7331 28.933L33.5654 28.7052L35.453 27.6153L34.9998 25.4833Z" fill="#DFC538"/>
    <path d="M47.6156 21.7817L48.8027 23.6096L50.9081 23.0455L49.5364 24.7394L50.7235 26.5674L48.6887 25.7863L47.317 27.4802L47.4311 25.3035L45.3962 24.5224L47.5016 23.9583L47.6156 21.7817Z" fill="#DFC538"/>
    <path d="M27.4282 35.5477L25.4861 34.5582L26.4757 36.5003L24.9344 38.0415L27.0872 37.7005L28.0768 39.6426L28.4177 37.4898L30.5705 37.1488L28.6285 36.1593L28.9694 34.0065L27.4282 35.5477Z" fill="#DFC538"/>
    <path fill-rule="evenodd" clip-rule="evenodd" d="M31 18.5551C19.7475 25.0517 13.6134 37.0092 14.0126 49.1473L1.23317 56.5255C-0.0544043 57.2689 -0.109531 59.1074 1.13119 59.9266L12.5243 67.449C13.0497 67.7959 13.3811 68.3698 13.4188 68.9982L14.2368 82.6261C14.3258 84.1102 15.9456 84.9817 17.2332 84.2384L30.0126 76.8601C40.3249 83.2749 53.7474 83.9414 65 77.4448C76.2525 70.9481 82.3866 58.9907 81.9873 46.8525L94.7666 39.4744C96.0541 38.731 96.1093 36.8925 94.8686 36.0734L83.4754 28.551C82.9501 28.2041 82.6187 27.6302 82.581 27.0018L81.763 13.3738C81.6739 11.8897 80.0541 11.0182 78.7666 11.7616L65.9873 19.1397C55.675 12.7249 42.2525 12.0584 31 18.5551ZM65.0009 19.7092C55.0547 13.7444 42.2559 13.2111 31.5 19.4211C20.744 25.6311 14.8064 36.9817 14.999 48.5778L19.0503 46.2388C19.6297 36.8581 24.7509 27.9365 33.5 22.8852C42.249 17.8339 52.536 17.8597 60.9496 22.0482L65.0009 19.7092ZM64.5 76.5788C53.744 82.7887 40.9453 82.2555 30.999 76.2906L35.0503 73.9516C43.4639 78.1402 53.7509 78.1659 62.5 73.1147C71.249 68.0634 76.3703 59.1417 76.9496 49.761L81.0009 47.422C81.1935 59.0181 75.2559 70.3688 64.5 76.5788ZM62 72.2486C53.7598 77.0061 44.1065 77.0992 36.0976 73.347L75.9023 50.3657C75.1474 59.1777 70.2402 67.4911 62 72.2486ZM59.9023 22.6529L20.0976 45.6341C20.8526 36.8222 25.7598 28.5087 34 23.7512C42.2402 18.9937 51.8934 18.9007 59.9023 22.6529ZM79.2666 12.6276L1.73317 57.3916C1.08938 57.7633 1.06182 58.6825 1.68218 59.0921L13.0753 66.6145C13.8633 67.1348 14.3604 67.9957 14.417 68.9383L15.235 82.5662C15.2795 83.3083 16.0894 83.744 16.7332 83.3723L94.2666 38.6084C94.9104 38.2367 94.9379 37.3175 94.3176 36.9079L82.9244 29.3855C82.1364 28.8652 81.6393 28.0043 81.5828 27.0617L80.7648 13.4338C80.7202 12.6917 79.9104 12.256 79.2666 12.6276Z" fill="#DFC538"/>
</svg>
