<svg width="96" height="96" viewBox="0 0 96 96" fill="none" xmlns="http://www.w3.org/2000/svg">
    <path d="M33.6785 48.2318L34.4415 49.5533L37.0482 48.0483L37.7902 49.3335L35.1835 50.8385L35.8135 51.9297L38.9901 50.0957L39.7251 51.3687L38.1853 52.2577L38.8363 53.3853L40.2185 52.5873L40.9815 53.9089L39.5993 54.7069L40.8593 56.8893C40.9993 57.1317 41.0964 57.3559 41.1505 57.5617C41.2094 57.7756 41.2132 57.9782 41.1619 58.1694C41.1154 58.3688 41.008 58.5655 40.8398 58.7596C40.6717 58.9536 40.4353 59.1602 40.1306 59.3792C39.9298 59.5167 39.7186 59.6548 39.4969 59.7935C39.2799 59.9404 39.0664 60.0745 38.8562 60.1958L37.8348 58.9587C38.0543 58.8536 38.2513 58.756 38.4257 58.6661C38.6001 58.5762 38.7698 58.4782 38.9349 58.3721C39.1046 58.2741 39.2333 58.189 39.321 58.1169C39.4087 58.0447 39.4587 57.9727 39.4711 57.9009C39.487 57.8163 39.4709 57.7232 39.423 57.6215C39.3832 57.5152 39.3142 57.3771 39.2162 57.2074L38.2292 55.4979L35.4406 57.1079C35.5762 57.1374 35.7124 57.1773 35.8492 57.2276C35.9895 57.2652 36.1448 57.3102 36.3152 57.3627C36.6004 57.446 36.852 57.527 37.07 57.6059C37.2833 57.6768 37.4671 57.7431 37.6213 57.8049L37.1419 59.3265C36.547 59.0988 36.013 58.9113 35.54 58.7641C35.0671 58.6168 34.7437 58.5233 34.5698 58.4836L34.8465 57.4509L33.8523 58.0249L33.0893 56.7033L37.4662 54.1763L36.8152 53.0487L32.1959 55.7157L31.5939 54.6731C31.5844 55.142 31.5553 55.6329 31.5066 56.146L35.1326 62.4264L33.8475 63.1684L31.1735 58.5369C31.1247 58.7698 31.0736 58.9987 31.0202 59.2235C30.9702 59.4356 30.9041 59.657 30.8218 59.8877L29.3016 59.3267C29.4389 58.9672 29.5609 58.5626 29.6678 58.113C29.7699 57.6552 29.8621 57.1709 29.9443 56.66C30.0266 56.1491 30.0822 55.6482 30.1113 55.1572C30.1404 54.6662 30.1494 54.2245 30.1384 53.8321L31.5922 53.9142C31.5926 53.9895 31.5929 54.0647 31.5932 54.14C31.6016 54.2105 31.602 54.2858 31.5942 54.3657L34.4677 52.7067L33.8377 51.6155L31.3643 53.0435L30.6223 51.7583L33.0957 50.3303L32.3327 49.0088L33.6785 48.2318ZM27.5555 55.6305C27.7804 54.9187 27.9935 54.149 28.1947 53.3216C28.3959 52.4941 28.537 51.6744 28.6179 50.8625L30.1333 51.1354C30.1095 51.5048 30.0627 51.909 29.9929 52.3481C29.9184 52.779 29.8318 53.217 29.733 53.662C29.6296 54.0989 29.5175 54.5301 29.3967 54.9555C29.2712 55.3728 29.1415 55.7548 29.0076 56.1016L27.5555 55.6305Z" fill="#EE994B"/>
    <path d="M42.0733 52.2439C42.0578 51.6385 42.0269 51.0529 41.9803 50.487C41.9338 49.9211 41.8648 49.3628 41.7732 48.8122C41.6922 48.2985 41.6092 47.8561 41.5242 47.4849C41.4473 47.109 41.3588 46.7505 41.2589 46.4094L39.998 47.1374L39.249 45.8401L43.2743 43.5161L44.0233 44.8134L42.4956 45.6954C42.6142 46.0688 42.7179 46.4724 42.8066 46.9061C42.9034 47.3352 42.9928 47.7793 43.0748 48.2385L44.8328 47.2235L48.2418 53.1281C48.2336 52.8526 48.2116 52.5905 48.1758 52.3418C48.1399 52.093 48.0926 51.8617 48.0338 51.6478C47.8433 50.9818 47.398 50.0426 46.698 48.8302L45.627 46.9752L45.5623 47.255L44.1424 47.0078C44.2769 46.5314 44.3819 46.0505 44.4573 45.5651C44.5327 45.0797 44.5879 44.606 44.6228 44.1439C44.6613 43.6691 44.6801 43.2164 44.6793 42.7857C44.6739 42.347 44.6553 41.9321 44.6234 41.5409L46.079 41.234L46.1259 42.0152L48.9145 40.4052L49.5445 41.4964C49.5097 41.7536 49.4663 42.005 49.4141 42.2506C49.37 42.4916 49.326 42.7326 49.2819 42.9736L50.8338 42.0776L54.8728 49.0734C55.1435 49.5422 55.2563 49.9243 55.2113 50.2197C55.1744 50.5104 54.9806 50.8001 54.63 51.0888C54.51 51.1796 54.3634 51.2804 54.1903 51.3912C54.0171 51.5019 53.8352 51.6069 53.6447 51.7062L52.6182 50.4882C52.6505 50.4696 52.699 50.4416 52.7637 50.4042C52.8411 50.3703 52.9162 50.3324 52.9889 50.2904C53.0663 50.2564 53.1374 50.2208 53.202 50.1835C53.2794 50.1496 53.3383 50.1209 53.3788 50.0976C53.5323 50.0089 53.6217 49.9304 53.6469 49.862C53.6767 49.8017 53.6333 49.6705 53.5166 49.4684L52.9916 48.5591L51.7428 49.2801L53.0448 51.5352L51.8445 52.2282L50.5425 49.9731L49.2331 50.7291C49.2822 50.8516 49.3267 50.966 49.3666 51.0723C49.4064 51.1786 49.4439 51.2809 49.4791 51.3792C49.6057 51.7479 49.6937 52.1336 49.743 52.5362C49.7969 52.947 49.8135 53.4331 49.7929 53.9947L48.2221 54.1579C48.2273 54.0364 48.2308 53.9212 48.2327 53.8123C48.2426 53.6988 48.2461 53.5836 48.2433 53.4667L45.3819 55.1187L43.4499 51.7724L43.4576 52.3176L42.0733 52.2439ZM45.7708 53.1322L46.4861 52.7192L44.4491 49.191L43.7338 49.604L45.7708 53.1322ZM46.1105 43.6407C46.0939 44.0598 46.0558 44.4698 45.9962 44.8706L47.6087 43.9396C47.7295 43.5142 47.8404 43.0622 47.9413 42.5837L46.1105 43.6407ZM51.0078 48.007L52.2566 47.286L51.6826 46.2918L50.4338 47.0128L51.0078 48.007ZM49.1248 44.7455L49.6918 45.7276L50.9406 45.0066L50.3736 44.0245L49.1248 44.7455ZM48.5951 49.4L49.8075 48.7L49.2335 47.7058L48.0453 48.3918L48.1153 48.513L48.5951 49.4ZM47.3033 47.1066L48.4915 46.4206L47.9245 45.4385L46.7363 46.1245L47.3033 47.1066Z" fill="#EE994B"/>
    <path d="M60.1103 46.777C60.4514 45.9118 60.6763 45.0599 60.7848 44.2213C60.8968 43.3699 60.8959 42.519 60.7821 41.6687C60.5639 39.9841 59.8045 38.0246 58.5037 35.7903L57.6847 34.3718L59.0063 33.6088L60.0283 35.3789L60.3139 35.9576C61.3044 37.4119 62.3358 38.5731 63.4082 39.4412C64.8837 40.6154 66.5588 41.3888 68.4336 41.7613L68.0521 43.4527C67.0785 43.1849 66.1717 42.8463 65.3317 42.4368C64.4998 42.0226 63.7063 41.5161 62.9512 40.9175C62.7758 40.7817 62.6021 40.6395 62.4301 40.4909C62.2661 40.3377 62.0976 40.1763 61.9243 40.0069L62.1503 40.8464C62.3602 41.6952 62.4315 42.6401 62.3644 43.6812C62.2972 44.7222 62.0837 45.9017 61.7237 47.2195L60.1103 46.777ZM57.9999 47.0416C58.0558 46.8585 58.0717 46.6714 58.0477 46.4805C58.0237 46.2896 57.9407 46.0897 57.7985 45.8808L55.7055 42.2556L54.3233 43.0536L53.5463 41.7078L56.2743 40.1328L58.8293 44.5582C58.9069 44.3194 58.9821 44.0389 59.0548 43.7167C59.1355 43.3899 59.2001 43.0724 59.2485 42.7643L60.5043 43.6235C60.1214 44.9762 59.6883 46.2608 59.2052 47.4773L57.9999 47.0416ZM52.9026 37.1489C53.1147 37.1989 53.3633 37.2655 53.6485 37.3487C53.9336 37.432 54.2489 37.5301 54.5944 37.6432C54.9399 37.7563 55.2495 37.8631 55.5231 37.9638C55.7968 38.0645 56.0305 38.1612 56.2242 38.2541L55.7639 39.7808C55.3671 39.5789 54.826 39.3416 54.1406 39.0692C53.7939 38.9353 53.482 38.8244 53.2049 38.7364C52.9359 38.6439 52.6954 38.5726 52.4833 38.5226L52.9026 37.1489Z" fill="#EE994B"/>
    <path fill-rule="evenodd" clip-rule="evenodd" d="M78.623 17.0407L5.87688 59.0407L5.37688 58.1746L78.123 16.1746L78.623 17.0407Z" fill="#EE994B"/>
    <path fill-rule="evenodd" clip-rule="evenodd" d="M90.623 37.8253L17.8769 79.8253L17.3769 78.9592L90.123 36.9592L90.623 37.8253Z" fill="#EE994B"/>
    <path d="M60.9998 70.5167L60.5467 68.3847L62.4343 67.2949L60.2666 67.067L59.8134 64.935L58.9269 66.9262L56.7592 66.6984L58.379 68.1568L57.4925 70.148L59.3801 69.0582L60.9998 70.5167Z" fill="#EE994B"/>
    <path d="M70.5135 61.4419L69.524 59.4998L71.0652 57.9586L68.9124 58.2996L67.9229 56.3575L67.5819 58.5103L65.4291 58.8513L67.3712 59.8408L67.0302 61.9936L68.5714 60.4524L70.5135 61.4419Z" fill="#EE994B"/>
    <path d="M48.498 72.0417L48.3839 74.2183L47.1968 72.3904L45.0915 72.9545L46.4632 71.2606L45.276 69.4326L47.3109 70.2137L48.6826 68.5198L48.5685 70.6965L50.6034 71.4776L48.498 72.0417Z" fill="#EE994B"/>
    <path d="M34.9998 25.4833L36.6196 26.9418L38.5072 25.852L37.6207 27.8432L39.2405 29.3016L37.0728 29.0738L36.1863 31.065L35.7331 28.933L33.5654 28.7052L35.453 27.6153L34.9998 25.4833Z" fill="#EE994B"/>
    <path d="M47.6156 21.7817L48.8027 23.6096L50.9081 23.0455L49.5364 24.7394L50.7235 26.5674L48.6887 25.7863L47.317 27.4802L47.4311 25.3035L45.3962 24.5224L47.5016 23.9583L47.6156 21.7817Z" fill="#EE994B"/>
    <path d="M27.4282 35.5477L25.4861 34.5582L26.4757 36.5003L24.9344 38.0415L27.0872 37.7005L28.0768 39.6426L28.4177 37.4898L30.5705 37.1488L28.6285 36.1593L28.9694 34.0065L27.4282 35.5477Z" fill="#EE994B"/>
    <path fill-rule="evenodd" clip-rule="evenodd" d="M31 18.5551C19.7475 25.0517 13.6134 37.0092 14.0126 49.1473L1.23317 56.5255C-0.0544043 57.2689 -0.109531 59.1074 1.13119 59.9266L12.5243 67.449C13.0497 67.7959 13.3811 68.3698 13.4188 68.9982L14.2368 82.6261C14.3258 84.1102 15.9456 84.9817 17.2332 84.2384L30.0126 76.8601C40.3249 83.2749 53.7474 83.9414 65 77.4448C76.2525 70.9481 82.3866 58.9907 81.9873 46.8525L94.7666 39.4744C96.0541 38.731 96.1093 36.8925 94.8686 36.0734L83.4754 28.551C82.9501 28.2041 82.6187 27.6302 82.581 27.0018L81.763 13.3738C81.6739 11.8897 80.0541 11.0182 78.7666 11.7616L65.9873 19.1397C55.675 12.7249 42.2525 12.0584 31 18.5551ZM65.0009 19.7092C55.0547 13.7444 42.2559 13.2111 31.5 19.4211C20.744 25.6311 14.8064 36.9817 14.999 48.5778L19.0503 46.2388C19.6297 36.8581 24.7509 27.9365 33.5 22.8852C42.249 17.8339 52.536 17.8597 60.9496 22.0482L65.0009 19.7092ZM64.5 76.5788C53.744 82.7887 40.9453 82.2555 30.999 76.2906L35.0503 73.9516C43.4639 78.1402 53.7509 78.1659 62.5 73.1147C71.249 68.0634 76.3703 59.1417 76.9496 49.761L81.0009 47.422C81.1935 59.0181 75.2559 70.3688 64.5 76.5788ZM62 72.2486C53.7598 77.0061 44.1065 77.0992 36.0976 73.347L75.9023 50.3657C75.1474 59.1777 70.2402 67.4911 62 72.2486ZM59.9023 22.6529L20.0976 45.6341C20.8526 36.8222 25.7598 28.5087 34 23.7512C42.2402 18.9937 51.8934 18.9007 59.9023 22.6529ZM79.2666 12.6276L1.73317 57.3916C1.08938 57.7633 1.06182 58.6825 1.68218 59.0921L13.0753 66.6145C13.8633 67.1348 14.3604 67.9957 14.417 68.9383L15.235 82.5662C15.2795 83.3083 16.0894 83.744 16.7332 83.3723L94.2666 38.6084C94.9104 38.2367 94.9379 37.3175 94.3176 36.9079L82.9244 29.3855C82.1364 28.8652 81.6393 28.0043 81.5828 27.0617L80.7648 13.4338C80.7202 12.6917 79.9104 12.256 79.2666 12.6276Z" fill="#EE994B"/>
</svg>
