<svg width="271" height="24" viewBox="0 0 271 24" fill="none" xmlns="http://www.w3.org/2000/svg">
  <path
    d="M3.43613 23L0.676133 2H4.54613L7.00613 20.96H4.99613L15.2261 2H18.8561L21.2861 20.96H19.3961L29.5361 2H33.4061L22.2761 23H18.1061L15.7661 5.9H16.9361L7.60613 23H3.43613ZM38.8621 23.21C37.2621 23.21 35.8721 22.92 34.6921 22.34C33.5121 21.74 32.5921 20.92 31.9321 19.88C31.2921 18.82 30.9721 17.58 30.9721 16.16C30.9721 14.34 31.3721 12.73 32.1721 11.33C32.9721 9.93 34.0621 8.83 35.4421 8.03C36.8421 7.21 38.4321 6.8 40.2121 6.8C41.7121 6.8 43.0121 7.08 44.1121 7.64C45.2121 8.2 46.0621 9.01 46.6621 10.07C47.2821 11.11 47.5921 12.36 47.5921 13.82C47.5921 14.2 47.5721 14.59 47.5321 14.99C47.4921 15.39 47.4321 15.76 47.3521 16.1H33.7621L34.1821 13.61H45.5821L44.0521 14.45C44.2121 13.43 44.1421 12.58 43.8421 11.9C43.5421 11.22 43.0621 10.7 42.4021 10.34C41.7421 9.98 40.9521 9.8 40.0321 9.8C38.9321 9.8 37.9721 10.06 37.1521 10.58C36.3521 11.08 35.7321 11.8 35.2921 12.74C34.8521 13.66 34.6321 14.74 34.6321 15.98C34.6321 17.28 35.0021 18.28 35.7421 18.98C36.5021 19.68 37.6721 20.03 39.2521 20.03C40.1521 20.03 41.0121 19.89 41.8321 19.61C42.6521 19.31 43.3321 18.9 43.8721 18.38L45.4321 20.99C44.5921 21.73 43.5921 22.29 42.4321 22.67C41.2921 23.03 40.1021 23.21 38.8621 23.21ZM49.3964 23L53.8364 0.739999H57.5864L53.1464 23H49.3964ZM66.0782 23.21C64.4982 23.21 63.1082 22.92 61.9082 22.34C60.7282 21.74 59.8182 20.92 59.1782 19.88C58.5382 18.82 58.2182 17.58 58.2182 16.16C58.2182 14.36 58.6282 12.76 59.4482 11.36C60.2682 9.94 61.3982 8.83 62.8382 8.03C64.2782 7.21 65.9382 6.8 67.8182 6.8C69.4382 6.8 70.8282 7.12 71.9882 7.76C73.1682 8.38 74.0782 9.31 74.7182 10.55L71.5082 12.2C71.1482 11.44 70.6282 10.88 69.9482 10.52C69.2882 10.16 68.4782 9.98 67.5182 9.98C66.4782 9.98 65.5382 10.24 64.6982 10.76C63.8582 11.26 63.1982 11.96 62.7182 12.86C62.2382 13.76 61.9982 14.8 61.9982 15.98C61.9982 17.22 62.3682 18.2 63.1082 18.92C63.8482 19.64 64.8982 20 66.2582 20C67.1382 20 67.9582 19.82 68.7182 19.46C69.4782 19.1 70.1182 18.54 70.6382 17.78L73.3982 19.64C72.6582 20.76 71.6382 21.64 70.3382 22.28C69.0382 22.9 67.6182 23.21 66.0782 23.21ZM83.1855 23.21C81.6255 23.21 80.2555 22.92 79.0755 22.34C77.9155 21.74 77.0155 20.92 76.3755 19.88C75.7355 18.82 75.4155 17.58 75.4155 16.16C75.4155 14.36 75.8255 12.76 76.6455 11.36C77.4655 9.94 78.5855 8.83 80.0055 8.03C81.4455 7.21 83.0855 6.8 84.9255 6.8C86.5055 6.8 87.8755 7.09 89.0355 7.67C90.2155 8.23 91.1255 9.04 91.7655 10.1C92.4055 11.14 92.7255 12.38 92.7255 13.82C92.7255 15.6 92.3155 17.2 91.4955 18.62C90.6755 20.04 89.5455 21.16 88.1055 21.98C86.6855 22.8 85.0455 23.21 83.1855 23.21ZM83.4255 20C84.5055 20 85.4555 19.75 86.2755 19.25C87.0955 18.73 87.7455 18.02 88.2255 17.12C88.7055 16.22 88.9455 15.18 88.9455 14C88.9455 12.76 88.5755 11.78 87.8355 11.06C87.0955 10.34 86.0555 9.98 84.7155 9.98C83.6555 9.98 82.7055 10.24 81.8655 10.76C81.0455 11.26 80.3955 11.96 79.9155 12.86C79.4355 13.76 79.1955 14.8 79.1955 15.98C79.1955 17.24 79.5655 18.23 80.3055 18.95C81.0455 19.65 82.0855 20 83.4255 20ZM117.581 6.8C118.981 6.8 120.151 7.08 121.091 7.64C122.031 8.2 122.691 9.03 123.071 10.13C123.451 11.21 123.481 12.54 123.161 14.12L121.391 23H117.641L119.411 14.21C119.671 12.89 119.561 11.87 119.081 11.15C118.601 10.43 117.731 10.07 116.471 10.07C115.171 10.07 114.101 10.45 113.261 11.21C112.441 11.95 111.871 13.1 111.551 14.66L109.871 23H106.121L107.891 14.21C108.151 12.89 108.041 11.87 107.561 11.15C107.081 10.43 106.211 10.07 104.951 10.07C103.651 10.07 102.581 10.45 101.741 11.21C100.921 11.95 100.351 13.11 100.031 14.69L98.3514 23H94.6014L97.7814 6.98H101.351L100.481 11.39L99.8514 10.1C100.591 8.96 101.511 8.13 102.611 7.61C103.731 7.07 104.951 6.8 106.271 6.8C107.311 6.8 108.231 6.98 109.031 7.34C109.831 7.68 110.471 8.21 110.951 8.93C111.451 9.63 111.741 10.5 111.821 11.54L110.021 11.15C110.841 9.71 111.891 8.63 113.171 7.91C114.471 7.17 115.941 6.8 117.581 6.8ZM134.253 23.21C132.653 23.21 131.263 22.92 130.083 22.34C128.903 21.74 127.983 20.92 127.323 19.88C126.683 18.82 126.363 17.58 126.363 16.16C126.363 14.34 126.763 12.73 127.563 11.33C128.363 9.93 129.453 8.83 130.833 8.03C132.233 7.21 133.823 6.8 135.603 6.8C137.103 6.8 138.403 7.08 139.503 7.64C140.603 8.2 141.453 9.01 142.053 10.07C142.673 11.11 142.983 12.36 142.983 13.82C142.983 14.2 142.963 14.59 142.923 14.99C142.883 15.39 142.823 15.76 142.743 16.1H129.153L129.573 13.61H140.973L139.443 14.45C139.603 13.43 139.533 12.58 139.233 11.9C138.933 11.22 138.453 10.7 137.793 10.34C137.133 9.98 136.343 9.8 135.423 9.8C134.323 9.8 133.363 10.06 132.543 10.58C131.743 11.08 131.123 11.8 130.683 12.74C130.243 13.66 130.023 14.74 130.023 15.98C130.023 17.28 130.393 18.28 131.133 18.98C131.893 19.68 133.063 20.03 134.643 20.03C135.543 20.03 136.403 19.89 137.223 19.61C138.043 19.31 138.723 18.9 139.263 18.38L140.823 20.99C139.983 21.73 138.983 22.29 137.823 22.67C136.683 23.03 135.493 23.21 134.253 23.21ZM159.078 23.21C158.038 23.21 157.138 22.99 156.378 22.55C155.638 22.09 155.098 21.45 154.758 20.63C154.438 19.79 154.388 18.8 154.608 17.66L157.458 3.44H161.208L158.358 17.63C158.238 18.37 158.318 18.97 158.598 19.43C158.878 19.89 159.408 20.12 160.188 20.12C160.548 20.12 160.908 20.07 161.268 19.97C161.648 19.85 161.988 19.69 162.288 19.49L162.948 22.25C162.388 22.61 161.768 22.86 161.088 23C160.408 23.14 159.738 23.21 159.078 23.21ZM153.528 10.1L154.128 7.1H164.778L164.178 10.1H153.528ZM173.186 23.21C171.626 23.21 170.256 22.92 169.076 22.34C167.916 21.74 167.016 20.92 166.376 19.88C165.736 18.82 165.416 17.58 165.416 16.16C165.416 14.36 165.826 12.76 166.646 11.36C167.466 9.94 168.586 8.83 170.006 8.03C171.446 7.21 173.086 6.8 174.926 6.8C176.506 6.8 177.876 7.09 179.036 7.67C180.216 8.23 181.126 9.04 181.766 10.1C182.406 11.14 182.726 12.38 182.726 13.82C182.726 15.6 182.316 17.2 181.496 18.62C180.676 20.04 179.546 21.16 178.106 21.98C176.686 22.8 175.046 23.21 173.186 23.21ZM173.426 20C174.506 20 175.456 19.75 176.276 19.25C177.096 18.73 177.746 18.02 178.226 17.12C178.706 16.22 178.946 15.18 178.946 14C178.946 12.76 178.576 11.78 177.836 11.06C177.096 10.34 176.056 9.98 174.716 9.98C173.656 9.98 172.706 10.24 171.866 10.76C171.046 11.26 170.396 11.96 169.916 12.86C169.436 13.76 169.196 14.8 169.196 15.98C169.196 17.24 169.566 18.23 170.306 18.95C171.046 19.65 172.086 20 173.426 20ZM203.752 23.3C201.632 23.3 199.822 22.92 198.322 22.16C196.822 21.4 195.672 20.35 194.872 19.01C194.092 17.65 193.702 16.09 193.702 14.33C193.702 12.55 194.002 10.9 194.602 9.38C195.202 7.84 196.072 6.5 197.212 5.36C198.352 4.22 199.712 3.33 201.292 2.69C202.872 2.03 204.632 1.7 206.572 1.7C208.672 1.7 210.472 2.08 211.972 2.84C213.472 3.6 214.622 4.66 215.422 6.02C216.222 7.36 216.622 8.91 216.622 10.67C216.622 12.45 216.312 14.11 215.692 15.65C215.092 17.17 214.222 18.5 213.082 19.64C211.942 20.78 210.582 21.68 209.002 22.34C207.442 22.98 205.692 23.3 203.752 23.3ZM204.082 19.88C205.402 19.88 206.592 19.65 207.652 19.19C208.712 18.71 209.612 18.06 210.352 17.24C211.112 16.4 211.692 15.44 212.092 14.36C212.492 13.26 212.692 12.11 212.692 10.91C212.692 9.77 212.442 8.76 211.942 7.88C211.442 7 210.712 6.32 209.752 5.84C208.792 5.36 207.612 5.12 206.212 5.12C204.912 5.12 203.722 5.36 202.642 5.84C201.582 6.3 200.672 6.95 199.912 7.79C199.172 8.61 198.602 9.57 198.202 10.67C197.822 11.75 197.632 12.89 197.632 14.09C197.632 15.23 197.872 16.24 198.352 17.12C198.852 18 199.582 18.68 200.542 19.16C201.502 19.64 202.682 19.88 204.082 19.88ZM218.506 23L222.706 2H231.196C233.336 2 235.166 2.36 236.686 3.08C238.206 3.78 239.366 4.78 240.166 6.08C240.986 7.38 241.396 8.91 241.396 10.67C241.396 12.53 241.076 14.22 240.436 15.74C239.816 17.26 238.926 18.56 237.766 19.64C236.626 20.7 235.256 21.53 233.656 22.13C232.056 22.71 230.276 23 228.316 23H218.506ZM223.066 19.7H228.436C230.316 19.7 231.926 19.32 233.266 18.56C234.626 17.78 235.666 16.73 236.386 15.41C237.106 14.09 237.466 12.59 237.466 10.91C237.466 9.77 237.216 8.78 236.716 7.94C236.216 7.1 235.466 6.45 234.466 5.99C233.486 5.53 232.256 5.3 230.776 5.3H225.946L223.066 19.7ZM243.292 23L247.492 2H250.672L256.792 17.39L255.142 17.36L267.112 2H270.472L266.272 23H262.582L265.612 7.7L266.482 7.73L256.342 20.6H254.602L249.292 7.7L250.042 7.79L247.012 23H243.292Z"
    fill="#FDFDFD" />
</svg>