<svg width="24" height="24" viewBox="0 0 24 24" fill="none" xmlns="http://www.w3.org/2000/svg">
  <path
    d="M20 0H4C1.79086 0 0 1.79086 0 4V20C0 22.2091 1.79086 24 4 24H20C22.2091 24 24 22.2091 24 20V4C24 1.79086 22.2091 0 20 0Z"
    fill="#292A2F" />
  <path
    d="M10.6901 6.23438L10.0338 10.1719C10.027 10.2123 10.0291 10.2538 10.04 10.2933C10.0508 10.3329 10.0702 10.3696 10.0968 10.4008C10.1233 10.4321 10.1564 10.4572 10.1937 10.4743C10.2309 10.4914 10.2715 10.5002 10.3125 10.5H12.7824C12.8489 10.5 12.9132 10.4765 12.964 10.4336C13.0148 10.3907 13.0488 10.3312 13.0599 10.2656L13.7161 6.32813C13.7229 6.28778 13.7209 6.24644 13.7101 6.20697C13.6992 6.16751 13.68 6.13088 13.6535 6.09964C13.6271 6.06839 13.5942 6.04329 13.5571 6.02609C13.52 6.00888 13.4795 5.99998 13.4386 6H10.9688C10.9021 5.99968 10.8374 6.02308 10.7864 6.06601C10.7353 6.10894 10.7012 6.16861 10.6901 6.23438Z"
    fill="#1FD59E" />
  <path
    d="M5.44009 6.23438L4.53399 11.6719C4.52718 11.7122 4.52924 11.7535 4.54003 11.793C4.55082 11.8324 4.57009 11.869 4.59649 11.9003C4.62288 11.9315 4.65577 11.9566 4.69287 11.9738C4.72996 11.9911 4.77036 12 4.81126 12H7.28251C7.34897 12 7.41327 11.9764 7.46402 11.9335C7.51478 11.8906 7.5487 11.8312 7.55977 11.7656L8.4661 6.32813C8.47292 6.28778 8.47086 6.24644 8.46005 6.20697C8.44924 6.16751 8.42996 6.13088 8.40354 6.09964C8.37711 6.06839 8.34419 6.04329 8.30707 6.02609C8.26995 6.00888 8.22952 5.99998 8.1886 6H5.71876C5.65206 5.99968 5.58742 6.02308 5.53637 6.06601C5.48533 6.10894 5.4512 6.16861 5.44009 6.23438Z"
    fill="#1FD59E" />
  <path d="M7.21875 19.2188L3.46875 16.5L7.21875 13.7812V19.2188Z" fill="#4E95FF" />
  <path
    d="M15.9401 6.23438L15.5339 8.67188C15.5271 8.71222 15.5292 8.75357 15.54 8.79303C15.5508 8.8325 15.5701 8.86913 15.5965 8.90037C15.6229 8.93161 15.6558 8.95671 15.6929 8.97392C15.7301 8.99113 15.7705 9.00003 15.8114 9H16.7578C16.7851 9 16.812 9.00594 16.8367 9.0174C16.8614 9.02886 16.8833 9.04556 16.9009 9.06635C16.9185 9.08715 16.9314 9.11152 16.9386 9.13779C16.9458 9.16405 16.9472 9.19157 16.9427 9.21844L16.188 13.7466C16.1305 14.0972 15.9501 14.4158 15.679 14.6455C15.4079 14.8752 15.064 15.0008 14.7087 15H7.21875V18H14.7087C15.7741 18.0002 16.805 17.6224 17.618 16.9339C18.431 16.2453 18.9733 15.2906 19.1484 14.2397L20.4661 6.32813C20.4729 6.28778 20.4708 6.24644 20.46 6.20697C20.4492 6.16751 20.4299 6.13088 20.4035 6.09964C20.3771 6.06839 20.3442 6.04329 20.3071 6.02609C20.2699 6.00888 20.2295 5.99998 20.1886 6H16.2188C16.1521 5.99968 16.0874 6.02308 16.0364 6.06601C15.9853 6.10894 15.9512 6.16861 15.9401 6.23438Z"
    fill="#4E95FF" />
</svg>