<svg width="750" height="46" viewBox="0 0 750 46" fill="none" xmlns="http://www.w3.org/2000/svg">
<path d="M16.2602 36.48C12.8682 36.48 9.97219 35.872 7.57219 34.656C5.17219 33.44 3.33219 31.76 2.05219 29.616C0.804188 27.44 0.180188 24.944 0.180188 22.128C0.180188 19.28 0.660188 16.64 1.62019 14.208C2.58019 11.744 3.97219 9.6 5.79619 7.776C7.62019 5.952 9.79619 4.528 12.3242 3.504C14.8522 2.448 17.6682 1.92 20.7722 1.92C24.1322 1.92 27.0122 2.528 29.4122 3.744C31.8122 4.96 33.6522 6.656 34.9322 8.832C36.2122 10.976 36.8522 13.456 36.8522 16.272C36.8522 19.12 36.3562 21.776 35.3642 24.24C34.4042 26.672 33.0122 28.8 31.1882 30.624C29.3642 32.448 27.1882 33.888 24.6602 34.944C22.1642 35.968 19.3642 36.48 16.2602 36.48ZM16.7882 31.008C18.9002 31.008 20.8042 30.64 22.5002 29.904C24.1962 29.136 25.6362 28.096 26.8202 26.784C28.0362 25.44 28.9642 23.904 29.6042 22.176C30.2442 20.416 30.5642 18.576 30.5642 16.656C30.5642 14.832 30.1642 13.216 29.3642 11.808C28.5642 10.4 27.3962 9.312 25.8602 8.544C24.3242 7.776 22.4362 7.392 20.1962 7.392C18.1162 7.392 16.2122 7.776 14.4842 8.544C12.7882 9.28 11.3322 10.32 10.1162 11.664C8.93219 12.976 8.02019 14.512 7.38019 16.272C6.77219 18 6.46819 19.824 6.46819 21.744C6.46819 23.568 6.85219 25.184 7.62019 26.592C8.42019 28 9.58819 29.088 11.1242 29.856C12.6602 30.624 14.5482 31.008 16.7882 31.008ZM50.2824 36.336C48.1384 36.336 46.2984 35.888 44.7624 34.992C43.2584 34.064 42.1864 32.736 41.5464 31.008C40.9064 29.248 40.8424 27.104 41.3544 24.576L44.1864 10.368H50.1864L47.3544 24.432C46.9704 26.512 47.1624 28.144 47.9304 29.328C48.7304 30.48 50.1704 31.056 52.2504 31.056C54.3944 31.056 56.1864 30.448 57.6264 29.232C59.0984 28.016 60.0744 26.16 60.5544 23.664L63.2424 10.368H69.1944L64.1064 36H58.3944L59.8344 28.704L60.7944 31.008C59.5784 32.832 58.0424 34.176 56.1864 35.04C54.3624 35.904 52.3944 36.336 50.2824 36.336ZM81.5623 36.336C79.8983 36.336 78.4583 35.984 77.2423 35.28C76.0583 34.544 75.1943 33.52 74.6503 32.208C74.1383 30.864 74.0583 29.28 74.4103 27.456L78.9703 4.704H84.9703L80.4103 27.408C80.2183 28.592 80.3463 29.552 80.7943 30.288C81.2423 31.024 82.0903 31.392 83.3383 31.392C83.9143 31.392 84.4903 31.312 85.0663 31.152C85.6743 30.96 86.2183 30.704 86.6983 30.384L87.7543 34.8C86.8583 35.376 85.8663 35.776 84.7783 36C83.6903 36.224 82.6183 36.336 81.5623 36.336ZM72.6823 15.36L73.6423 10.56H90.6823L89.7223 15.36H72.6823ZM92.8821 36L99.6021 2.4H115.106C118.626 2.4 121.33 3.04 123.218 4.32C125.106 5.6 126.05 7.472 126.05 9.936C126.05 12.048 125.506 13.824 124.418 15.264C123.362 16.704 121.986 17.792 120.29 18.528C118.626 19.264 116.834 19.632 114.914 19.632L116.114 18C118.642 18 120.69 18.64 122.258 19.92C123.826 21.168 124.61 23.008 124.61 25.44C124.61 27.776 123.97 29.728 122.69 31.296C121.442 32.864 119.698 34.048 117.458 34.848C115.25 35.616 112.674 36 109.73 36H92.8821ZM100.082 31.104H110.162C112.754 31.104 114.77 30.624 116.21 29.664C117.65 28.704 118.37 27.296 118.37 25.44C118.37 23.936 117.842 22.896 116.786 22.32C115.73 21.712 114.242 21.408 112.322 21.408H101.138L102.098 16.56H111.842C113.378 16.56 114.722 16.368 115.874 15.984C117.058 15.568 117.954 14.944 118.562 14.112C119.202 13.248 119.522 12.208 119.522 10.992C119.522 9.712 119.01 8.784 117.986 8.208C116.994 7.6 115.57 7.296 113.714 7.296H104.834L100.082 31.104ZM141.494 36.336C138.998 36.336 136.806 35.872 134.918 34.944C133.062 33.984 131.622 32.672 130.598 31.008C129.574 29.312 129.062 27.328 129.062 25.056C129.062 22.176 129.718 19.616 131.03 17.376C132.342 15.104 134.134 13.328 136.406 12.048C138.71 10.736 141.334 10.08 144.278 10.08C146.806 10.08 148.998 10.544 150.854 11.472C152.742 12.368 154.198 13.664 155.222 15.36C156.246 17.024 156.758 19.008 156.758 21.312C156.758 24.16 156.102 26.72 154.79 28.992C153.478 31.264 151.67 33.056 149.366 34.368C147.094 35.68 144.47 36.336 141.494 36.336ZM141.878 31.2C143.606 31.2 145.126 30.8 146.438 30C147.75 29.168 148.79 28.032 149.558 26.592C150.326 25.152 150.71 23.488 150.71 21.6C150.71 19.616 150.118 18.048 148.934 16.896C147.75 15.744 146.086 15.168 143.942 15.168C142.246 15.168 140.726 15.584 139.382 16.416C138.07 17.216 137.03 18.336 136.262 19.776C135.494 21.216 135.11 22.88 135.11 24.768C135.11 26.784 135.702 28.368 136.886 29.52C138.07 30.64 139.734 31.2 141.878 31.2ZM170.751 36.336C168.607 36.336 166.767 35.888 165.231 34.992C163.727 34.064 162.655 32.736 162.015 31.008C161.375 29.248 161.311 27.104 161.823 24.576L164.655 10.368H170.655L167.823 24.432C167.439 26.512 167.631 28.144 168.399 29.328C169.199 30.48 170.639 31.056 172.719 31.056C174.863 31.056 176.655 30.448 178.095 29.232C179.567 28.016 180.543 26.16 181.023 23.664L183.711 10.368H189.663L184.575 36H178.863L180.303 28.704L181.263 31.008C180.047 32.832 178.511 34.176 176.655 35.04C174.831 35.904 172.863 36.336 170.751 36.336ZM211.487 10.08C213.695 10.08 215.567 10.528 217.103 11.424C218.639 12.32 219.711 13.648 220.319 15.408C220.959 17.136 221.023 19.264 220.511 21.792L217.679 36H211.679L214.463 21.936C214.879 19.856 214.687 18.24 213.887 17.088C213.087 15.904 211.631 15.312 209.519 15.312C207.311 15.312 205.487 15.92 204.047 17.136C202.607 18.352 201.631 20.208 201.119 22.704L198.431 36H192.431L197.519 10.368H203.231L201.791 17.664L200.831 15.36C202.047 13.536 203.567 12.208 205.391 11.376C207.247 10.512 209.279 10.08 211.487 10.08ZM236.905 36.336C234.825 36.336 232.921 35.888 231.193 34.992C229.465 34.096 228.105 32.816 227.113 31.152C226.121 29.456 225.625 27.424 225.625 25.056C225.625 22.88 225.977 20.88 226.681 19.056C227.417 17.232 228.441 15.648 229.753 14.304C231.065 12.96 232.585 11.92 234.313 11.184C236.073 10.448 237.977 10.08 240.025 10.08C242.137 10.08 243.961 10.448 245.497 11.184C247.033 11.92 248.217 13.024 249.049 14.496C249.881 15.968 250.297 17.792 250.297 19.968C250.297 22.368 249.993 24.576 249.385 26.592C248.777 28.576 247.897 30.304 246.745 31.776C245.593 33.216 244.185 34.336 242.521 35.136C240.889 35.936 239.017 36.336 236.905 36.336ZM238.441 31.2C240.137 31.2 241.641 30.8 242.953 30C244.297 29.168 245.337 28.032 246.073 26.592C246.841 25.152 247.225 23.488 247.225 21.6C247.225 19.616 246.633 18.048 245.449 16.896C244.297 15.744 242.633 15.168 240.457 15.168C238.793 15.168 237.289 15.584 235.945 16.416C234.601 17.216 233.545 18.336 232.777 19.776C232.041 21.216 231.673 22.88 231.673 24.768C231.673 26.752 232.249 28.32 233.401 29.472C234.585 30.624 236.265 31.2 238.441 31.2ZM244.681 36L245.881 30.144L247.465 23.328L248.281 16.464L251.497 0.383998H257.497L250.393 36H244.681ZM272.132 36L278.852 2.4H292.436C295.86 2.4 298.788 2.976 301.22 4.128C303.652 5.248 305.508 6.848 306.788 8.928C308.1 11.008 308.756 13.456 308.756 16.272C308.756 19.248 308.244 21.952 307.22 24.384C306.228 26.816 304.804 28.896 302.948 30.624C301.124 32.32 298.932 33.648 296.372 34.608C293.812 35.536 290.964 36 287.828 36H272.132ZM279.428 30.72H288.02C291.028 30.72 293.604 30.112 295.748 28.896C297.924 27.648 299.588 25.968 300.74 23.856C301.892 21.744 302.468 19.344 302.468 16.656C302.468 14.832 302.068 13.248 301.268 11.904C300.468 10.56 299.268 9.52 297.668 8.784C296.1 8.048 294.132 7.68 291.764 7.68H284.036L279.428 30.72ZM322.732 36.336C320.652 36.336 318.748 35.888 317.02 34.992C315.324 34.096 313.964 32.816 312.94 31.152C311.948 29.456 311.452 27.424 311.452 25.056C311.452 22.88 311.804 20.88 312.508 19.056C313.244 17.232 314.268 15.648 315.58 14.304C316.892 12.96 318.412 11.92 320.14 11.184C321.9 10.448 323.82 10.08 325.9 10.08C328.044 10.08 329.884 10.464 331.42 11.232C332.988 12 334.172 13.168 334.972 14.736C335.772 16.272 336.14 18.192 336.076 20.496C336.012 23.664 335.436 26.448 334.348 28.848C333.26 31.216 331.74 33.056 329.788 34.368C327.836 35.68 325.484 36.336 322.732 36.336ZM324.268 31.2C325.996 31.2 327.516 30.8 328.828 30C330.14 29.168 331.18 28.032 331.948 26.592C332.716 25.152 333.1 23.488 333.1 21.6C333.1 19.616 332.508 18.048 331.324 16.896C330.14 15.744 328.476 15.168 326.332 15.168C324.636 15.168 323.116 15.584 321.772 16.416C320.46 17.216 319.42 18.336 318.652 19.776C317.884 21.216 317.5 22.88 317.5 24.768C317.5 26.752 318.092 28.32 319.276 29.472C320.46 30.624 322.124 31.2 324.268 31.2ZM330.556 36L331.708 30.144L333.34 23.328L334.156 16.464L335.356 10.368H341.356L336.268 36H330.556ZM353.719 36.336C352.055 36.336 350.615 35.984 349.399 35.28C348.215 34.544 347.351 33.52 346.807 32.208C346.295 30.864 346.215 29.28 346.567 27.456L351.127 4.704H357.127L352.567 27.408C352.375 28.592 352.503 29.552 352.951 30.288C353.399 31.024 354.247 31.392 355.495 31.392C356.071 31.392 356.647 31.312 357.223 31.152C357.831 30.96 358.375 30.704 358.855 30.384L359.911 34.8C359.015 35.376 358.023 35.776 356.935 36C355.847 36.224 354.775 36.336 353.719 36.336ZM344.839 15.36L345.799 10.56H362.839L361.879 15.36H344.839ZM375.139 36.336C373.059 36.336 371.155 35.888 369.427 34.992C367.731 34.096 366.371 32.816 365.347 31.152C364.355 29.456 363.859 27.424 363.859 25.056C363.859 22.88 364.211 20.88 364.915 19.056C365.651 17.232 366.675 15.648 367.987 14.304C369.299 12.96 370.819 11.92 372.547 11.184C374.307 10.448 376.227 10.08 378.307 10.08C380.451 10.08 382.291 10.464 383.827 11.232C385.395 12 386.579 13.168 387.379 14.736C388.179 16.272 388.547 18.192 388.483 20.496C388.419 23.664 387.843 26.448 386.755 28.848C385.667 31.216 384.147 33.056 382.195 34.368C380.243 35.68 377.891 36.336 375.139 36.336ZM376.675 31.2C378.403 31.2 379.923 30.8 381.235 30C382.547 29.168 383.587 28.032 384.355 26.592C385.123 25.152 385.507 23.488 385.507 21.6C385.507 19.616 384.915 18.048 383.731 16.896C382.547 15.744 380.883 15.168 378.739 15.168C377.043 15.168 375.523 15.584 374.179 16.416C372.867 17.216 371.827 18.336 371.059 19.776C370.291 21.216 369.907 22.88 369.907 24.768C369.907 26.752 370.499 28.32 371.683 29.472C372.867 30.624 374.531 31.2 376.675 31.2ZM382.963 36L384.115 30.144L385.747 23.328L386.563 16.464L387.763 10.368H393.763L388.675 36H382.963ZM410.366 36L417.086 2.4H422.174L431.966 27.024L429.326 26.976L448.478 2.4H453.854L447.134 36H441.23L446.078 11.52L447.47 11.568L431.246 32.16H428.462L419.966 11.52L421.166 11.664L416.318 36H410.366ZM467.154 36.336C465.074 36.336 463.17 35.888 461.442 34.992C459.746 34.096 458.386 32.816 457.362 31.152C456.37 29.456 455.874 27.424 455.874 25.056C455.874 22.88 456.226 20.88 456.93 19.056C457.666 17.232 458.69 15.648 460.002 14.304C461.314 12.96 462.834 11.92 464.562 11.184C466.322 10.448 468.242 10.08 470.322 10.08C472.466 10.08 474.306 10.464 475.842 11.232C477.41 12 478.594 13.168 479.394 14.736C480.194 16.272 480.562 18.192 480.498 20.496C480.434 23.664 479.858 26.448 478.77 28.848C477.682 31.216 476.162 33.056 474.21 34.368C472.258 35.68 469.906 36.336 467.154 36.336ZM468.69 31.2C470.418 31.2 471.938 30.8 473.25 30C474.562 29.168 475.602 28.032 476.37 26.592C477.138 25.152 477.522 23.488 477.522 21.6C477.522 19.616 476.93 18.048 475.746 16.896C474.562 15.744 472.898 15.168 470.754 15.168C469.058 15.168 467.538 15.584 466.194 16.416C464.882 17.216 463.842 18.336 463.074 19.776C462.306 21.216 461.922 22.88 461.922 24.768C461.922 26.752 462.514 28.32 463.698 29.472C464.882 30.624 466.546 31.2 468.69 31.2ZM474.978 36L476.13 30.144L477.762 23.328L478.578 16.464L479.778 10.368H485.778L480.69 36H474.978ZM507.596 10.08C509.804 10.08 511.676 10.528 513.212 11.424C514.748 12.32 515.82 13.648 516.428 15.408C517.068 17.136 517.132 19.264 516.62 21.792L513.788 36H507.788L510.572 21.936C510.988 19.856 510.796 18.24 509.996 17.088C509.196 15.904 507.74 15.312 505.628 15.312C503.42 15.312 501.596 15.92 500.156 17.136C498.716 18.352 497.74 20.208 497.228 22.704L494.54 36H488.54L493.628 10.368H499.34L497.9 17.664L496.94 15.36C498.156 13.536 499.676 12.208 501.5 11.376C503.356 10.512 505.388 10.08 507.596 10.08ZM532.967 36.336C530.887 36.336 528.983 35.888 527.255 34.992C525.559 34.096 524.199 32.816 523.175 31.152C522.183 29.456 521.687 27.424 521.687 25.056C521.687 22.88 522.039 20.88 522.743 19.056C523.479 17.232 524.503 15.648 525.815 14.304C527.127 12.96 528.647 11.92 530.375 11.184C532.135 10.448 534.055 10.08 536.135 10.08C538.279 10.08 540.119 10.464 541.655 11.232C543.223 12 544.407 13.168 545.207 14.736C546.007 16.272 546.375 18.192 546.311 20.496C546.247 23.664 545.671 26.448 544.583 28.848C543.495 31.216 541.975 33.056 540.023 34.368C538.071 35.68 535.719 36.336 532.967 36.336ZM534.503 31.2C536.231 31.2 537.751 30.8 539.063 30C540.375 29.168 541.415 28.032 542.183 26.592C542.951 25.152 543.335 23.488 543.335 21.6C543.335 19.616 542.743 18.048 541.559 16.896C540.375 15.744 538.711 15.168 536.567 15.168C534.871 15.168 533.351 15.584 532.007 16.416C530.695 17.216 529.655 18.336 528.887 19.776C528.119 21.216 527.735 22.88 527.735 24.768C527.735 26.752 528.327 28.32 529.511 29.472C530.695 30.624 532.359 31.2 534.503 31.2ZM540.791 36L541.943 30.144L543.575 23.328L544.391 16.464L545.591 10.368H551.591L546.503 36H540.791ZM564.721 45.648C562.289 45.648 560.049 45.344 558.001 44.736C555.953 44.16 554.193 43.296 552.721 42.144L555.841 37.632C556.833 38.496 558.145 39.184 559.777 39.696C561.409 40.24 563.185 40.512 565.105 40.512C567.921 40.512 570.049 39.888 571.489 38.64C572.929 37.424 573.889 35.584 574.369 33.12L575.425 27.84L577.009 22.416L577.969 16.608L579.169 10.368H584.881L580.561 32.112C579.601 36.88 577.809 40.32 575.185 42.432C572.561 44.576 569.073 45.648 564.721 45.648ZM566.209 34.848C564.001 34.848 562.033 34.432 560.305 33.6C558.577 32.736 557.217 31.52 556.225 29.952C555.233 28.352 554.737 26.448 554.737 24.24C554.737 22.224 555.089 20.368 555.793 18.672C556.529 16.944 557.537 15.44 558.817 14.16C560.129 12.88 561.665 11.888 563.425 11.184C565.217 10.448 567.169 10.08 569.281 10.08C571.137 10.08 572.849 10.416 574.417 11.088C575.985 11.728 577.233 12.784 578.161 14.256C579.089 15.696 579.521 17.6 579.457 19.968C579.393 22.784 578.833 25.328 577.777 27.6C576.721 29.84 575.217 31.616 573.265 32.928C571.313 34.208 568.961 34.848 566.209 34.848ZM567.553 29.76C569.281 29.76 570.801 29.392 572.113 28.656C573.425 27.888 574.449 26.848 575.185 25.536C575.953 24.192 576.337 22.688 576.337 21.024C576.337 19.2 575.745 17.776 574.561 16.752C573.377 15.696 571.729 15.168 569.617 15.168C567.889 15.168 566.369 15.552 565.057 16.32C563.745 17.056 562.705 18.08 561.937 19.392C561.169 20.704 560.785 22.208 560.785 23.904C560.785 25.728 561.377 27.168 562.561 28.224C563.777 29.248 565.441 29.76 567.553 29.76ZM600.545 36.336C597.985 36.336 595.761 35.872 593.873 34.944C591.985 33.984 590.513 32.672 589.457 31.008C588.433 29.312 587.921 27.328 587.921 25.056C587.921 22.144 588.561 19.568 589.841 17.328C591.121 15.088 592.865 13.328 595.073 12.048C597.313 10.736 599.857 10.08 602.705 10.08C605.105 10.08 607.185 10.528 608.945 11.424C610.705 12.32 612.065 13.616 613.025 15.312C614.017 16.976 614.513 18.976 614.513 21.312C614.513 21.92 614.481 22.544 614.417 23.184C614.353 23.824 614.257 24.416 614.129 24.96H592.385L593.057 20.976H611.297L608.849 22.32C609.105 20.688 608.993 19.328 608.513 18.24C608.033 17.152 607.265 16.32 606.209 15.744C605.153 15.168 603.889 14.88 602.417 14.88C600.657 14.88 599.121 15.296 597.809 16.128C596.529 16.928 595.537 18.08 594.833 19.584C594.129 21.056 593.777 22.784 593.777 24.768C593.777 26.848 594.369 28.448 595.553 29.568C596.769 30.688 598.641 31.248 601.169 31.248C602.609 31.248 603.985 31.024 605.297 30.576C606.609 30.096 607.697 29.44 608.561 28.608L611.057 32.784C609.713 33.968 608.113 34.864 606.257 35.472C604.433 36.048 602.529 36.336 600.545 36.336ZM654.168 10.08C656.408 10.08 658.28 10.528 659.784 11.424C661.288 12.32 662.344 13.648 662.952 15.408C663.56 17.136 663.608 19.264 663.096 21.792L660.264 36H654.264L657.096 21.936C657.512 19.824 657.336 18.192 656.568 17.04C655.8 15.888 654.408 15.312 652.392 15.312C650.312 15.312 648.6 15.92 647.256 17.136C645.944 18.32 645.032 20.16 644.52 22.656L641.832 36H635.832L638.664 21.936C639.08 19.824 638.904 18.192 638.136 17.04C637.368 15.888 635.976 15.312 633.96 15.312C631.88 15.312 630.168 15.92 628.824 17.136C627.512 18.32 626.6 20.176 626.088 22.704L623.4 36H617.4L622.488 10.368H628.2L626.808 17.424L625.8 15.36C626.984 13.536 628.456 12.208 630.216 11.376C632.008 10.512 633.96 10.08 636.072 10.08C637.736 10.08 639.208 10.368 640.488 10.944C641.768 11.488 642.792 12.336 643.56 13.488C644.36 14.608 644.824 16 644.952 17.664L642.072 17.04C643.384 14.736 645.064 13.008 647.112 11.856C649.192 10.672 651.544 10.08 654.168 10.08ZM680.842 36.336C678.282 36.336 676.058 35.872 674.17 34.944C672.282 33.984 670.81 32.672 669.754 31.008C668.73 29.312 668.218 27.328 668.218 25.056C668.218 22.144 668.858 19.568 670.138 17.328C671.418 15.088 673.162 13.328 675.37 12.048C677.61 10.736 680.154 10.08 683.002 10.08C685.402 10.08 687.482 10.528 689.242 11.424C691.002 12.32 692.362 13.616 693.322 15.312C694.314 16.976 694.81 18.976 694.81 21.312C694.81 21.92 694.778 22.544 694.714 23.184C694.65 23.824 694.554 24.416 694.426 24.96H672.682L673.354 20.976H691.594L689.146 22.32C689.402 20.688 689.29 19.328 688.81 18.24C688.33 17.152 687.562 16.32 686.506 15.744C685.45 15.168 684.186 14.88 682.714 14.88C680.954 14.88 679.418 15.296 678.106 16.128C676.826 16.928 675.834 18.08 675.13 19.584C674.426 21.056 674.074 22.784 674.074 24.768C674.074 26.848 674.666 28.448 675.85 29.568C677.066 30.688 678.938 31.248 681.466 31.248C682.906 31.248 684.282 31.024 685.594 30.576C686.906 30.096 687.994 29.44 688.858 28.608L691.354 32.784C690.01 33.968 688.41 34.864 686.554 35.472C684.73 36.048 682.826 36.336 680.842 36.336ZM716.753 10.08C718.961 10.08 720.833 10.528 722.369 11.424C723.905 12.32 724.977 13.648 725.585 15.408C726.225 17.136 726.289 19.264 725.777 21.792L722.945 36H716.945L719.729 21.936C720.145 19.856 719.953 18.24 719.153 17.088C718.353 15.904 716.897 15.312 714.785 15.312C712.577 15.312 710.753 15.92 709.313 17.136C707.873 18.352 706.897 20.208 706.385 22.704L703.697 36H697.697L702.785 10.368H708.497L707.057 17.664L706.097 15.36C707.313 13.536 708.833 12.208 710.657 11.376C712.513 10.512 714.545 10.08 716.753 10.08ZM740.156 36.336C738.492 36.336 737.052 35.984 735.836 35.28C734.652 34.544 733.788 33.52 733.244 32.208C732.732 30.864 732.652 29.28 733.004 27.456L737.564 4.704H743.564L739.004 27.408C738.812 28.592 738.94 29.552 739.388 30.288C739.836 31.024 740.684 31.392 741.932 31.392C742.508 31.392 743.084 31.312 743.66 31.152C744.268 30.96 744.812 30.704 745.292 30.384L746.348 34.8C745.452 35.376 744.46 35.776 743.372 36C742.284 36.224 741.212 36.336 740.156 36.336ZM731.276 15.36L732.236 10.56H749.276L748.316 15.36H731.276Z" fill="#FDFDFD"/>
</svg>
