<svg width="24" height="24" viewBox="0 0 24 24" fill="none" xmlns="http://www.w3.org/2000/svg">
<g clip-path="url(#clip0_2833_16838)">
<path d="M13.5303 6.46964C13.2374 6.17675 12.7626 6.17675 12.4697 6.46964C12.1768 6.76253 12.1768 7.23741 12.4697 7.5303L16.9393 12L12.4697 16.4696C12.1768 16.7625 12.1768 17.2374 12.4697 17.5303C12.7626 17.8232 13.2374 17.8232 13.5303 17.5303L18.5303 12.5303C18.8232 12.2374 18.8232 11.7625 18.5303 11.4696L13.5303 6.46964Z" fill="white"/>
<path d="M6.53033 6.46964C6.23744 6.17675 5.76256 6.17675 5.46967 6.46964C5.17678 6.76253 5.17678 7.23741 5.46967 7.5303L9.93934 12L5.46967 16.4696C5.17678 16.7625 5.17678 17.2374 5.46967 17.5303C5.76256 17.8232 6.23744 17.8232 6.53033 17.5303L11.5303 12.5303C11.8232 12.2374 11.8232 11.7625 11.5303 11.4696L6.53033 6.46964Z" fill="white"/>
</g>
<defs>
<clipPath id="clip0_2833_16838">
<rect width="24" height="24" fill="white"/>
</clipPath>
</defs>
</svg>
